<mxfile host="app.diagrams.net" modified="2023-11-16T10:46:38.150Z" agent="Mozilla/5.0 (Windows NT 10.0; Win64; x64; rv:109.0) Gecko/20100101 Firefox/119.0" etag="bDoJVm2jDwTC7e_3KmGj" version="22.1.2" type="github">
  <diagram name="Pagina-1" id="3foKRDTNDnrZsMwfVdPc">
    <mxGraphModel dx="3375" dy="1354" grid="1" gridSize="10" guides="1" tooltips="1" connect="1" arrows="1" fold="1" page="1" pageScale="1" pageWidth="827" pageHeight="1169" math="0" shadow="0">
      <root>
        <mxCell id="0" />
        <mxCell id="1" parent="0" />
        <mxCell id="cqRFZYUG5nDRbfdlNZfL-6" style="edgeStyle=orthogonalEdgeStyle;rounded=0;orthogonalLoop=1;jettySize=auto;html=1;exitX=1;exitY=0.5;exitDx=0;exitDy=0;" edge="1" parent="1" source="cqRFZYUG5nDRbfdlNZfL-2" target="cqRFZYUG5nDRbfdlNZfL-8">
          <mxGeometry relative="1" as="geometry">
            <mxPoint x="-530" y="400" as="targetPoint" />
          </mxGeometry>
        </mxCell>
        <mxCell id="cqRFZYUG5nDRbfdlNZfL-19" value="" style="edgeStyle=orthogonalEdgeStyle;rounded=0;orthogonalLoop=1;jettySize=auto;html=1;" edge="1" parent="1" source="cqRFZYUG5nDRbfdlNZfL-2" target="cqRFZYUG5nDRbfdlNZfL-18">
          <mxGeometry relative="1" as="geometry" />
        </mxCell>
        <mxCell id="cqRFZYUG5nDRbfdlNZfL-2" value="Au sol" style="rounded=0;whiteSpace=wrap;html=1;fillColor=#dae8fc;strokeColor=#6c8ebf;" vertex="1" parent="1">
          <mxGeometry x="-710" y="514" width="100" height="60" as="geometry" />
        </mxCell>
        <mxCell id="cqRFZYUG5nDRbfdlNZfL-4" value="" style="shape=image;verticalLabelPosition=bottom;labelBackgroundColor=default;verticalAlign=top;aspect=fixed;imageAspect=0;image=data:image/png,iVBORw0KGgoAAAANSUhEUgAAA5AAAAGACAYAAADbBY2WAAAgAElEQVR4XuydB3wUZf7Gn+2b3kkCJBASepWqqCAqFkRU7Ip6nnd6Zxf1LH+levaKCvYKnAUpViwoooAgUkISCC29k9627/83k6CgIunZ3TzzkY9JduYt3/dNZp75NY1bDvAgARIgARIgARIgARIgARIgARIggWMQ0FBAco+QAAmQAAmQAAmQAAmQAAmQAAk0hQAFZFMo8RwSIAESIAESIAESIAESIAESIAFQQHITkAAJkAAJkAAJkAAJkAAJkAAJNIkABWSTMPEkEiABEiABEiABEiABEiABEiABCkjuARIgARIgARIgARIgARIgARIggSYRoIBsEiaeRAIkQAIkQAJ/TiAtLQ07duxQPwwMDMTUqVOh0WiIiwRIgARIgAR8kgAFpE8uKydFAiRAAiTQUQRmzZqF+fPnq91FRUWhsLAQWq22o7pnPyRAAiRAAiTQoQQoIDsUNzsjARIgARLwNQKPPPII7r//fnVaSUlJSE9Pp4D0tUXmfEiABEiABH4lQAHJzUACJEACJEACrSBAAdkKeLyUBEiABEjA6whQQHrdknHAJEACJEACnkSAAtKTVoNjIQESIAESaG8CFJDtTZjtkwAJkAAJ+DQBCkifXl5OjgRIgARI4HcEKCC5JUiABEiABEigFQQOT6ITGRmJoqIixkC2gicvJQESIAES8GwCFJCevT4cHQmQAAmQgIcTUMp4JCcnq6NUynicc845LOPh4WvG4ZEACZAACbScAAVky9nxShIgARIgARLA8uXLsWTJEpVETEwMXnjhBQpI7gsSIAESIAGfJUAB6bNLy4mRAAmQAAl0BIE5c+Zg7ty5alfR0dHIz8+nC2tHgGcfJEACJEACnUKAArJTsLNTEiABEiABXyHAJDq+spKcBwmQAAmQQFMIUEA2hRLPIQESIAESIIGjEKCA5NYgARIgARLoSgQoILvSanOuJEACJEACbU6AArLNkbJBEiABEiABDyZAAenBi8OhkQAJkAAJeD6B+fPnQynloRxxcXHIzMxkDKTnLxtHSAIkQAIk0EICFJAtBMfLSIAESIAESEAhsGDBAjz88MMqjISEBKxfv54CkluDBEiABEjAZwlQQPrs0nJiJEACJEACJEACJEACJEACJNC2BCgg25YnWyMBEiABEuhiBHbt2oWdO3eqsw4KCsJZZ53FOpBdbA9wuiRAAiTQlQhQQHal1eZcSYAESIAE2pyAEv+oxEEqR2RkJIqKiujC2uaU2SAJkAAJkICnEKCA9JSV4DhIgARIgAS8kgCzsHrlsnHQJEACJEACLSRAAdlCcLyMBEiABEiABBQCFJDcByRAAiRAAl2JAAVkV1ptzpUESIAESKDNCVBAtjlSNkgCJEACJODBBCggPXhxODQSIAESIAHPJ0AB6flrxBGSAAmQAAm0HQEKyLZjyZZIgARIgAS6IIHZs2dj3rx56syjoqJQWFjIJDpdcB9wyiRAAiTQVQhQQHaVleY8SYAESIAE2oWAUsYjOTlZbTswMBBTpkxhGY92Ic1GSYAESIAEPIEABaQnrALHQAIkQAIk4LUEPvroIyxevFgdf0xMDBYuXEgB6bWryYGTAAmQAAkciwAF5LEI8XMSIAESIAES+AsCc+bMwdy5c9UzoqOjkZ+fTxdW7hgSIAESIAGfJUAB6bNLy4mRAAmQAAl0BAEm0ekIyuyDBEiABEjAUwhQQHrKSnAcJEACJEACXkmAAtIrl42DJgESIAESaCEBCsgWguNlJEACJEACJKAQoIDkPiABEiABEuhKBCggu9Jqc64kQAIkQAJtTmD+/PmYNWuW2m5cXBwyMzMZA9nmlNkgCZAACZCApxCggPSUleA4SIAESIAEvJLA888/j4cfflgde0JCAn788UcKSK9cSQ6aBEiABEigKQQoIJtCieeQAAmQAAmQAAmQAAmQAAmQAAmAApKbgARIgARIgARaQSAtLQ3JyclqC0FBQZgyZQrrQLaCJy8lARIgARLwbAIUkJ69PhwdCZAACZCAhxNQ4h+VOEjliIyMRFFREV1YPXzNODwSIAESIIGWE6CAbDk7XkkCJEACJEACzMLKPUACJEACJNClCFBAdqnl5mRJgARIgATamgDLeLQ1UbZHAiRAAiTgyQQoID15dTg2EiABEiABjydAAenxS8QBkgAJkAAJtCEBCsg2hMmmSIAESIAEuh4BCsiut+acMQmQAAl0ZQIUkF159Tl3EiABEiCBVhOYPXs25s2bp7YTFRWFwsJCJtFpNVU2QAIkQAIk4KkEKCA9dWU4LhIgARIgAa8gsGvXLuzcuVMda2BgIM4++2yW8fCKleMgSYAESIAEWkKAArIl1HgNCZAACZAACTQSWLZsGd599131u9jYWCxatIgCkruDBEiABEjAZwlQQPrs0nJiJEACJEACHUFgzpw5mDt3rtpVTEwM8vLy6MLaEeDZBwmQAAmQQKcQoIDsFOzslARIgARIwFcIMImOr6wk50ECJEACJNAUAhSQTaHEc0iABEiABEjgKAQoILk1SIAESIAEuhIBCsiutNqcKwmQAAmQQJsToIBsc6RskARIgARIwIMJUEB68OJwaCRAAiRAAp5PYP78+Zg1a5Y60Li4OGRmZjIG0vOXjSMkARIgARJoIQEKyBaC42UkQAIkQAIkoBB4/vnn8eijj6owevfujR9++IECkluDBEiABEjAZwlQQPrs0nJiJEACJEACJEACJEACJEACJNC2BCgg25YnWyMBEiABEuhiBFJTU7Fjxw511kFBQZg6dSrrQHaxPcDpkgAJ/DUBd30NXPVVgNtJVJ1OwA1otNAGRkBj9GvRaCggW4SNF5EACZAACZBAAwEl/lGJg1SOyMhIFBUV0YWVm4MESIAEhIDbWgf7/k1wluXAXVcJuBzyUw3ZdCoBlyyBDtqgSOhi+kMfPwIavb5ZI6KAbBYunkwCJEACJEACRxJgFlbuCBIgARL4IwG3rR7WbR/DmbsTbo1GjF46ikcP2ihup03WxAh90ngYB04UEWls8ugoIJuMiieSAAmQAAmQwB8JUEByV5AACZDAHwnYUr6BPf17QG9QXSZ5eCCBRouwafTF0Pcc1OQBUkA2GRVPJAESIAESIAEKSO4BEiABEjgWAXdNBSyb34OzIr9Zlq1jtcvP24GA0y6urANgGnNhk9eKArId1oFNkgAJkAAJdB0CtEB2nbXmTEmABJpGwFmaA+svK+CuLQN0zYuva1oPPKvNCLic0JgC4Hfqv+T/gU1qlgKySZh4EgmQAAmQAAn8OYHZs2dj3rx56odRUVEoLCxkEh1uFhIggS5NwFma2yggSykgPX0nuCSpjsEI/9NugsYc1KTRUkA2CRNPIgESIAESIIE/J7B7926kpKSoHwYGBuLMM89kGQ9uFhIggS5NgALSi5ZfFZAmEZA3UkB60bJxqCRAAiRAAl5M4MMPP8Q777yjziA2NhYvv/wyBaQXryeHTgIk0HoCFJCtZ9hhLVBAdhhqdkQCJEACJEACKoE5c+Zg7ty56tcxMTHIy8ujCyv3BgmQQJcmQAHpRctPAelFi8WhkgAJkAAJ+AQBJtHxiWXkJEiABNqQAAVkG8Js76YoINubMNsnARIgARIggSMJUEByR5AACZDAkQQoIL1oR1BAetFicagkQAIkQAI+QYAC0ieWkZMgARJoQwIUkG0Is72booBsb8JsnwRIgARIgARogeQeIAESIIG/IkAB6UX7gwLSixaLQyUBEiABEvAJAkyi4xPLyEmQAAm0IQEKyDaE2d5NUUC2N2G2TwIkQAIkQAJHEli2bBneffdd9YdKGY9FixaxjAc3CQmQQJcmQAHpRctPAelFi8WhkgAJkAAJ+ASBtLQ0JCcnq3MJCgrClClTKCB9YmU5CRIggZYSoIBsKblOuI4CshOgs0sSIAESIIEuTWD27NmYN2+eyiAqKgqFhYWsA9mldwQnTwIkQAHpRXuAAtKLFotDJQESIAES8AkCzMLqE8vISZAACbQhAQrINoTZ3k1RQLY3YbZPAiRAAiRAAkcSoIDkjiABEiCBIwn4nIB0uwCnA9Dq5Z/Wt5abAtK31pOzIQESIAES8HwCFJCev0YcIQmQQMcS8CkB6XYDen9o/YMBeyVclnqBqelYoO3ZGwVke9Jl2yRAAiRAAiTwRwIUkNwVJEACJODDFkiHVQLcT4TfyWcBWR/DsmML3G6j72hICkj++pIACZAACZBAxxI4PIlOt27dUFBQwCQ6HbsE7I0ESMDDCHimBVIsifLfr4fmkBWx8ee/fn/ojMaTFYHl3xP6uAFAZSqcxQUiIHWNAvJobf6uDdVieagf5TMPsmBSQHrYbw+HQwIkQAIk4PME0tPTkZKSos4zMDAQZ5xxBst4+Pyqc4IkQAJ/RcDjBKQSw6geh4ScIg7layWeUflM+adRROFhws7lbDxHfu6ywW0T11WdHzQGsT6qYlC5Tv6vXqP8U75XvpQ2D7XjljaUc5TPf/1Z4zXKeZ5wUEB6wipwDCRAAiRAAl2JwAcffIC3335bnXL37t3xyiuvUEB2pQ3AuZIACfyBgEcJSEXomaOh6z4Chm7RIgJFzLmr4Ni7Ho6CfGh6ToIpsRecez+DvahcRKV87tRAm3A6jLEm2Ld+BqcxEcYhE6Ct2gRr+k647dKmKQq6+ONhiOnWIB5hgTNnBxx5e+B2KCLRDF2/s2EIccCRmwVNzADo/P2hsRfCtvsHOCtrPSMhDwUkf4NJgARIgARIoGMJzJkzB3PnzlU7jYmJQV5eHl1YO3YJ2BsJkICHEfAYASkWQLc2BHoReroAEY15+0XcBUE/5FwYAw/C+vN7sDtHSXyjeI4UfIz6bTtE+CnWxRgYxl8Og2kP6td+AnfoGJhPOhe6g2tQ9/NauNyxMAyfDmO0E/aUNXCW1kIbPwmGpN5wZ30Fa4rESSIIuuOuhTk+Eq6KvXDs2yCi0Qz9yLOhdx+AdbMIU6ti+exkd1YKSA/77eFwSIAESIAEfJ4Ak+j4/BJzgiRAAs0k4DECUh13o/uo4k7qsot1USfWwDPhd+JwOFM+gCWtDMaJV0Nv3A/rj6vhctiAsBNhHjsJyHgflt17gMhxMB8/DdrSL1G/dbMk1TkbfuOOg2vvKliTf4FbRKDbGAvjmL/DGF4M68YPYD/oFLH4d5jjxIqZ/AFsB7JVN1lt4qUwD+oBR/JiWLMPyo862ZWVArKZu5unkwAJkAAJkEArCVBAthIgLycBEvAZAnVWB6osTkS7DqL+5+Vw15aKy6jUTuzsQxGPTruELSr1HN3QKALxjDOBdCWr6jZoB14Jc99Q2De/C1uRFbqBF8LcPwz2H5fCXlomgrFRQB78AvXJqXK+CMNeGti2ijDMLIBGLwISftD3vUzEoVy35T1YM4uhH3M9zLFu2LYo7dao4Q2aGBGfowbCuWcZLHvEtVUnMZadeVBAdiZ99k0CJEACJNAVCVBAdsVV55xJgAT+jMDnW3JQWu/GVSNNqFv/gWcISCUZjj4I2pjh0EdFSY4bsUgaI6GLDodz98ew7twKhJ4kLqoTgezlqN9RDsMJV8DovweWTeKeWm+HJlJcWBULpCog06Eb8Q+YImtFQL4PW165mn/HrQmAPukSEZDRcGx/H9Z9OdCpAhKw/bIYtsKqBgEZOwV+I/vDmS4Ccm82BSR/lUiABEiABEigqxGggOxqK875kgAJ/BmBXTkVeGRFKqaN642LhuhEQH7Y+QLS5YDbEAnDwHMl2Y0RzsytcFXWAEH9YRgyCG7FArlzmwhKiXkcNwMGTYoIyGwYx04Fcj+Bda+4ryr5cSJGNwrI1fL5Tmj7/w3mRKMk2FFcU3MBg7bBAtnvCpgHBsEusZXW7FLoR/+TApK/LiRAAiRAAiRAAkcSODyJTnR0NPLz85lEh5uEBEigSxHIkyQyj65IQfdwf8w8dzCMNQUe4MIqyXCcTmhChsN0ygXQ5kv84sbV4snqB13PyTBNOElcWFeJgNwOt94sFkr52aDucJWVQxukl7jFT+CosEhOHbFgHhKQSgzkL5vke4mhHD8O7v2rJPHOT1KpQyyLQX1hHHc1DPrdYrlcCUe1HgaJgTTRAtmlfhc4WRIgARIgARI4JoGPPvoIixcvVs+LjY3Fiy++yDIex6TGE0iABHyFgMVqx5Mfp8Fic+Ku8wcjNMAkWUlzYf1lhUdYICWLDQzHXQyDfwnse7dIBtVI6HuOgD46QpLgrBCX1F8a4jTNfWA6fgb0oVo4Mz4T11ZFGErNR4mdROTxkql1CrQl36Jus5KFtZtYMM+XMh9GODI2w1khcZM9xkAXqYVj15ewZ2VJm8FigbwBph7iwrrpddjyKxtcWHucD/8xg+DctQT1uzPpwuorvwicBwmQAAmQAAk0lUBaWhp27JDU73IEBQXhnHPOoYBsKjyeRwIk4NUE7HYn3vpuH7ZmlOPuaYPQJzZYnY/HCEhlMC6xRPrHQ99nKHR+JhlcJZzFxdCEimmwbCfseeKCqsRFav2h7XEiDJEGOLM3w1FcIrGTIizFDRYBvWHoMwKa2lTYs/dLMleXJM4JhrbnyIa4SqUSh60EjqwdcJYrtSSVxDgGKe0h7YVAfv4THJX1DQIyZCgMvWLgKvxF6k6WSkwms7B69S8BB08CJEACJEACzSUwa9YszJ8/X70sMjISRUVFdGFtLkSeTwIk4JUEVm3KwsrNOfj3Gf0xtn/Ur3PwKAGpjMotsZAOsSSKlhTF1iAYleQ6WqNYAJUsscoH8s9hlUyt8n+96Uhhd+h6jUGEY2NWWbeS0bUxs6taylHb0JYqHtVOG9uTLqU9tU/lcNlkLHKtTum7k8WjOh4Zi8EE/9NuhMYc1KR9qHHL0aQzeRIJkAAJkAAJkMAfCDCJDjcFCZBAVySwdf9BvLg6HeeNjpPEOfFHIPA4AdkVF6ipc6aAbCopnkcCJEACJEACbUOAArJtOLIVEiAB7yGwr6AK//1oJ8YmReAGsT5qD1nXGqdAAek9a0kLpBetFYdKAiRAAiTgGwQoIH1jHTkLEiCBphEor7biIRGPQX563HnuIAT5S6KZ3x0UkE1j6RFn0QLpEcvAQZAACZAACXQhAhSQXWixOVUS6OIEnE4Xnv98F3JK69SkOTHhAX9KhALSizYKBaQXLRaHSgIkQAIk4BMEDk+iEyXZ+AoLC5lExydWlpMgARL4PYFlGzPx+S95uO2cARieEHFUQBSQXrR3KCC9aLE4VBIgARIgAZ8gsHv3bqSkpKhzCQwMxJlnnskyHj6xspwECZDA4QS+Ty2UpDl78I9TE3HGcVLc8C8OCkgv2jsUkF60WBwqCZAACZAACZAACZAACXgBgdTscjy+KhWnDonBNZOSjjliCshjIvKcEyggPWctOBISIAESIIGuQWDBggV4+OGH1ckmJCRg/fr1dGHtGkvPWZJAlyBQVF6PR1fsRM8If9wyZQCMhsY6iLRA+sb6U0D6xjpyFiRAAiRAAt5DYP78+VDiIJUjLi4OmZmZFJDes3wcKQmQwF8QsFgdeOaTXaist6kZV6NC/ZrEixbIJmHyjJMoID1jHTgKEiABEiCBrkOAWVi7zlpzpiTQlQi43W68/d0+/LCrBPddMBhJ3UOaPH0KyCaj6vwTKSA7fw04AhIgARIgga5FgAKya603Z0sCXYXAF7/k4L31Wbj+9L44cVB0s6ZNAdksXJ17MgVk5/Jn7yRAAiRAAl2PAAVk11tzzpgEfJ3AL/sOYsHn6ThvTE9MP6FXs6dLAdlsZJ13AQVk57FnzyRAAiRAAl2TwJw5czB37lx18tHR0cjPz2cMZNfcCpw1CfgEgQMFVXjqkzQMjgvF9ZP7Qa/XNnteFJDNRtZ5F1BAdh579kwCJEACJNA1CSxfvhxLlixRJx8TE4MXXniBdSC75lbgrEnA6wnUSLKcx1emQqfRYKYkzQkKMLZoThSQLcLWORdRQHYOd/ZKAiRAAiTQdQmkpaUhOTlZBRAYGIhzzjmHArLrbgfOnAS8loDd4cKLq3cjNbsSD148FPFRgS2eCwVki9F1/IUUkB3PnD2SAAmQAAl0bQJKCQ+llIdyREZGoqioiC6sXXtLcPYk4JUE/rfuAD7dlo97zx+Eob3CWzUH58EcWLeugLu2DNAdu25kqzrjxa0joAhIvQH+p98MjTmoSW1pJEWvu0ln8iQSIAESIAESIIE/EGASHW4KEiABbyewPq0Ir327DzNOTsBpw7u3ejqu6jJYN70HZ1UhNPqWucG2ehBsoGkEXE5oQ7rDfNIMaAxNq/NJAdk0tDyLBEiABEiABP6UAAUkNwYJkIA3E9iXX4GnP92N0QkR+PvkJJmKpvXTEfuU5eeP4MzZDhhMbdNm60fFFn5PwC3WR6cDxiFnwdDvhCavEwUktxIJkAAJkAAJtIIABWQr4PFSEiCBTiVQUlGPx1amINDPgHvOGwI/c9u5mzrLC2DbtgrOshxodAZAqxNt2gbitFOJ+UjninAUyyPk/9rIPjCNng6tf0iTJ0cB2WRUPJEESIAESIAE/kiAApK7ggRIwBsJWO1OPPdJKgorLbjvwqGICm6a+2Jz5upSRGT6WrgqCuGur4TbYRER2fyyIM3pk+f+FQElclEjbsV+Eu8YCF1kbxj6T4A2KKJZ2Cggm4WLJ5MACZAACZDAkQRmz56NefPmqT+MiopCYWEhk+hwk5AACXg0AZfLjbck5nHT3oO4c9pA9OsR2n7jFRdJZ1keXNXFcNtqKSDbj3QTWm4UkMZAEY2R0IX3FMtw8wU9BWQTUPMUEiABEiABEjgagfT0dKSmpqofK2U8Jk+ezDIe3C4kQAIeTWD11ly8tz4L152WhJMHRXv0WDk4zyNAAel5a8IRkQAJkAAJkAAJkAAJkEC7EEjOKMWCL9Jx1vBYXHRiQrv0wUZ9mwAFpG+vL2dHAiTQDAIOpwSVN3h38PASAkohKq0kZdDpOm/RnnvuOTz88MMqsYSEBGzYsIEurF6yfzhMEuhqBArKavHEylT0jgrEjVP6Q6+TxDY8SKCZBCggmwmMp5MACfgegT0FtUgvrENZjQ0SFkL96EVLLJIfRhGPPcL9MCDGH7FhSrr4jj3mz5+PWbNmqZ3Gx8cjIyODArJjl4C9kQAJNIFATb0d85ftlHucG3efNxgRweYmXMVTSOCPBCgguStIgAS6LIEaixNfJB/EN7vKUFTjgKETrVhddhFaOXHF7qgYje2i/PtH+uG84yJxfGKICLiOs0gyC2srF5GXdwwBxVzPEgodw9oDe7FLxtVXvt6D5OwKPHDRUMRFBnrgKDkkbyFAAektK8VxkgAJtCkBm8ON19fl4evd5TDqtdB3oOBo04mwMZWAIiKtdheCTVpcOz4GJw8IR0c9L1NAchN6C4Ha/ByUbv4ctoO7xQql2O877kWLtzDq6HG6nXaYYoYicvyF8JMszu11rNqUhVU/5+Lms/pjZFJke3XDdrsIAQrILrLQnCYJkMCRBNaJ1fHlHwrkEUri55qfwZo4PZSARURkUqQJt54Wh+7hHeOeRQHpoZuBwzqCwMHN3yDrvfmoz0uGs76CdDyFgOh4XUAo/OOHovvUmYiZeH6bj2zT3hIs+Gw3Lh3fC9PGxrd5+2yw6xGggOx6a84Zk0CXJ+AS09Sjn2Zhe16Nan3k4TsElBhWm8OFy8ZE4aLRHZOafs6cOZg7d64KMTo6Gvn5+YyB9J0t5RMzqUj7GenPXAtbaTp0JikWr9X7xLx8ZRJulwOu+moYYwag701vIXzouDab2p68CjwmSXNGJ0bihjP7qUnHeJBAawlQQLaWIK8nARLwKgKKW2NxpRWPrs5GXoWVAtKrVq9pg62xOnHagFDcdEpPaDsgrnXFihVYunSpOriYmBgsWLCAdSCbtlQ8qwMIOG02pC+8C2U/vgyt0Z9xkB3AvEVduF1wWOoQddK1GHD7ImhaUNz99/2WVVnw+KpUhAcYcevUgTAbO/jFgdxwXVXFcNvrue9atCna4SJZE43eBE1guPr/lh4UkC0lx+tIgAS8lsCe/Fo8920uSmodagZPHr5FoNbmxCn9QvGvCd1hMrZ/ivq0tDRs375dhRgUFISpU6dSQPrWlvLq2dgqSrDt7glwVOXKA6PBq+fi64N3WqoR2PcEDLzrI5gjWxcPabU5sHB1OnJKa3HP+UMQHSYvDzrwcNWUwX5gCxziMo36ShGQ9PbpQPxH70peVMAUBF10Xxj6jIEuvGeLhkUB2SJsvIgESMCbCezMqsbCdfkoq2PmVW9ex6ONXRGQk0RA3tBBAlIp4aGU8lCOyMhIFBUV0YXVFzeWl87JVl6ArXccB6elFhodBaQnL6PLVgdzz+Hod+sSBCcktXiobvHlX/rDAaxJKcJdYnkc1CusxW215EJ3fRUs2z6FMz9VXloYxWVaeZGnpDrj0fkE5KW5S0Sk0yZWyCgYR54HfVTvZg+LArLZyHgBCZCAtxNIya7Gi99TQHr7OnqKgGQSHV/dSb4xL1t5IbbOHCWJc6ooID18SVUB2WOYCMh3Edynf4tHuzalAO98tx8zJiTi1OGxLW6npRfa9q6HbeeXst/EZZaWx5ZibPfr3LZ66ONHwHTcNGgMzXNnpYBs9+VhByRAAp5GgALS01akbcfT0RZICsi2XT+21rYEKCDblmd7tvabgFwsArJfi7ramVWGZz7ZhcnDYnC5CMiOPtzWWli3rISzaDfQihi7jh53l+zP5YTGHAzTmIuhi2ieKysFZJfcMZw0CXRtAhSQvr3+FJC+vb6cXfMIUEA2j1dnnt1aAZl7sBYPfbQT/WODcdPZ/WE0tH8M+O95uaoPwrLpA7hrShpdVzuTKPs+FgHFCmkedyn0ccOOdeoRn1NANgsXTyYBEvAFAhSQvrCKR58DBaRvry9n1zwCLReQSoIxC5w1dcDEOu0AACAASURBVBK9ppNahcGSHKp5ffvO2TJxt01KbdTA6dRCHxAknpm/j+tT4DjhtlbCYZP6wv5BUi1FXDiV1N9NPFojIC1WBx5fmQKHxD/OlLjH0KCOqYNLAdnExfXQ0yggPXRhOCwSIAHPI0AB6Xlr0pYj6mgBOXv2bMybN0+dQlRUFAoLC5lEpy0XlG21ikBLBaTb7ZAYtiEImzwV/shE6Xcfod7iEuHUEhWpXCO1Dq01cDm00PkFtrCdVqFo+cUuK1zmvggbdzGCwwpRsmYF6quUmNLDymIIL5c2GP5DZ6BbHxfKNnyEqrxiaA1NT1zUGgH5+jd7sHlfKe49fzASYoJbPtdWXkkLZCsBdvDlFJAdDJzdkQAJeC8BCkjvXbumjLyjBWR6ejqUUh7KERAQgMmTJ7OMR1MWiud0CIEWC0iXBRrjNej74iJEujdg913TUFrpkISaLSjH4LbC6e6L8Mk3IzqpDHn/ewE1ZeXeU1bEUQVH2DQk/mc5evRJRdqd01GWnSN1NQ+z8gkvpy4ekdduwMDTnMh47Fzk/LQdev+ml89oqYD89OccLP4xA7ec1R8nDozukH11tE4oIDsVf7M7p4BsNjJeQAIk0FUJUED69sp3tID0bZqcnbcTOKqAdFggOTRExIkVzWWXzP6S2h8asaoZVddLt1jdNMZL0eexRYhwf4e9D16Cg6X18rlWrIcGsaxJeYbDD6UNh108NhtcNjUanVrCQaMVweksh816AuLuXo3E8VlIvXkKDmbliitoiLSnuII64FaudYoLaMPVv47jty5cco7tsHMOfaITISeF0TVOuGw2+aEyPvEclbYktaR8JhZAxTpolz6UGnjq2PTykYztkE+uUyyMDrGuKtZCp4xDWEi5dTVrrVapnemohiP0LCTc8j7iErYj9f7LUZqRLXyUNg61pbSshzaoB0z+bijlUxxWe0Mf0r/bLnwO719lc6Q1tyUCcvOeYjz3eTouPbEXpo2J7/TtSgHZ6UvQrAFQQDYLF08mARLoygQoIH179TtaQD733HN46KGHVKh9+vTBxo0b6cLq21vMq2b3RwGpSDStCJ14ETp2WEvLoAntA/9wfzV+z1qUBVtVjWghkVCqgFyIcMe32PvwnbCE9pTELA7Yy7JRX1SoijBF7EERo/oImKJ7wxwSKILJCkdFESxFOXCKZtP5RcLQYwpiL56FHgNLkPnyfFQV5cJemgVrZZkIWRN0ofHwi4mGXqeBy1IOa3E2rDU1qohTxKFb0YNBvREQGwOdziVlSWpF5Ilg07tgLdgHW70JpthoaGw1cDj84RcdCU19IWry9sPpCJf6ir1gCpaxOetl/HmwlBTKwES8ukVwBsVKbXUj7IX5QFgC/KLEBdRa1TCGqmpo3fVigWwUkL1/Rsrce2BxS38BOjjKc1FfXAi3qFaNVsbjL3P1k5/XlEntzXpFycr8AmGIlfmFhsnfBqdckyfX5IqgFJF9mIhsroDMKqrGEx+nYVivUPxzcj+P8HyggPSqPw8S2sskOt61YhwtCZBApxGggOw09B3ScUcLSEU8Pvjgg+rc4uPjkZGRQQHZISvNTppC4A8C0i2WMAQjaNqHGHxWKEp+XAdH+GAEBpphShoA5/a3kbH4UVSWlEgimCvR5+HnEGHOR+nmdGhjwmAIFpGo24PcN+9G8e69IoBEIJn6I+wsEYcnj4K2eBecfgkwBrtR9e0TyP58GdxhkxFz+Ux0G3Qc/EMsqEnfLiI1G6VfP4GCrTkwD/k34i79J0ICRHRWOmGMSoIr7wvkLHsK5VkZ0LgkiU/cBeg+436EB5fDXhuIgKFDYLAWoWb7+8h4/ylUlZ2J/k8+gWBbJiqy7PALs8Ce8RUyPt8Iv3H/QOSgHjBC4hbDh8NkyEbhe/ci/+efxTgobZ33MgZcdCKqPlkGe89+8PMPgF/iILgOfIrMd+aiMmcvnOFTkXDzEsQl5aPg50xo/fxhEkFtDixBwdv/Qf62DXAaEhBx+ccYPDUc2c9eiezv1gDmJASdeA/iLzgLxvoDsFpCYQy0oHzNY8j9ZrUIb7FENi5kcwRkebVVxGMqjGIRvu2cAQjrpKQ5v9+DFJBN+a30nHMoID1nLTgSEiABDydAAenhC9TK4XW0gGQdyFYuGC9vVwJHFZDn/A9DLp8AV+46ZP/vP8jbWIDg817H4GtPR81ntyP91efgCP4bEv/7ImJjrSj/+lkceO851JkuQv+5CxFa9yHS5l6P6tooBJ//CgZdNRE1K25B+luvwhZ4Mrr/+w0knhSFoteuwYEvV8FqH4Wet65A3xOykXLnJSjNyYfO4Adt738g6e6nxE32S+x+7HqUZFbD/5THMfhf/4Yh4zWkPHEnqi19EHvDx0gcvh975lyGopzu6HHvp0jql4u9j1+G/NRsEZ03yFifQ3S0HWVfzce+NxfCikAYQ49H+KQhsO34DBXJW+DueQP6zXoe4baVSHnwOtRUG0VAvoKB10yH/uB25L19C3K+T4Hfua9gyHUXw7VhFpKffwiWkLPFhXUp4ofpULH2BWQseRLVzlPR5/530SPgC6TMvx5lBwMQefXqRgF5OTK/WQfT2Ccx6O5/Q7vtGex6aT5q6uIR/c//od94E7IXzEDujt3CoSHRTlMFpM3uxMLVu7GvsAb3Tx+C7hEB7bqHmtM4BWRzaHX+uRSQnb8GHAEJkICXEKCA9JKFauEwKSBbCI6X+SSBownIwHM+wIgrR+HgBzchfekbcOn8oI+6DklPi7gqWo5dT16HsvJz0e/pVxGp/RF7lBjIgzXQaZMQectKJI6wIGveZORZpqL/vS8jOmgddv7nClSWi5XPIa6bQ2ZjyN2zEZC7CNv+ezvqrGPQ8+b3kDg2F2n3z5AkNAfEBXWQWOzeEOvfKJS+egH2fvWVeJTapRTFaPS8ZRkSJ2hx4N7TUVA5CH3mfYiQnQ8g9eVHUOcMQcBJ72Dk7RNR/ObfsWf5cui73YikJ14Qd9u12PffGSjOq4DeqJTRsMFZZxGXXCW2UyvfSqKb2z9B0ggrsiXRTW5qFYIueA2DREDa1tyGlJcWwaWxwxn6NwyY9Sq6hW6SpDlTUOIcjz53fCQWSEmic68I4KxMiakcgMjLF2PApdHIfOBM5O6uQvjVX2HItDBkP3M5staWIPq+1eg7pBIHlKQ6O7KgE5db3aAXMGrejbB+MxM7pT8xeapWyKYKyKXr9mPNzkLcIeU6hvQK96h9SwHpUctxzMFQQB4TEU8gARIggQYCFJC+vRMoIH17fTm75hE4uoD8UATkYBS8/nfs+3gVtGazxEKehrj/iEiKTcO+Jy9Hfsow9FvwFiJca7B3loi+apvE2XVH2D9XoN9ojQiw81AU9A8MmXkPAg68jK1PPAhLrVViBqVeYtwtGHzPswjTfSkWR8laWjtCBOT7jQLyKpRl7oMr7DTE//tD9B5Tj8w505C3M0VcPrVw1fRHt3++hb4ikEpePBP7dhhlXMvRrWIR0p75DyprwhA6fRWOu7of8hbNwP7V34j4/Tf6PrkAIWXLkD73H6h0SDyimsBGSYojyXDM/mLpEwHpikbo1e+KAHYjZ8F5yPn5IIKmi4C8ajrqVlyJtI8+FsDKNacj/v/eRNwwO3IfOgX7M/og8Y7liOu9FSkP/A0VuSIg7UkIv/Q19L+iL/JmT0ZWavlvAvLpS5C1PgqJz76L2Bgb6g6I265VSc0j/0zxCEjohuqvZ2HX6y/B3QwBuTa5AG+s3Y+/ndIHpw7r3rzN0AFnU0B2AOQ27IICsg1hsikSIAHfJkAB6dvr29ECcs6cOZg7d64KNTo6Gvn5+YyB9O0t5lWzO6aAfOM67Fu1slFAnoKed61AfM/0BgG5c0iDgFSysM4WAVkppT00PRF+/XL0HeVC1iMXoCT0egyeeTf89y7EtqfnwFLTKCDjbxUB+QzC9GuQOlNKgNT8iYCMEJH2LxGQo2uQMfs8EaypIiAliU7NQHS7XgTkOYPFMnkmdn+Th8grP0S/cwKR/8q9KM2LQ+y/7kNgwWLsWTQHNTUW6IKubRCQFSuxZ/4/UFHvFgEp2VR1MQgYPxM9TxoLs1nKiTgMktBmEMzYi4xnLkLettLfBOTKGdi1bJVIPCUj7CTE3f8W4kVo5j4iAnJf7wYBqWRhfeAalOdkSPyklCa59HX0vzwBubPOQHZaxZECckMMkp5fgpjgfch5405xzy0VC6SS9VZKflhlLPUVcNTWKmlh1T11LAvkruxyPPvZbkwY1A1XTkz0yH1IAemRy3LUQVFAetd6cbQkQAKdSIACshPhd0DXHS0gV65ciaVLl6ozi4mJgZKV9dfyAB0wX3ZBAn9F4K9dWI9D8ZLrsef9JXBLTUN9+NVIfOplRFV9gV2PX42DxWeh3zOvHUVAupH9+FnIrTsfg+57XtxcP8P2u6+RGD8RmQ7JkNrvfgy5578IKn4Z2+bdilr78YiTMhh9Rh1A6r1XiQA7IK6iwxF97RL0m5qEogVn48C69XDrJUupbQS63/Qh+p5mRsb9Z6KgYhj63P0Y/Cq3olYyjxqC/OHIW4f8r95BXXm9lBSRDKj+Vx8pIOucYu0zwjRmAYbceiGs6x7BvmWvwFoRjLDrPkLfMRrkPCsWyF8aBeTV02H94gakvPmWZFQVt9fAGeg3+3XExKYgfeZkFFrGNriwNlVAPnMZsr6vQve53yBxUBWynjwXB35IgSHQTwyc9Uq1ELFE+kPvJ7UkG0uf/JWALKmsxyMrUhAdbMat5wyEn0mEqAceFJAeuCh/MSQKSO9aL46WBEigEwlQQHYi/A7ouqMFZGpqKrZv367OLCgoCOeeey4FZAesM7toGoGjCsgpSzF8xkQ4Mr/AgVdvQ+GOWgRPWYjBN56Lus9mYvcbkkQn4FokPf5So4C88jALpCTDGQXkPHM2snaEIfam99D/9EjkP3epJMxZA4ffEETf8C76n9EHxS9fhgPffgmHcwRiJHlM38l27LnzXBQeECEYqIN+wF0YePddMO5+BqkLHkBlYR3MJ/wXg++4H+bsRUh++AHYI69E0gOPwHzgA5Sm7gJMJhFhlag/sBWVGamix6zQBf+9UUCuaLBA1jqkWkkQAi/5HCMu6IX8F87B7g83wjTwIsTPfBE9YkuQ9dT5yNkqAlJJAnTtRZJEZz0yFlwvGVUPwO+MlzD0xmvg3ji7MYnOWehz27JGAXn1YRbINxotkJMbLZBfN8RAPnsFMtdsgP8Z72DYLRfDvv6/SFv0KOpKJY609ykI65cEFP2Iisz8xlqYR7dAWmxOPLZyJ8pr7Pi/C4ciKkREp4ceFJAeujBHGRYFpHetF0dLAiTQiQQoIDsRfgd03dECctasWZg/f746s8jISBQVFdGFtQPWmV00jcDRLZDvYdgVw1C//wBqKyqlfqJkIx05Eq5tb2L/uw+hqljKeCgC8rmXEen+Hun3XojSCsWFNQ4RN61G/7FAllggc7ZlQNdzKrpf8iC6DQiBJeVHyd46WOow+qH6uyeR+8UHsEstSNgkj83Q25D4b4mXLN2Emvw8lH4/F0XpDoROnode506DvnwjakqcMPceDU3+p8hd9rgIrCy4gsaj+43/Q3zvQpRt/BIWqw6G7qcjtF8IqiTjatbHS0Ts/gsDXlyA0PLPsfuBK1Fe74JGLHu6+GvQ+7r7ERpSgOqd+6WkSBwMccMQGpyLzCcksc2WEkmiI1lYr7wAyP4F1XXiUlrlgP/Qk4Hc5ch45f9QKfGOjsjzkSTuvT0StyPtrkskCZC0Ze+PiBlLMfDiRGTPORFZKRWIuO5HDD47ArnPX4jMr74EAkchfNp8xE85UeYk884rhiasD9z1mSj7ZC5KRUBqFbdWOf7MAumQQpqvf7MXG/YexJyLhiEhJqhpC99JZ1FAdhL4FnZLAdlCcLyMBEig6xGggPTtNe9oAckyHr69n7x9dn8ZA3lFfxQs/j8pg1GE4F4RcNUWombPDtSXlUOruEhqYuHffzAMKEXd3mTYHIpbqFkE2Eip5whYMrdKzKNkOLWLP2ZwXwQmDYV/WKAooTpY89JQuSdNYhB10OqkTIVkQ3UhBGa5NiguGlpnGapTN6C+sgwubSRM8vOQ+FjodBo4a/JQvWszLNWVcp2U4uh3O5JuvBR1n96M/Su/FhdTWZWI8WJJ/AJ9+qZi93+vRvEBN0KGHwe9vQi1+1NU0aokrHE7tNB1G4agRKlNaTbCWS6CuVyMmEFaWHO2or7ErdaBHHTl+aj75GYc2FGEoOhwEXgl0s42sRgKC60MwxAFv14jYPavEkbJsFsk06w7QOIphyAg1h+WvT8LCzsMPcYgsJtB2CTDUlYqI3CqiXv8+g1DYEw3EYs6uKpyUJOVhnoR6VpjQwmPownIL7bk4IOfsnHjGf0wpl+Ux2/HLiEg3U5Ze1kKrc7j1+NYA6SAPBYhfu6dBOQX1N0YG+CdE+iqo5Ysc8od10MPCkgPXZg2GhYFZBuBZDM+QeCvk+gMQ+Gb12DPe8ullISoMo1WBI3UZtQrokZRaSL66uvkWVkympoDGnO9iCizSZZVxUPUHCjiSjlPEWoWuOw2EUvKk7VG3DIl86nJ7zB37oaMqIqVzeVQ1F1Dm1qd3Ctc0o9NrheBqh4aEZ3KOHQiv1zhCDlvFYZdHilxhBch49tNkohGmoqagJ53iIDs9iPSHr9BteRpZFBujfTbmNW0UZbJeKVPu3ymNK01yD9JruOSMYorrMbqB/9pL6lZWOs/noGUd5ZIn8p5MgaDWf4ZG1goY7fWwuXSQeensJBxa0QcSttOm0v6bGChsrFLAh9lboplUXmGUcSzVeanNKwcWpm7UlZEbfu345AFsv+tixHUpx92HDiI51fvwdkjuuPC8b29Yj+2XkAKLwkQdctbAo2y0I0Jhg6tpbLx1M/UPXoEPcAh1yl7T/iqql89hLlD2awi9v5M8Cli0Cn/lJccR/T1F7h1krFYXnS47fLyxMufUSkgveLXioNsKoEqyeK2r6gGJZLxTb0ZNSQo4+ElBFyyZiEBRgzoEYyIEEkY4GFH5wtIjTxYBUCvc8FhkQcbuXdpjP4wGHVwWmrlXtb4kOFh3LxlOBSQ3rJSHGdHEPhzARkibpurMfziQSh6+zLsWbFS3FXFcuhxh1OEpQEmsUAm3n4b/A5+h/wvl6K+3h/+425G91FRKPvwdmSu/gxuSUjT/EcFEYB1JgRctBhDrzwDNSuuQuoHK1QR2hmJsA4JyKF3LkVxYDzmv/8LBnYPxq1TB0n9zebPrjOWs3UCUnneE1EfECECUcRgdZm8mFBukGqVTBGAIsoDw+R7K9xV8tmv4k0R6UZoQqJE2MnLgVqx/FrFZ1q5TivCPkTcfi0VYmEX9+TDX267pU19kITKijm9/qAkx7UeQ0TK+S4/6IZdBlO0E7af34ejQq7x4Bfmx9oDFJDHIsTPvYbA9v0H8eaa/fhuz0FYnUoabu/4o+k1gDtgoMrfdJ28BxzbOxSXndgLp8nbU7247XjK0bkCUnmr6oYlazMK810IHzIWIcE6WPJ3oDi7EoF9xyA01F9uhu0vIjV6Pxj9TPKAVivuWI03W09ZpFaMgwKyFfB4qc8RsJcX4peZo6RkRJVqFZT6FPLX2Q+mkbeh19gwlK55CSVp+6AzHmkN8xgQbodY/fxg6D0dMadNQqD6UlKxgpagfP1KlCWvhcOlF6tTS54VRGwoAnXk39F9/FDUff8UindJbKNYQDtLQAaJm2zY1a/gnf0iYl123HPBEOi9SKC0SkCKJdptFlfj0dfAGJ4H6w/L4CgVN2a19ImIRn9xIR4/HXrTAVi++UBKoYjrtOpfLBZG8wiYTjlfPnPBuWc5rDt3iPu07He/ATBNuhC6g+tg2fydZP6Vfa5uFXlQET9nbfyZMI8aAsfmxbAVFDRYIo92qPflUBjGXQNDRB1sG96Go1zunV60Pr+fGgWkx/yl40BaQ2B9agHmLUvBvjIL/MQaI4m5W9Mcr+1EAoqrkMXuRJBBg1smJ+HaM/p34miO7LpTBaRO3q5W/4zNz/0HecZpmPjvm9EtUpLxfXon1vxvJ/rd+hZGHBfX6IrTAmTy4KOTN/FacZlyiMuU4s7zh0Neyij3O0veRuzbuFPur2eh19A+0KluQy3o08Mu6WgBOXv2bMybN0+lEBUVhcLCQibR8bA90VWHY3W44aosxI67Rv8mIFUYIsDs4mpplQdoxdXSoAhLT/7lF6HnqJeXXQ2ujQ0BaPIyzmBS3Uxb9Z5Z8U6Vl2hOaVtjDBT90InlMex1Emc5BlvHPIJPsoET+4VhXJ8I1fpoEJfJiCATDHotjOL2q3j5KIdJeVbyIAHTegHZG8aRV8EYkQ/rj8t/JyCHw3y8IhIzYPl2WaOAlAUUrydN7/Ng7tdTLI+yJ5xpIha/kM8FkD4Y+mHXwBxVBuumZbBX2ORFiiI6lb0UDoNYE43dimDd8CmcSuZe5bMjDhGNitus4g0nAlIj8bqGE/4GQ7gIyJ/eFQEpnYiAVbSlErrjVkWmPL0ecr9VXWQVt9vGRmWz/tHFVoSzvHZX97Fcr1pWlZcYqlvtocHIz1xKP9L+obbEJVdtqxWPyhSQXfXu4EPzziupxh1vb8XWnCr4S/B+K34ffIiK90/FIrEuUX56PC7Z/sYPjvWICXWagFTEncGKotVzsWmHGcOvuhO9Y4PlLakNB7+ahXXL0pD4r4UYOqxHg4BU4pGUmI1DNxXxdT38GU+J0WmINZWHQSWGQ7mRWDOR8ekbKDVPwJApZ8NfKwWr5SFSI4ksNMqNSY1NkgcOjR0VG5/AZy+9i4gzXsSkq8+AQZJCKH2qbSrnKjdM9WslCUTDDU2JV3KrN7FDcU7K76pL3HAbY5eUx7pfx6U0o1zb/tbUwzdWRwvIPXv2YNcuKS0gR0BAAE477bROsV54xC8XB+FRBNJyKhCjq8S+B0+Cvbai4YGUh8cS0IiANMaPxbdDH8Kmcj2GS3IeVc7IH/7KegcqLE6Y5KWsTv4OB5gbhK5BvjY3PjNFBxoRLsLSKedHitgM9jeo94xQ+ZmfnK8ThRIaaJLwifbLUdA2AnKGWCBFQK5f8ScC8rxGAflRg4DUKMIuAvpxUobFkQZbYagYI2Nh//kDsSiWyv1IXtrGTIbfCYPh2PEhbPsOCDQR306xHAYOgvGE6dAVfS7Zg3+R+6OUhzn84VMVg0GSyXc09LHdpCu5nxZkAt1PhiFUEZDvwF5qgD7pBOjDJCSloE4yEieIgC2Gfd9P4t5aA425J/S9h8vn4iarLGVdgdQw3SHJnCrkO7nPGnrCkDQGOtcBqUxjhC4mSbwB5K5aKomaMnYrt1+5DytxoXJvDukPfaK4MxuV2FqpVVq4A458sZjLZy19i0IB6bF/DjiwphJY9PluPPvVXnm7Jn/k2u9vW1OHw/PaiIAiM2qtDpw6MAqv3DDOIx6sO0VAKmJQeSNpr0BV7l5YdLGIiIuT1BRygzLY/yAglfTzoiLloU+sBPK11hAIg0ke/hTxpmo5EW5yA7TXy5tzSUahFyuCXopp24u+x5anbkNu4JWYeMutiAxQbiySiMIqb0kNco7WKu6qTujM4rpaW4Dy3GLoIxMREhXa8KDitMBmkcQAOn9xbzWI1UKSRmiN0rZeTZLhsDlkLBIDYhBhK3c2p1WsAjILvVFu0sqbVfn91YilwFav/FxqvJkC5Vq5GR4mMNtoax21mY4WkO09H7ZPAi0hkF9SidTsCoyKAfbPPgm2GgrIlnDsyGuUGMiQ3iNhO38B3tqrw4SkUJwuISAOCeexysvYaotD1Qm19XaU10rtS/mmosaGsmr5my1fV9eJqJAYeuWeUVJtR614ASlhQIoFU8luqxw65aWgfGmSB62eoSYYJbzELPeOMBGWStt+Ik6iw/wkkZBbxKYRgZK5tkGoNrSjfi1W0KOFF3W4gJT7JMJOhHnM8XClLoW9pidME6YAe8WNdVeyiEKZr39fGE+8Evr6jbBs+UZuc/IqVZIhaXtOhnl0X9i3vAdbbqFYtA9z41bEo9sEXd/zYOrbA86stbAflLudZAvWR3eX+6+42IoF0l4imXjHXQFTfDe4KqTcS/ZWuGqqJNNuvrw8jRd33LPlPlgO+571sjZRDWLTvxq27R/DUVggbrnDYBp/CQzBkmSpOF1EYyrcfgNh7D8A7oxPYd2bKgmgJOlSt3Hiai2lYKqk7ukBEZYBA0R4JsGdswa23Slq3G5LLC8UkB35G86+2pyAU/7IzVy8Dat+yUeIvDHj4VsE6mR9k6IC8PK1IxEf2/AWrjOPjheQiniUuMfibTjw+ULs2vwLbO4eiD/zBgyePBUR4RoUr37gVwvksBHxEtCfj+Kfl+CXZW/jYKUVfkNmYPS5MxDXtzd0cmNz1h9A9pq3sOuzZSjVxkuNsfsw+vhApD9/E1LF6qC6d2mikXTVCxg9Xn7+5kMoNI5DTMBmpK3TYcSdDyMO32H9wmUIPPtBjDlnJLQHd2DPpwuw7ZvvoOl2OoacOgIlm36Qm9tMHH/WSNT89DTWv/E1Ii95BsedNgy6imTJWPgf7LFNwsnX3opoWVpr5R5kfbkQKau/QJWkru8uN+1B0y5DTGRQg5W0A46OFpDPPvssHnroIXVmCQkJ2LRpk0e5lHUAcnbhgQQ+XJsKh1uL84eGIOWesbDVSq3HTrVAqr6ikqhEXkpBLC1HZEr9M4BKnKO8IFNEkFkSnXSBN8uKgPTrORxDZi7GVweDsHLjfjxwodR+jD5G7cdG1xSbCE1F+CmHTQSnQ75W3CGLyiWTrvzfKixLq6wiSF2wy78iqeupF1F4sNaGEhGiypVKErxGD2HYpY0GXxPRaOJJFCGWTLv0EShf+4nVU7F+RgabVTda5ejfMwzR2mrUb/oA7pqS5pe5zsmbQAAAIABJREFUUGMgFRfWplog5cWo0wzdkItF5IXAvvY1eXkZDuOYv8EYKC9qN3wCR1WdTCAI+v4XwjwoUKya78FeUAzxW4VhhPQTmiNCUMRcreKpc5j1Qomr9B8F88RzoK2VkjLff6Yma9UEDoXpBLGCmkvE7fVtEZCSAG/0JTAlxMKZ/iEsaSLmlCyxmhDohl4EU1IkHFvegS0rt8EDKGIi/MafDk3letT/+IXk5BkM07gL5f1uAawbV8FxUESl1Fo1Hn+luPEWov47cdW1R8icxK03YD8sP4obblm1qPhoGI77O8y96uU6+VlprbzAbX6uCQpID/zjzSE1jYAaK1dvw3+W7sBnOwoR1OiW0bSreZY3EFDenMaHmfHUFcMxNFEC/jr56FgBKfGGYpVzlW3G9lfnYH+V3GB794TOVoSS3QcQOGEeTpkxCdWr78XaDxUX1pcxclQ4Cr6cjx9WfI+ApFEICtRKvOJ2lDlGY8zNDyGxez0y/3cn1n3+CwL6DEGQv1PqmvXCoMunwbX1VaRslJudPhZhUiy795k3oW8/F3YtnIFtOyvg30MKaIePw4BLr0V45TJ89cSbCJm+EBMvGYDCd2fiu8/Ww6/3MImvEQ1bshdlxW70nvEKTj5nFKrXzcW3iz5F9JVvYKx8ryv/BdsX3YA069k4/ZYHEBuYI0L1TmzeUYuYgZK4QFuHqn1bYIn/N069bgaCxTvI1QHurB0tIBXx+OCDD6q7Oj4+HhkZGRSQnfw73tW7d0jmyvveXIvxwxJxweAAbL71ONjrOlNAKuJRLCyIRkD/E+DvX4qKnVvEvf5Qhs3fr5gS7yWugT1HSU1Ff1gzNqOuorqhdIYPH4eysA68fQmMvfrisY+SVYvifdOHwqh4fbTjcSg8otZiR5VYMhULY0llPSw2yYQr/ZZVW1EnX9tlzbLLxVNF7uuK1rSIV4ryf2XPjUrqhkuH+cO2WRLcVHeAgJSXEW5DX5iOv1isosmo3/AlnHVm6AdcAPOQnrBvfhe2vDy1ZIs2WqyUJ5wBqVmDehF5CD0efhPPFCvfJ+K+ul3E7qHkOgpkZf8pcZUXwG/4ELizVqF+m3KO8lFjEh0lBnLjWw0CcswlMPY2i4CV78tr5DzZ14ZBMJ0sCX/MYqn89n9wiAuymD3lehGHEy+H3k/iLuV8h7u/jP8iGAwpqF8ngtImItohcZsjRHwm6mH7agkcuv4wTzoP2uo02DPTRaAqoSVSBibmBBi662DftFhqmhZIDG/zE2FRQLbjLxWbbl8ChwTkPSIgP6WAbF/YndT6IQH59JXyZrVPVxOQ4sZpcKJ88wKsWfg6dIMvRN9RQ6G37EPGVx+hJvQKTHrgLmh/vA/fvZ+KxJtex4jEChGb12NHehCSTp+OqHCdFNz+GKmbK5F0/asYP6oEPzxwI/ICLsap99yPHiH1KE1Ng6tbksS8ZGP7o9cjO+hvOO2O2xGmr4W1XCyFL/4TqeUjMe6WJ9E/KVxuUtWo2vYqvnl6KUIvWYgJk+1Yf+8NyDaei0n/Nxu9ZJmKv38Y3y3+FGHTnsfEqaNR/cNDWLvwC3S76hWMOfs4EZBbseOVm7DLeiZOv/n/EFH3KdbMvRulQSei36mnIFBfjqINy5CT3QdjHngKiXEBv9V5a8e92NEC8pFHHsH999+vzihJXIrS09MpINtxfdn0sQns2F+IJz/YiLtnnIphEQ78dNOw3yXROXYbbXuGiBAxBBlHz8egu2+F49u7sWfxq2LNakg88sdDYsCtEQi9/hsMPiMJhS+ciH3rdvyhbmLbjrHzWzskIPtJHchgqQOZUViFh1ekqHUgp5/Qu/MH+CcjqJcQFZeoT8Va6RDLW5i7ClYRkC23QEoW1lFiGQwT4XW0GEhzJixrxDJXI1a37pNgHnsa3PvehiVV3D+VpKg9T4XpxLOgzf0E9Tu3ys8k9MPcB6bRl0v44zYRmt9LHKOIzAFmEbtikSy1Hml9VASkU0TnwMvg1y8Bzr3vwbJrX6OLaBgMY69qSKLzewH5vcREllcJJekvaKzEXZ4jgRypkvBnVWN5LuWJV2IeJ8g4Aith+/E1CUORcZ0gAtiQivofVqv1Qt3OkAYBmaCF7ev34DQpGWZPh7YmF85SyRTrbsiN4FbiOCUsxpkr3gZVEm8p+Q2ae1BANpcYz/cYAhSQHrMU7TaQLi0gJfGMXmdF8drH8NXbS/F7J87ApJsx6d7bgEYBmXTzGxjaMxs/v3oTdqcc/N2aJKLfPxZh3OC9+HzuLFgG34ep/7oIZimSrJG4Fbe8qXaU/4Rtz85EbtBVmHTLzQgz2eXGshPJz9+KDP2FOOXW2xAuiXzc4lJbu+O1RgG5CBNOLsc38+5CWa87cO4tVyJQ3mRakp/HVy+9JS6uCzDxXBGQ60RALlqFyBmvY9zU42Gs2IptL/0LaZYzVAEZfnAxPnlsrprs4fBDY56IE+59Eom9gigg2+23jA2TwG8EXv18G/bmlGLu3+VB2lIqFsgR7ScgDyXZOtT9oURcvw5HyfgqD8UR09HnjmcQVPQydr/4MKxuietSi8Er1p7GBGFKjJ3qgqn8kzJDfU5GcPdAWNLXokbKOTRYIJVafEqmyl87bBChh1Kx/pr0S8nj3uDCqR5Kcq9f07XK9Uq9XSVuW3kQb3T7lIb+KGjVrJiHZb5Us2g2/0G9Kfvz9wJSuWbVpiys+DkXD0g5j6QenR8Ccqx5tCoGUtSfWy8C67gZUmexWMp4fASH4q6plvGQPeQ3TKyIYtXT7xLXzhUSy+gP/ZDpMPXvA1RlitVTrH+y3hpzFLQRMdDUi3j74ROxStbL9f7QDZoOc/9QEX5fAolTYNDugkW+Vlyqj4wfbLRAJkyH/7DBcGWuRP325EYLZIgIyMYyHkcTkBq50xuHwHSSZIw154rYFREo8asNCX9kfmKBNPjL/Na+KW7GhyyQRxOQS+HQDxAL5DRoir5tyC5rUTK0NiS7U4qmaSQTsZiMj7U0f/o5BWSLsPEiTyBAAekJq9C+Y+jSAlJ8XnRyb6re/gq+e+ZFYPT1GDZxjNyulGQ4GugDExDZNwYVXz2A75UsrIoFsk8pfnnpWqQc6IWhF/8DMVF+DcJLF4DAuKEIdvyE7+fdjlztaTjpzv9Dr4haFGxKhm7AOEQEigXy8RuQ6XcRJv7rNkQFi/tsXZoIyFtwQDMNE26ZKVlxpe8jBORCnHy6AxsfuB4H6o/H+LtnIaGbFTmrH8GmT7cg5vKXcPLZo1G3ZQG+e/YFaE9/HBOnnwFN7qf4+e1HURgkltAb70Nk1Qp8Oed+VHabguMumoYgnVgd1IQ/UQiV2ECzxMn8Vvi5/fYcLZDtx5Ytez6Bsso6zHnne5wyIgHTTx4Am9SB3Hp4Hcg2m4KIMxF+ko5F/jRJKRDlgVbqJjjr60QPSrmDQ9YQKZfgssvfwW6DxarWCw6pgVtbXNwQJ6YIAzUztJIARCnVIc/BEhupla+dVomVtEhb8kdESdzVkB26sVyCQcSAWSnfocRJ1sGhJP6Sz1WBKUnFtJLkRXEFlKd3+c8kYlEZl7g7KppRHZfy0C3/l2zXLhGyen9/ebZ3yIN5jYzV2TguRccq/cm5UhpJZ5IkMyJOXVal/ImU/FDaaVX9kD8uxJ8JSJuM58lVKZIYB/jPeRIvp2Tg9OCjVQJSecXq8INWEteYh/aG8xdxzcyUrKmKYFdcSnsoSW9OBrKWoz55q2RRHSJZVC+B3pYs2VV3yZ4SNso7BnG11XYX984ESX6zcwmsBzJlb0rb3SbK9ROhKZU2IyTpzYHPYNm977f1PpyrshkDx8E8QSyZVRvEvVSsg8r+CZakN+OmHRkDeciF9ZAFUn0RIm6oo66AMU5cW9eLtb2wQnmdAY0k/PE7Ue6flT+KJfQruMxKDKTiwvpnAlIH2xpJ1GMLFzfXayVOUupfbpTMtGVibVSyrktZMMmkpCbX+7W0RzP3BgVkM4HxdM8hQAHpOWvRXiPp2gJSeZ6Rh6PqVKQunYfdaXmNrjLKzg9C5PgHcNI1J6FyxW34RupA9r3tXYweG4Xirx7H5lWfo1apJ6XGXciNJ2Y8jrtqHvr1qMWBZbOwafU6eYsvmfHEWqgNPA1jb/k/JMSWYdcbN2HLhj3y0NMXA65+CiNGaZH82FXYi+k49a770O2QgNy6EF889xbCzn8Vp142CAXv34sfP/4CFphhDpS06Po61Ekq+V4zXsSJk8cChd9i82v3YU96sdy3IuAf6ifeM3lw9boak25+AN0D8rHvo1nY8mOa3O/Vd//qljL0vh4Trr8CoSKkfTEG8vA6kN26dUOBFKP2pLps7fV7zXY9k8C32zLw9lfJmH/NBMTHhLWTgFRc/EQkBo1CyPhrEXlcb3lBJMItOFIyX36AnI9eRE2F/PWS8gNul/ytGH0LepxxEkxueYj2i4Qz/ycULHsMFcWSqdJ5HLr97Un0HKND2cZiBAzuDX1tGnLfexGW/rdhwNRRqFx5M/avWSfAjTD0vQrdz70O4d3Eu8KmZKM+iIMfP4qirT9IHF4Y/Ef8H/redCbqNv4AizsGof2i5UVdAGrXL0DWqiWw2aXiXvjV6HPPbTCVbEfpPjfChvWRc8S1P/djZL37BKpFhGu1EuMnf6PNI29H/FnnSHmxKvFqFDf88lQUffhflGZmHpm1sw22w58JSKXZfQWVeHj5Tkwe1h2XnyzWNg8+WicgZWKKGBJ3U+OIqVLCUV4O7FkngkncQgMSYRhwvNQr3gvrltXiWSM1TPucB7+RA+Dc+jas+/bKi9FGS6Li2hlyAvxOPl/O39oYW6jUa+wG/ZjLYOopMRq2bHGRFetepeLz+idu1Kp1L1R1JTX2DJIEOathK5EsrL0lfCNSktkZSyWJzhuwF0sWVkl4Y4rzg22duKSWVTYKXplH6FiYRk2UnAf7YEv/STSs1JDsO0FeWFTBvuMTiZ8sacjCeuKlDTGQ333S6MIq/Y66HObeOomflLjKsnro4iYJk9EiZqVUSfo2eUljgCZqiITIlEnm1s1iZZUXHy2oB0oB6cG/TBzaXxOggPT9HdLVBaT6hl2vkXiNDOR+/Rb2p+6BvL+WhfdH2MgbMeqCsajf+Ap2rMuSB6PbkJAYDa2jClX7v0Hql6tQUVUr54pQlCQAg8+/HnHRfhKQr2Rp/Rh7vv8Wtaae6H7KtRgwQoL29S5Ycn6Q695CcVEMEi+8HYmJTmQuewb5OAFDL7hIhJy4i8mDneXAF9i6bA0CTr4RQycMhrZiL7I2LMbuzbvg32saeiXkIHnFZwg680mcdPpY6DX1qN33JbZ//gGqqnsj6ewpMEoinZzicMm0erlYP2WO9mKU/LQce3/4FtUSQ6IKyL4zMO6CsyUmUsp5+GASnZUrV+K9995T5xoTE4NnnnnGI8rV+P5fFs7w9wSUhCuPvbdefYC9//Lx6sftY4EUy5w1CH5Dr0XUKb1Q/dVrqMoqgt+EBRh4/dmoWXErdr/zGlzGELH4PIGBN10K+4ZHsP99SRoSdSF6XfcAgqs+xO4FM1FTfhy637EYSRP7wJq7FtmvzUJpfqnk3NEgYPqrGHL+WJQtuRC7P/wEmoR/Iun2pyXObi0OvHYvygoj0O3Kheg9yoHMp69AwZY8+J+0AIPunQFzTSaKPnkC2d9IYrBJz2LQjKEoevnvyPjsY2h73I1+jz0uWUVrUCFxaFkfvgxb7E0YOPMGuDfNR9rCJ2B3GyQb6Fz0//dN0O97DfveeQJ1mpMQd8Mz6BawEXuevAmVUiqlJXFnR9u5RxOQyvmfbcnBBxuyMPPcgRieEOGxm7/VAlKZmSIijdHQ9RoLQ7dw9QWq4sLqKt8nZTJ2SwmqGnF1lSynvU+DMaoO9lR5eSBJfn7LoirWRqeIsMGToAuxwbFdKd0hQlGxIEoNR2NiAiC5AWxp2xrKfBzNkqyISL28gEg6HvqIYLGOivU5b6tYgxMkCapZxO3XUutR6mr2nyinSf3NZPm+Rsn6qr71bXDHDu4nL1GHQyd1OZXDXZ0lZTi2SKkP5b4uL1iMvWAYeLK8sM2EdefP4u4tbrzOAOiSJsAQo5Wxr4WzVjnXKBlch0jpjkFikW+0xldK2ZD8PVJTsuzPRXATdgkFZBMg8RTPJEAB6Znr0pajooBUaDbEzSgxP5rDYhXcDnGtUl2mJK294nZltzakUW+sG6nWjjwU2iDuYurnal71hrZUtzG5ubqd4oolsZANHxmkLcUlzC1uXHLTVTLQSZ1GuRVJ7WRJTnFocbWS5VCJnVTHIDdKccnSyRtc5SaslbqPtVufxdevvIugKc/ipNPkzae4oskH0rYyJulT+lPGoVHczZTMceo0G8fVWGtM7cplP7Lfttxcf9JWR7uwpqSkYPt2ydAnR1BQEKZNk1iVNnZta2dkbN5HCGQUlGP229/j2jOGYdLIBktV+wjIRmDyu6383VH+til/D7Th5yPh4f8hovA1pD15C6qtJyBu9nLERW7H7nsnozBHqUsoxqQrv8HIC/uhYNFZOLDWH91nLkHiqT1R+sYV2PPFannBJZ4XzggEXbFUXk6NRPnS6Uhbtk/ir99Bf8kYnTf7ZGRsEJdF0Qn6cfdg6IOPwrD+RiS//IGUZngCgx64Fq6vHxBvDBF98uxtTPgH+j78IgK2P4S05+fCGnwL+j39NEJKViD90X9KtukKKStyEno8uAI9Q7Zg70MXobhkBOL+swS9BhZg7x2nIj9b3AaVyg4X/g8j/nkBqpZMl7Gua3S/bZsN9FcCUnFlffGL3SiutOD+i4YhSOr0euLRJgJSmZiyuOoLx9/F9inurIf+vsr+a3BLVu5Jv48BVKzkyj1RcZE+zO1XqaWs+qLKHjv850eD+es4Gu7jDf00xsTK/VCNa1QErxqO+PtxKJ8p5x6ah3qHbhB7v2YUls/Ucf5uPDK3hjYP1XdsiBVuCP5tnKvyP9Vtu+XZiSkgPfG3iGNqEgEKyCZh8uqTKCAPXz7lBnTY979mgmj8+W+ZIf6fvfOAj6rYwvi3Ldn0HtIbCSEhhN57R0CkSBFRFFRQsaBPRZoIoSmICiqgiKKCgBRBivTeawKEhJCQhPRet+++M5sEA4KkbEty73v8VPbemblnZu/e/5xzvlN20sM/ig98Xqmtx11Xuf1HJUloFSTuI+X9H0gGnJKry/H3dz/Dduh36NG/PQEkQaL2t6v8Bu7/kFW+vuJH9lH3aJhlbGiAnDNnDubPn6+9OWdnZ2RkZHAhrIaZaq6Xhyzw+6EoHI9OxbJXesGivAC8XgGS5QgyjwnbxKJ8Qp59L3jP3kM6k9twY+krKJC/htDPPqcagmkouHScUtPYs4LqB5KAiaO3CmmrhyDmTzm8PtgA/15iJH88ACnxSdpNLI3CHjbP/VYGkL88jRuH+fB/ZzN82wpQcO4ApCWl9CilvEmHFnBs1Qrqs7NxZfkaCJsvRjMCSPm21xGz8QfI1LQ550lgO/M3AtuvcP3LGZAIXkPTr5bDOukn3Fr4JgrlbJOtKVzf2okA/7uIXzIEqSXj0GzOV1SnNw35Z6mIPBs6gQDPoyecg31QsO0F3Ni8oywXTUcbRv8FkGyq06jW39wtkeja1AUv9Aw0yfWvM4C8f3cVvy81E4l5tJEqQViVrViTayo3Xtvr9dMWB5BVXgDciaZmAQ4gTW1GdD8eDiB1b1N9t8hyKVRFychNSaN8j2A4OJH6n3YX1fQPQwMkV8bD9NdEQxihhIRdZq09jGZ+Lpg4qPX9W9YbQJIwjdrcB9atJsG9E+VxiekFX+hI6WutwE/8Dbe+mIwC4TQ0XxIBG+U1ynn8DqUy8geRC1IjL4SytBDSe+dRnBoIj3fWE0Ba4t6cQbgXc+ffALmeAPKUGI2nbYF3WBEyNn2JgozMshxEpUQrkCPPvomiO7mUs7gYoTNfgpzyJmM2rIGMcsUEXiMRMHM9HFKW48ZXMyERTi4DyOT1iFlEoahS8v+YhaLRO3/C3+cO7iwegjTeKwj/eCkcxFG4t/FbGjtFijCwpRJIKqo/KEu9gdIsUsrWETyyCXsSQLJzDlxNwSYKZX37qWCEm2Aoq+4BsiF8e413jxxAGs/2XM+1tAAHkLU0YB24nAPIOjBJ/xoifTNJ4U1EAj0ahURbJLquHBxA1pWZ4sapSwtciU3F1zsvYcaYTgjy/qferl4AkqIR1Go32PZfgeBRHVFMAjWppFKpEreC2yTy2pVsRjQDyOLRaLL8ezgp9yH6g6eRnUcCNmYEmkoKr2fC0jYUnqdsD/ep6/4bIH97Bjf+KoH3W1vQuLsFEmd3xd0Lt6hcQ1nZDxbtx7OgEHy4kmDPIoTMmFA7gPzsGaRlDkLTiLVwdY3Erak9kZ5aQo/E8rEztVgS5hFSpEaN5S8fMflVAUiW4rB8101kF0kxa2Q4rEwslJUDSF1+q/XfFgeQ+rcx14OeLMABpJ4Ma0LNcgBpQpPRAIbCAWQDmGTuFv9lgRXbziE5uwiLX+1DeYb/hPvpBSCZ18+6HTzePYLGAWcQPeMZpFzOJUXMlxE4g4Cx4HcCyNeRlxOIRm9tQ3B3G6R/T0rQu6iGnVoIM48wWLjYQEmCJJKCcHi8/fN/A+SG0YjefI7ysb9FyBujoTjwHon0rEJJjgRChwBYUJkgXm4sJGkyWLT7rPYAuXQU0mJs4PLqZlKBDUb2z88hbtcuyCV8EjYJhqUHlYBIuwUZqy9oYA8km/h7FMo6j0JZuzd1xXgSH9LlGGr71eIAsrYWNOz1HEAa1t5cbzq0AAeQOjSmiTbFAaSJTkw9HRYHkPV0YrnbeqwFcqhkxoc/HsXork0woH3QA+fpBSDV5IHku8C279cIeq4XZBd+QV6cDOZhfSgfsTnM0nbg5uKJpJIqoXzHCfCbNJfyg0uQe/J3Ul2lsu0+XWEmiEbGLx8ij4nVTN+BgE5WSP60M5Ju3i4PYXWA7Uu70HxwOHJ/f5ZEdLZDY90JbmOXwbtHGOTXNiH7ZiKELu0IIC2oFNJ0pJ+/A8tu36P5hyMh3/s+bqz7GjIlhbD6jkPQgh/gmLwakYveRanoXTT7fhFskrbh5uwJyNeGsDaH+/SjlAMZi7j5lANJHl2B+0h4T1wA9yAbFJ75Bfn35DD37QhzO1Kb/nUG8tKzqibEUsW1WxUPZEVThyNTseFEAt4Z3BTN/UxHlZUDyCpOtomcxgGkiUwEN4zqW4ADyOrbrK5dwQFkXZuxuj1eQwNk5TqQLi4uSE9P50R06vYSqnOj3306BttOxWDxa33hYmepf4BkglxUmF0j8oJ166fhGOhFApQKSO5GQqJyg5UwETnn95OHjlQyScWS79obzm07w8rZlnIgVZAlRqLgxhEUZ6WDp/aAdbuhsPMVouj4JhTl5FF8KHlQVWKYNXsGzkFukN7YQfUaE+lc8nyKm8K2xUA4BXmRErUAqoJ7KIo6hPxEKu8go9Ibnn2ovm5zqGL/Rs6NK+TxJKVo26aw7/I0LIrOI+v8USj5reHUvy/MCqOQc/pvgkzKzRQ4w6rdKNjZ5ZNozg6UkNopKx2hsesIxzY9YefpzESmqSB8DAqpv8L0VHL81Vz98lGLrDoAqaSSLct33kQWla+YNbI5bK0oH9QEDg4gTWASqjEEDiCrYSzuVNOyAAeQpjUf+hgNB5D6sCrX5uMsYGiAvH37Nm7duqUdjpWVFXr16sWV8eCWp8EsoFAoMX/DaTSyEeP1Ye1o8+JBtUq9eCAr7o7lQpKADVUh0B48AjqqBkvQSF4/S+uykkUkvqVRlhKLsbzJf87jm1lqSxGx2hhqSSGV+qGcSCu7stJE2oOUXWXs70n51NyacifLAYnVA5SVUumh8rZYFQMzC6p2ICbwpKsUVKuPwBXmlhCa098xc5Dgj4rqeWj45jQuK6q8QCBaLKHC8+Xj1DZFZZLYOFR8Osf2HzuqqC8pCQaVp4FryxxRf3wm4KPjozoAybpOzi7Gwq3X0YVUWcd3N41QVg4gdbwo9NwcB5B6NjDXvP4swAGk/mxrKi1zAGkqM9EwxmFogGwYVuXu0lQtcDspG59tOYspT7dBmybu/xqmXgHSVI1SR8dVXYBkt3mIQll/PR6PaUNCEe7naPQ75wDS6FNQrQFwAFktc3Enm5IFOIA0pdnQz1g4gNSPXblWH20BQwPk8uXLERERoR2MP4l5nD9/ngth5RanwSzw/d6ruHU3E59O6AFrS6YK+uDBAaTBpqLWHdUEIDXk1v18VzRyCiSY9Ww4bCx17xmtzo1xAFkdaxn/XA4gjT8H3AhqaAEOIGtouDp0GQeQdWiy6sFQDQ2QDB5nz56ttZyPjw8SEhI4gKwH66gu3EJ+YSnmrD+OjqHeGNe72SOHzAFkXZjJsjHWBCDZdfcolHXx9hvoFOSE53sGGvWGOYA0qvmr3TkHkNU2GXeBqViAA0hTmQn9jYMDSP3Zlmv53xYwNEAuWrQIM2bM0A4kMDAQMTExHEByC9MgFjgZlYy1ey5jxvNdEeT1aCVODiANMhU66aSmAMk6P3g1Bb+euIv3hjRFuL/xVFk5gNTJUjBYIxxAGszUXEe6tgAHkLq2qOm1xwGk6c1JfR4RB5D1eXa5e6uwgEKpxOebzkKh0WDWc50hEJBE6CMOLUBOa0VCMMWkIkqiNdxhshbQAqRHczR5+1fYNg6u1jhVFMr6Bamy5hbL8NGwMNhb/zucuVoN1vBkDiBraDgjXcYBpJEMz3VbewtwAFl7G5p6CxxAmvoM1a/xcQBZv+aTu5tHWyApsxCf/HQEL/YLR69W/o81E+eBrDsrSCUtgnXjDgj+31ZYujaq9sBTc0sRsSUSnZkqa4/G1b5eFxdwAKkLKxquDZMAyNJSKZRUF4jHe1BC2nBm4HqqkQVo95LNmYW5GclgC2vURG0uqrsAyQdAD4R2AAAgAElEQVRPZE7lqkj6Wy5nVbH+ffBFJPVNO75Kkh2nmk0N9eAAsqHOvHHu29AAWbkOpKurK9LS0rgQVuNMfYPqdfvxaOy/moiFE7rBwc7qsfeukssQu+p/yDm+Gnwqh8EdpmoBDZQlBXDuNBohH26s8bv0gaup+IVUWd8fEoIWAYYPZeUA0lTX16PHZVSAjI1PwYmrt3Ht1l0UUV0dwf0aPnXLiA11tBoCSAGfDx93Z4SH+qNP26ZUy8zCYOaomwBJmyRUu0qZdRtSiQWFnPiCsTeZ8p+DCgxrJGmQZGeDb+cHsS39cD9wgsFMbPSOOIA0+hQ0qAEYGiD//PNPbNq0SWtjNzc3LFu2rMYvfw1qoribrbEFpHKq/bj+GLwb2WvLdzzpyL12AtGfjaS6inkEkTZPOp373AgWYN5HkWMQAt9YA+dWXWs8ArlChW/3xSCDVFlnjGhucFVWDiBrPHVGuVDDwqY7jIHQu0W1+ucRPDzScVKVVljx2j/+PodV248jMjELYjMh1WvlPdoTU5UGuXOMaAENWPw81fslJbdwvD6qN5o29jLIeOokQArMoMk7g6QtKyB1HQP/QUNgLiT73f860TdBaAZF/E+I27ED5p3nwr99OBUvVtSMIcmTKWAFkZVU/FhOBZLrmJefA0iDfJW4TsotYGiAvH79Oi5fvqzt3dbWFs888wwHkNxq1KsFou6k4/Ot5zFzTEcE+7o+sS+1UoXU/b8iZcdiyDJiKReSLqFNTu4wAQvQe4OGoE/s2wreI2bBvfeIWg8qLbcEn26ORJdgV7zQy7ChrBxA1nr6DNgAW3sKAsjREHqFVavfWgHkpt2nMP27nShRqmFpziVmV8vyJnqyWq1BEYUi9w73wxfvjYGvt5veR2pSAEk/qGwLRMuBBGmM07RQWHmfhcc2SnJRcGw50jK84TloAr00iv4JUWVtsD8kViCPX4/4v3bBvONM+LYJKwdI5r1kbbNQb+qLwP2fo9JnRPOsWx55h9VFt5Bz9gx4Pn3g2MwffG3IbNm5rA36F/ZfdH55W9oxlLf/8Pj1PqP/7oADSCMYvQF3aWiAnDNnDubPn6+1uJOTEzIzM7kQ1ga8/gxx699uP4/knCLMf7kXhNWI+sq7eQn5V/+GNCu57LeHg0hDTNfj+6DfbL5QBLGLGxxaD4Fdk5Y6G89+UmX9/eRdvDvYsKqsGlkpZJf+hDL9Jm2kG0fIR2dGrO8NqZWA2A7idqMgcKqe06jGABl75x4mL/oNN1OyYWHGwWN9WmMqgsgSgsipI7th3uvD9P4DY1IAqSU2Af2fwk9V5Oljg+MzYKzwLhKoCShWVVUIaVo81Jb+sHJ2gEZJQMeu5dO1DPzoh5knsoAycQPu7PyTAHJGGUBCVWZParvMW1nWF3P9VsAidUz/Wd4WY0ACQVXqLsStXw1e848RMLQ7hFqAZGBLJ9B4eBpl2TWsbTYG6kdD+cgMLLXj5z0MqoZdsRxAGtbeDb03QwMkV8ajoa84w95/fpEE0388isFt/PB015Bqd85+eZT0G68NOapj0SzVvllTv4BpUNBvuFBspvORKkl3YcXuaApllWLmyHAKZTXcu7rizlnIru4mgKQ+uU0Knc+tThpknm+5BCISbTJvMVj7Llmdo8YAOX/VDqzcdgJmTHiFz4nmVMfodeHcEqkCIZ6OWDNjPJoGeut1yKYBkMxjWIqis98jK80NTmF2KLi0HUXZQti0fAFu7TvATERwRoI5ypwbyLuwCTnx9wAzPzh0HgOnJiEQCgk6pUnIv7wZ6ZfOg+/cBfaeSuRduwqLztPh07o5/VbLoci5gtyj65CTkkU7P63g0msEHAKCaRdZBUXaReRe3oTsO1kw9x8Gj15DIZacxN1t36E4rwgQWkAgbgm3oW/Dwf4O0nZvBUJ6QZS4B7nSZvAeMglW4hwUXtyIzAsnIFM7wzpsCFza94KFFYXAPuDt1Ou0PtC4qQCkFtLpcXU9qQjfHEtFbqkSIgH3/DLcSjBMTxxAGsbOXC/GscDhi3fwy9GbWDSxF9wcOVEc48xC3eg1NYdCWbdEUSirM17sFWiwQWsUUi1AKpOvlsVHUSQVd5iQBdjLkFpF76n+MG89DHyb6ost1QggS0skmPDpTzh05TZsLemllDvqpQXyCkvwxbujMOmZmidzV8UwpgSQBUc+ReK56xDYeUJEu3XqokzISsxh14c8iB1aAVnHkfLXDyiUW8Hc2hKQ50JaIIR9zw/h2dodRYcWIvH0RfDs3CESC6GW5kBeKIRD/0/g1S4cmrT9SKbrS1WOMLOh60nQQFpsDoc+s+AZVIrUDbORlU2KuC5O0JQAVi0nwbVJKdJ2fYuClAzQBzCzawXX/hNhb3UDiavnooBnTX/nDIFHH3h27wXV5RVIikyBubMLBDwFFLnJgN9E+PUfCHNB5TzNqsyObs4xFYCsuJsoAshvOYDUzeSaYCscQJrgpHBD0okFWORKxG8nYW8hwtQRHbhcW51YtX43ciQyFT8fi8fk/k3QiXIiDXVoFLRhHnsCqvQYitKSGapbrp8nWUAbaCcE34Hec5t0A9/Wha4oS4WqzlEjgEy+l4HXlmzAxdgU8nbo3u1enRvgztWfBViYzMcv9sNHLw3SXyfly1YqkeOjDdfw17V02BB4Gf4o80AWHpmPpKv5cBw4Ax4tgqFO+hN3/lgBidPLCBn7NOSXvkLCwVMQh4+CU2NfoOAqsk4cBJq8Af++/shYPwt56k7wHf8WeQg1KL62hs4/Catuc+DXIQjFZ5Yh4dBZWLQaC0d/T5C7kpj0KHhN34Z/H0+kb5mFnOIgePQZDWsryn0U2sPC0x+89D24s3YteO3+B//BXSCUyUgB9igSf1wGiftQ+I6cCFs7MZSZR3D3l8UotewI147dYSbIR9GV7chL94HXCx/CwVn8UM6lYSxtagB5M7kIK45yHkjDzL7he+EA0vA253o0jAXikrOxeNMZTBrUEp1C9RsdZJg74nrRtwWYtsVXf91EQjZ5I0e3gIO1YfMS1ZIiaIpz9H2bXPtVtQADSAubGnkdK3dRI4CMv5uK1z//HVfupHHiOVWdsDp4XgGVZJnxYn98MOEpvY7edDyQJSg4HIF70WJ4PjcHjq7W4JVcRvxv81Eg64smE0dAevZLJJ45/S97WIb+D77dXXBv0yKU2j2P4LEjYW5GKqwJv+DOjm0w6zgH/m29kHfkcySe/ff1Fk3fgt+wYRCkH0LG2X0oSE4gj2IXOLUcCccgH/Jc7kH8unXgtSWAHNQJAlJiVWUTLK5bA3UYweczLC+SwmtZruSmlZDKWP5jpYNP6m4vzoKjm3V5bqRep/RfjZsSQCpI9OtejgRfHk5BeoGcyq9woTWGXQ36740BZPcge7zZ04NCz5ncpH4Prg6kfu3Ltf6PBdbvj8L56GQsfKU3bFlaAndwFqiCBXIKpZj/xzWEeTvg5d6BXLm9KtiMO+W/LVAjgExITMWUzziArO+Lq0EC5JEFSL5WCuen3kOjZoFQxf2O+B1rofB9E8HDB5IH8kvEHzhJqYvj4BzgAz4TvNEIILQPhqV1EpLXz0O+rB18J0yDg6MSBedWIunEJVj3joBfG18UHl+M+JNRsGn7PBz9PMAnBSzt9XaBsLAuQHGuEmInd2iyjyJl7zcoth2FoGcnQ1zAPJDfAy2nkQeyJ4RqAsgsBpCroQol7+dQUuKjhHl15n7Er/8KUoducOtCHkh+uTiPwAlirwCIzOhluuaVe2q85E0JIAtLFVDSjuzifcmIz5JAzHJbuaPeWIAtbwlJ4j/TgnJ+OrsZJMQvLi4OMTExWhtaWVmhR48eBum33kwadyNVskBhsRRz1h9H6yB3vNCXRNk4AZwq2Y07qcwCp6IzsPrAbbw+wLChrJz966cFOICsn/Oqk7tqeABJIazHKIfx3A0IbJ1oh04NZVEOlEovuD4zA+7NGkOdfhj39qxBcak56dmIyxRX4QLbtpPg1tIBhQc+Q9L5i9BYUo6j2ILq6+RCVgjY95tPOZQtoUraheR9P9ELri2J4ZiVX+8K2w6vwc0vHUl/rCYFXKVWDEtZnEvx6RPh2384RMUnkPxrBPIpH1Pk2AFug6bA3vIK4lcthzL0HTQe3gdCqvMFRTpyDi9DWmwWzGxtykp70P8ErkPh1bcvWLUdrVqrgQ9TAsj4jFI4WIlwPCYfv1/K1L6EcTpgBl4QeuxOrtTAVizAmz080MrfVo89mW7TLE+OrWtZaTFuHD+IuDMHUZB4qSzDpXppLqZ7kzoYmVwiIXXsHuj95mc48cMniDu1D2aWFjpo+fFNqEmB286nFQK7DkZIp16wtLOrcn8no5Kx5q9LmP1CNwR5VV/0osodcSfWSwuwUNbV+2MQk1KI2aNawMnWsKGs9dKoDfimOIBswJP/pFtveABJIaxHFiLlhgqOHTpCEb8XJQWusGs/Fi5hzSBklMEnUZrs68g7tQF5aZlU3IMddE6HKXBvHwJeUQLyLm5Axo1bEDr3hksrL8qDPAt+0AjyaDYlITIpFFmRdP1Guj6r7Hq+B+y7vQn35q6QXN+FzOM7UaqxgUXoSLi16ggxE+tRl0ASuxMZJ/ZDYtkKHgNfha15NFL/+B2qgDHw7NkWAgV5M5nSmSINRVd3IfvqKVJhLZtloc9Y+PQlER0RK+fRsAHyVEweLMnrGOhhhSW7E3E9vRRW5qz0CXfUdQswz7JSpcHTzZ0woYu7wWBp+fLl9+tA+vv748KFC0avA5mbkYbdi95Awrn92vqwalJF1B7cQr+/zGXFQNPe/fDskp3Y+ck4RO7eDnMbPX8LWIUmIanXi8SUZ98bQ6d/CWdvyqd/wsHm8Mtt51FYIseM5zpDJDKGVsCTRsl9buoWyMwvxeLtNxDsYYvJA4JNfbjc+EzYAhxAmvDkGHtoDRIgWQ7kTRE8xlAOZCNzyhdkdbJoJqj8RVndRhKkpjqLZYpVFQdBGfusoobk/Rc0+hetC5B9Tu1oryexHq2c9YMQV/Y5K5dUOZxS23G56E3lfivaY39XUUOyUnvaOpBlvscHxmikEh5sDKbkgTwdm4cD13MwpY83SihXdM3xVMRmSGhqeBDRHxYVZnjENva3ve72r/2W0ISx3FYLymftE+KACZ3dWTlUmlLD0FJERARmz56tNaKPjw8SEhKMCpAy8qztWPg2ru/8AWaUJ8dnzwmuFtu/FrmspBhNegzF8PmbsHvBRFzft5HUtQ1QFoN+C5gnUi6VI3TASxg+eyXEFPr8X0dKdiHm/nQUw7uFYBAJstX6eEh0sfoajLUeAdeAkSxwmkJZV1Eo6xsUytrRgKqsRrpdrls9WYADSD0Ztj402/AAshj5f89EUpQInuMj4ORuWSY486icwX+9jJUBoPbQvrSWA1zFr/LDbTxwfTl8ll1cqbBz5b+v/FnF31ec+/B5lcdQsRIfcY4BF6kpAeT5uHysOJKC5l7WmEheKnPyRu6JzMGdzFJkFVNuKXmwDMQdBpyB+tsVg0eWx+rpYI42fjbo4GeHtAIZlbkRws5AhbMXLVqEGTNmaI0cGBiozYfUQpuRjrjzx7DhveGUYy3RyrVzx6MtYDSALB+OirzCQktnDJ6xFi36/rfa+Z7zcfjzdCwWvdwDjnb/DZtVne/ie0kounUS0oxYqGTShzYwq9oKd55uLFD2AiGycYSFdxs4hJPaulh/Iaar9t1CXHoxZo5sDgcb/fWjG9twrZiiBTiANMVZMZExNSyAZDCmpBTCSJQW8GHh25xyGI0jOGMi06/TYZgaQK45kYZsyjUNaWSBgWFO6BJoC5Y7l1OiYM5mLspPp7Ov38ZYFrI5eR4bUT5PoUSBP6/mILNQhsm9vGBrYRh4MiWAZHtVZ7esxr7FUyifj0CD2w157AI0NkCyXcfSghL0nRqBXq/NfPw4KT1h9o9H4O1qj7eGt9PJFyrt0Fak7VuJkruXoaZEfc5BrROz1q4RxpD0R2jvA/uWA+E76iNYeQfUrs3HXJ1dIEUEqbIGe9rj9YFN6CzDRGvo5Wa4Ro1iAQ4gjWL2utFpwwJINicUviiy0Ia+qeWlFDpaN+apLozS1ADyewLIQoUaKnJfWZP3yt3eHB525vCyE5F4Es8YQrV1YRpNcowsNblUrkZinlzrebybI0WwmyVmD/alOsUNDyCZB/3g94tw9sc5EJqzMg/ci+HjFq7xAZLWbl4xAeRs9Joy77Hfrxiq/bhgw2m8P6IdWpACa22PjFN7Ef/jO1Dm3iExN9pk4Bvme1LbcTeU6zVKKUG9HHZtx6DJlOUQO7vq5dZPR2eSKmss3qRQ1vZcKKtebFyfG+UAsj7Pbi3vreEBZC0Nxl3+WAuYIkAWEUAyYSQGkQp66WYgIiJ45F63695CZmGscm3ocdl8NvOwxPSBPgYDSFOqA8kAcv+qCJz/+VMOIJ+wlE0CIPMZQH6CXpPnPna0P+y6iOv38vD5q72obm3tYE+Sk4XYLyeg4Po+Cp9lCrDcE88kn3gaJYUVyxD4xjq49xmnlyFWqLLGpRVh+vAwuNjrV4FYLzfBNWo0C3AAaTTTm37HHECa/hzVlRGaMkBW2FAbPcSp59SVJfXAOLVZx+XvwVLaGAih/GVDAuTOnTuxefNm7ZgaNWqEpUuXGq1GHwPIA6sX4NxPczmArAcAWUC1H2f8eBR9W3pjePdmtf5+5kZdxO1vX4YiJw58irjhDtO1gFpWAqdeUxH0yiL6LpvpZaCZ+RLM2xKJZt52mEKqrFxtUb2YuV42ygFkvZxW3dwUB5C6sSPXimmpsDIRHRbCWuGB5OanflnAGAAZFRWFy5cvaw1pY2OD4cOHG+1FjAPIqq/nuuCBPHYlHj8duoEFL/WAh3Pt65pmnTuMO2teh6r4HnhCTjyl6qvF8GdqlDJYhw1H6LRVEOlRHfhsTAaFssZpVVnbBbkY/ka5HuukBTiArJPTZphBcwBpGDs3hF7qggeyIcxDQ7hHYwDknDlz7teBdHJyQmZmptFUWDmArPoqrwsAOf+3ExBQaMSM8d2rfmP/cWbW+SNlAFmUzAGkTiyqv0YYQNqEj0TIO9/qFSBVVK7se8qFvJlSiE9GhcPJluVOcwdngf+2AAeQ3Ap5rAU4gOQWh64swAGkrizJtfMkCxgDIE1JhZUDyCetkH8+N3WAvJeRj1m/nMSUQS3RMdSr6jfGAaRObGXsRgwFkOw+cwql2lDWUC9bTB7Q1Ni3zvVfByzAAWQdmCRjDZEDSGNZvv71ywFk/ZtTU70jDiC5HMiqrk1TB8jfD1/HqagkzJ/UG/bWuvEKcR7Iqq4O459nSIBkd3smOh1rD8fjlb6B6KhrVVbyomuUcuMblRvBAxbgCSm3toalnjiA5BYT54Hk1oDeLcABpN5NzHVQbgEOIDmArOqXwZQBUiqV4+N1x9AywBUTBrSo6i098TwOIJ9oIpM5wdAAyWpQfrv3FqLTCjFvdDgcbHSzaaEuzoEyKQrqnCQqGcM3Gfs26IEwxUAq/ipw9ITQpwV4Vg7VNgcHkNU2WcO5gPNANpy51vedcgCpbwtz7VdYgANIDiCr+m0wZYC8cCsFX20/j4/GdkFzf93VAeQAsqqrw/jnGRwg6ZZZKOv8P0iV1csOk/oG1TqXW5WVAHnkPqgL08s9XVzZGOOvrIoREESq1eDbe8Cs9TMQ2FevxiwHkKYzkyY3EmMBpLW5EGraHVFSPTdWp4g76qYFmBy4kOoqCuifckrS93EQ44vnWyAswNmoN8SpsBrV/Hrv3BgAuXDhQsycOVN7bwEBAbh9+3atX7xqaiguB7LqljNlgFyx4yIy84oxZ3xXiES1q/1Y2SIcQFZ9fRj7TGMAJLvnM7cysGr/bUzp3wSdmtZ084JCViXFkF7cBnVWHCCoeaikseehvvevkUsgcAuGuN2z4JlbVvl2OYCssqka3onGAMgdV9JgaSaALUFk5wA7+DhbacOzufp8dWf9sf1FPoWpFJTKcSw2B/fypdrNgABnSyznALLuTGQdHakxAHLJkiWYNWuW1mKNGzfGzZs3OYCsA+vHVAEyI7cIn/58DIM6BWNIxyCdWpIDSJ2aU6+NGQsg2cb96v0xuEWqrHNqocqqiL8EWdRe8DRqLnRVryulto2To0algrjT8wSSVX/ecABZW7vX4+sNDZDvrr+C47ey8EZvfwxq6w07sZBewnigRw931DEL8MADn6eBhIq6X7ydjaV7YukONPj2pdacB7KOzWVdG64xADIpKQnx8fFaU1lYWKB9+/ZcHcg6sHBMFSD3no/DtpO3MO/F7nDXQe3HylPBAWQdWJjlQzQWQLLus/MlWLDtOkI8bfFKvybad7HqHvKofZDHHAfPrOperer2wZ2vCwuwUFYlzJo9BVFQxyo3yAFklU2lgxMpYZUpHvHUCqiJ9k39MCRAFhbJtDtebRo7o3NTF1y9m4e9F5JxKbkQBXKVNgySO+qGBZi3mE+w2MzNGk+1ckfP5u5Iox+jVXtj8Hw3P7RuUtOQGN3cf4MNYeUJIRRb0PNHBqVMzvQS6uVhDIBcuXIlFi9erLWnv78/jh07xnkg68DqMkWAVChUmP/rcdhaW+J/ozro3IocQOrcpHpr0JgAyW7qTHQGvtkfi0m9A9GLfsere8jJ+yiPOcEBZHUNZ4zz1SqIArsQRPbWiutU5Wg4AEkvT3wRwRv5s5iUsJoSRw16MABSFkOWkwaNmQvM7R20YzHlw2AASW+ybLdLQPlyZvTn6z0x+OVMstY0HDea8gp58tgUSg36hTpj9ogwmIn4yC2WIcir+mpfT+6p6mc0SIDkC8BT5SPv5iWUiPzRqEkARDzVI0LDyXNsZgUzCiNXSougJA8yPajq1GEMgIyIiMDs2bO1dvL19dV6I1kYtzEOLgey6lY3RYCMSc5BxG8nMfXpVujQzKfqN1PFMzmArKKhTOA0YwMkM8GPh27j4p0czH62OdwdraplFc4DWS1zGfdkDiAfY39GIfIcSJKjSczDCubuTSG2JZe6ASGSJyBhmKJoZJ/YAblTX7i1bQ8hT2HSuX2GAkgVxdsrlWqYE2AsJPWvdSeTCDYEEFDIRB17dzXuA8DEemceLuaNlJAHuVcTJywc1wIOtmIS1jHOi3WFeRoeQAogFAGFkatx6NvNsBu0EF2GdIaIIiEgtCSBDh7BYglI54g2bBQojjuAhDuFcGo5GJ7uthQtYdobXQ8ve2MA5KJFizBjxgztUAIDAxETE8MBpNYaJIQmK4Gcyr8JxOIni8FoZJAXU4QOPSPMLSn/Xc9+clMEyF/+voIrCQSRL3WHpZiER3R8cACpY4PqsTlTAMgSiUKryuruYIG3BjWt1nONA0g9Lg5dN80B5KMsShDC10CecgTpF85qfX7mjYfDNaw5aI+dXnDZay47h36q2L9XqLWwcFP68Sr7/BEH+7xc3UXDEoTvH4Q89Pfazyqupza0AFkcg5zTu6Fw7AnXVm04gCy3GUvYZvH1JyJT8f7GSBTIKJlXaFzI0PV3syG3p6KvkIIg8rWefnh/eJjRTaFfgKTvvkBAm1MUov7AM4K8fRTYyyOvlPbJQJ/ff7bwBA/ml9DzREObW/efPNrnCXkQK++m0Dnse8PaY88Z9v+Kf9dee/+5Rdcyeiy6hsifFyLN4Tl0HzsMVnw2HgXyr27A9RuF8Os3GX4eVlAr8pC8/TUc/isBjV//HV07+xNcKsr61+bA0DORbbxpQ1zYOMtqSTFv2z/3xJ6nbLwED/dD9dnflT8zy9t47LO1liuEA0hTKeOhgkomgl3PqejWJxjp+77GxXNMXOihtVwOmhpaK3zL3mj/9gTYZRzE6R9/QiEpN/L1GIZiagBZRMJjH689REXcPTC+v+5qP1b+SnEAWcsHjAEvNwWAZLd7NT4HS/+Kxss9/dEn3LPKFuAAssqmMv6JHEA+BvTUBSi68icKiu0gFmeipLQRXDoMgaU1vfSw3XUNvUyxlyK+8B/wYy+AmvKXwYebZS9PGoJP9nJEobE85lGpDKIq+oxdz14VBaKyl0O6hgPI//6OzNhwFRvPJMHWgl54uaNeWaCENgXCvW2xbnJ72OmoOHFNDaRXgKRniUpJL8JmFhBo5FBQriElHkJoLgaf/be0lErUUC6iufn9DSqNijwuSnpmlN8Qj51vRrL99HzRMAhljxc5KdlSu/cPelYJhAJ6BinpuUXnC9WU1yihtkXUHbXNnmnavTGCUwoLVxWnIC8lHcJGYXB0soRKoaSQ1jwk7Xgbxw5lIezNdWjdzJW8kGrIc+OQlyOFJUVq2NqaUyM0APJWKmUyep6Z09hF5FWivqhtgRaWlWXtUX43n/03gaWapQloqEgxwSsDRz49IzUKKW0kkNeTjZ3Zh8cgWPfeTQ4gTQEgaaNBIQfP70UMWfQNAko2YsvcWbiXmlu2Zv510GaDUgGB3WsYtWUFXOO+w8YpU5EpYutEf3EopgKQ/aZ+gp6T5+L8zXv4ds9VzHuhC3wa6SfUnwPImv5yGP46UwFIdue/HL2D83HZ+Jg2gT2cqhbKygGk4ddMjXvkAPIRpqPdThTdRNaZI6SvPgT25rHIvBQHy7aj4eDtQi9xKigzziL7YhREwU/DMcgbPFkWCq/vRJHUG06tesKC3qHu1yOklyF1SSokCSeRdzcBGstgOIT1gJWro/alTV0Qj8L4Myi8l0IvbzYQe7eDXZNwiK2toWEhrJwH8t+vDvSmK5Uq8cFvV7H7WjoBpO5qXtX4y8RdqFMLyChEmdWB/HJ8S4T6O+m07eo2pi+A5NFmkTrrGC6u+Rby1sPgmrUfUacuA8FD0aLfUFhmH8L13RuQx2+GwGEfIbxjG1iKipC2fylObN4MqfZGKHSv6Wi0HjIBvoH0LEIxPb7249beVYiLTQWPXqiFZgRj/s+jx5aJ+1wAACAASURBVHNPoXDfciTK2sDX5y6i9+xAqaADQp99C007NKccR7aFVYL8G/vo+u9xNzEPYucuCH52Kpo090T23g9xdOsByJknk8Zu3vp19HtxMnjXl+HooXgEjV6I5sGuUBbdxt0D3+Ly3v1QO/ZAs37tkXfxCHgtX0fHQZ0gi1yFU6t3wPbpJWgzsA1ERbG4tWk6bua2QeeXp1HeDCBNu4DY3d8h6sxFqG2awLf3ZLTs1ROWtFlUttmmu8MYAPnJJ59g3rx52ptwdXVFWlpatUK9dHf3bN9BzwBJmwkquQwK2gsoX7IQkTiTQEjP7QrPt1oCWaEDvMcuRI9uShxf9BES0opgaWNNl9DCVEkgp2c+GYlWPG1+0L/yRCKYiS3LN0+oD7ZhooVH2mhgGyhy+mdZwBDtQQghYpswzKtNGxgKqYRKBfG04dhqytvVRl2znHoaV9mmBgGtkvosZZs7tKlCv/vEt6DoWoT0H4jRn+3A7oiXcX3fRphbW5DnlNqj+yvfF6YNDzOI6I8+jtL8YvR7iwDytblYvOGkdlNlxvju+uhK2yYHkHozrc4bNiWAzC+WI4JCWT1oA/KdwU0pxejJUWIcQOp8SeivQQ4gH7Yt8yBS+mPi38iMzoNtx2dhK7qLzNN7oHDoDtcWbegHhsLr7h1GxtlLEIWOhUuIPwFkGgou/Y58iT9cOz5FeQgVAMnCuEpQcm07cu5mQ+TiDj79EELcDA5tO0FUehM5F3ajRCKGmY0N/bBJoCjIBs+pK1zbdYNIGYfsk7u4ENaHpomFskkozn76xmv4iwDShsp3cEf9skAFQC6jPMjmpLRrzEO/AHkEp+e8gbsyC9j4hsBKVEgbTbGQKXkwdwmBg6MARUnRKLEYgG7vzUdjPzMKa/8NUSfOQE1eSp6mBIV3rkBmNxrdP5wFV+lBnFg+F+l8bzRyt4c0+TLSU/Nh12cOej7TDmnrJ+L8xTSI3cNgby9ASUoMJOiKjh8sRmCANQrPr8KJn3+HkooE29mLoci5jcxcD7R6dQ5ci7fj7OYNyM5TwNojGPYtR6HdgCGQnvoAe/+8hWZTfkXHVtZI3jYHx7bug8AzBLY2Qsjz7yI3XQqv0d+hxzNdqVD0Zzi0/DfYj/wBnUfQc7DwBqJ+eBVXszujz7SF8BRexLlvpiM+3xGu3m7gK3KRG5sE+6fmofNT9FzU6DYX3BgAuWvXLmzZskW7rBs1aoTPPvusHpbxYEJwBHJmzrBv3A4+/q6UBiInYbhEJEdeQ3GJlBzUFD2ikhMQCiH2aQf/ZkFU11cJSUY8UmJuID+viCCPXjztmsCrsQ/UhSkoMfeFt7cjaRRcRFJsIWyDg2GpykF23C2UkmdbI9dA4BoCj6ahcKA8LMjykB17FSl3U8rCqs0d4RjYGk5mGUhJV8IxIAxONvSbkhaDu9evQ0qbVwK+CCK7YHg0c0PJ3URIRe7wCfGGKi8RNo280WXyCuxd8iqu791IHnZrGntLeDVpDGsrSj0pTENq9FVkpucQROo+OoYB5FPvzkPzF2bina/34OV+YejRwk9vj0jTAEgl1JIi2iRgARQ2FKhV6Tef7RmoZFCVlkIjEENgYVkmfigvpCiIByMWeCx8nkV3iOgl7V/5stQQvYOpSllkBvVD8yqoPH/afkqhKpE9IGdY1iZtPJDoorEPUwJIZgsWyvrFrpuY0LMx+rTweKJ5OIB8oolM5wQOIB+eC5ZrUYDCC3+gSNUcjbr0hliUj4KLvyH7rgAOXUbCrpG1FiAzz1yGqNkYODf1JYBMR8GVzSiQ+MGl/YB/AJKFg2mKUHR9B7ITCmHdpDts3Fy0oa4iZ2fIY/9E1o1UWLZ8Fk6N/cFXZ1Po7FY6Vwb7rs+RLHcGck7uhNyBy4GsPFMcQJrOM0RfI6kAyC+eb1Fv60BqPZDZh3Fq9gfIdGMAOAc+VrdwPmIiou7YI/y9NWjT0Q7xP7yCE38XoPm0VWjW2odCXZWQpV1FetxtyGQ5SD+xAfdKW6DTe1/Dn3cAB79YjFLfwQht4a19dl2/5YBOM1ehqWcGIpdPwLVkf7R5awWaN7NE0uapOLIvGU0nr0OHFipEfjcFF8/kwWvgeHj72qP0DnkzD16F68gV6DaiC7J3T8G+vzPR9u1f0DrYhjwy+Ug/NBN/77mNsNcIIAOTcXzuZMRJuqHHrIVo7GGG7DNLcXjdZtgMWI6ewwkgLy3DkS82wX7Ud+g4rAMB5E1cX/cGInM6ote7n8Ih8Sv8tXINeEGjENqhBYSSO0jY9ysyrMdjwAdvwdlKQOGLuvNCGgMgIyMjcfkyeZvpsKHNwxEjRtQ/gKSXeqVlEwQNm47wDo1prd+FRhwIn45NkLXlE+z9+XvklzAisIJ953fQZ/IkOJXcQHqCHC5tW0F6cyMOrViM1PRcmHVdilcWvA+7gijczSOvYCpt7EZuxqUTjhjw60oE5u/GllfH4FaWEpaBo9DlnTkUuaCmjd7L4AdQVI84EedXfIBrZ65A6tob/RbsQc9m6Yi7fg8leXkEJb7wCbND7Jp3cWjnLpQUW6FR1+V4YcXLUN6ORDopnWrUxbD0aw1Ph1wo+Z7Ytfh1RO3eAZee/0Ofd96CuyARqVfvwSa8HQTZR3H8y1m4k5hN4eKPCsGt+ZOTAeTQ9yOQ3/o1bDt0Hotf6QMHPYb5Gx8gWXpQI1i2GQg72kssplqBhfcyynLH2cFSgyhKwa5dX5jnX0Bu1HnIlWKYBwyk9zNvmlsGggR3LKw+7w7yIk/SpsBt8CxtH8wTp3JFaqvmcGpL731WUpRG7UF+cpo2P1vrkVbxKGS6Dew7toWYIFVA3m8epRkoc2KRG3kGpanJ1BeB6eN0MGo+5VW+0tQAkg3816NxOHs7BzNHMlXW/67vyAFklafa+CdyAPngHPAo10adfxlZ5/6GTOgJC0cnipihHKW8u5Dky2EZTh7HJj5QksBO5pkL5IEcDefQQPDl6ci/vAkFpb4PAiRrnnanNASYJQmXUXIvDgqhE6w8O8M+2BPSqxuRkwDY9yRYZF8svhqyuN3IvBoPyw7Pw8E+FzmnOIB8+JvCopKkEjk+2sB5II3/FNHPCBoMQGYdxMlP5qK4xXT0fXsULJV3EfP1K7h6IxSdFyyGr7cG6VvexbEtSWjy/vdoHm5N4fXrcOXPn5Gelnff+EK3fujw1pcIdr6NS1++iWvRFBLPDlEg/J+dhpY9B8AGsYhaORWxkj7o+f4MNLKWIv3Ax/TCHIfgV9eifZMcnF75Lm5ei31oUh0QMPobdBrcCpl/TcWBw9lo/caPaBVsTzmbxcioAMjJv6Gj903sW/ge0p0m4+lpk2BvIYYs5gccXLkCwh7L0GtEN/JAEkAu/wV2z65Bp5HdYV58E1FrJ+NaVkf0fncOLK/Pxd51GyClkMHKB89nMgb872242NR9gJwzZw7mz5+vvT0nJydkZmbWvxBWtRwq6ybwa9MFVsWXcf3YBZQIw9Bp3l4MH1iCvdNG4dThKFg2noTBP6xBUMYv+P2tVxCdqIbH059j9MLXULLpTWxdvh7KHhF4eeFMeFkk4cKySdi98RDUFtawcBqPYetXwDd3B7ZPHYObhW3RZd5G9Osqw9EPR+H47usUvj0Ow1d/jxDswO+vTUCckNbZ3B3o21mM+K0LsO+7L5BY0hZ9lu1C//Ab2DxlHK5dyYZbj6UYs/INOGacwfGVH+HojtOw6b4Ez3/1PjwEpdj04fOIuijF0B/+QLjZMWx/bzyuXsqDXbd5GP/dxzA/8yk2zFmCYj7l+tagqPrjnqyywmJ0e3UmznmMgbeVChMGtNTPQ7i8VaMDJEGaRt0Bnp/shl8IkL56MG4fPFcGhSxcWaqBqOm7aLrgU1he/QJRX36MIrk/XCYdRmgfD5Rc3Yzs61EEjM1g1aIzqbenI2/nfKScPgIl5YCXzQ29VUil4Hf8nDbupsKSmLHw73cpMmINPUMp0oMEFNUKc1i0oo23GWMhTDuLjON7IDcjoOzWE8LMQ0hcNx25iRSKTqHVxjpMESALyGM7b0sUPCii5e0hIRD9x4YKB5DGWjk16JcDyMpGI++jUA7JDfIKxsaU5U48dAjc+8OtQwfwc84h8+QhaHwHwTU8HLyiGORd24dSNCWA7P+AB5KnzIU0l3YvLdxgxs+mXMldKMi1h1P3URBTzlP6tTiIQ4bDkeqs8ZWZKLq8g8K9LOHU81lYm6cg5wQBJKfC+sBMcABZgy97HbukYQHkJygKex993h4La6QgdsVEXIkKQodPl8Dfj4e0ze/i+NYUNP1gLZo3KcCVr19EZHoo2j77IhzMUnF390okFDZDx/e+hFfRRhz9ficsO4+HH4X+CswawcGfQvwsSEO6OBo3vp2KmJIe6D5tJtzt5Ejf/zEpqMYj+JXv0a4lH7e+fx1nj2XDd+Sb8POj3FOtKqolbXpROKCzACl/TcOhv9PQfPIqtGKFolXSSgBJHsiAJByfPwWxOeHo9GEEAr2AtEOf4fTWw3Ac/g16DO0K+fU1OPr5Z1B1W4Ce44ZBlH4AF3+eh2TeAPR65xPYxC3Gru9+gln4ZLTu0RoCFrdGB8/GH85eXhAJmNq17ha0MTyQDaOMB6WE0Mu/nF4gmcNYSNoA8lIbeD39I15e/BSi5w3Dri2H4TR2J96Y2R+3f5yM7d/9Tt4kCjG0egZP/bIOAQlr8Nvrk5HaOgKTP58J27g1WDf1LeRQiDefNAQEdq9g2IaV8Mvdiq2vjUNC8Cy8tGQunOK+wg8fzoWENmVVRUFoMWcTBg2ywJEXWuFQeiB6z9uDvu0SsGXCMETdSKT15I2gl37BuGnNcPrdATi8PwqOPb7CuO9eh3LHh9i48HPkKviw8B6OPl/9hg7+Qvzxv/GIN++LtyImIGPLO9i4/CfwrSmqQNULvb//HW1sTmHrS8MQTR5TkQ5VwjWSYlj1fBWR/i+gCenmhPu6wNneEo52lrCnfExbKxLJIihiYFSm7l67wzQAsg3cP/wdAeFAyqqxiD92qRwgSUdCKoBZ6P/Q9NMZEJ2LwM1VEShRNYHL5L0I6WaO5C9HIu7P4zQ3VILIvx88xn0F31YipKyeiOQTx6EWUW4sj0JgSwLgPHEd/NsqSdndD7aK07i96BUUEqDymYCX0gIW7b9Bi/89C8l+ytn+kjYH4AyHIT+hxRuDUXr0E9xa/RlkoPWrww2D6syeKQIkG39kQi7V676F8d390LP540NZOYCszmwb+VwOICtNAOU88OSJJFqzCcW8MDRqSaFVIiZBz1QNKY8xcify0s3hyLyF4mzkXtqBwqwi2m2yogcZeS5lBVBbt3gwB5IUV/nqHBRQyEVBagYl6TMFQpK4t6Gci7b9YaFJQM75PSgpLKXPmKAAk9M3g9i3D5ybh4NPOZJZx3ZA4dQHjbg6kPcniwNIIz84DNB9gwHIzH04On06isJnkHftBQLIJNxaOg4XI4PRefFXaBzAQ+pvU3D4zySEvrcBLZupELNxGi4cv0V5044ws7KEJj8JRfy2BGyrEaDagf0rl1A+tgXMzNkzxRy2gSMQNnIMXO0ycH3Zy7hR3Bu9p8+DBwFk2p5p2L8jDiGvr0O7tl4ovvojTvy6lgTBKK9Hu1PMkoFao9nLHyMk3B5ZRxbj4Nr1kAmsYNvpLfQaOx7yk9Owd1s0Qt78HZ1bWyFp+yc4tX0XSik00cLanrRJSlCar6EcyBXoOqgbhfedwIW103HrZjpEFs6wsBFRnmQqVO6j0PPdBfAUXcKlFR/hdoacwv/Ky46QjIldn9no2qcHbcSRN+BRO3w1XJccQOpRRIfgX8Uzg7mDG2wJctQyWwoNnYGn3umG2xHDsWvreXh/fBgvjQ5HSWosstNJA4AJ3dD6snB2Qem1n7A3YhbSwiMw5bOZEEd+hh/emwUJhX8zNV+B3UQM+40B5BZsmfQaCp5aifEfvghbEqdLpfBD7U4DqRiL7FwgFiTh9MzncCqzMXp/SgDZ5ja2THwON2/FUW6dDwJf+AFj3m+DS+8PwIG91+BQDpCyP97Hti++QLachKO8B6PXZxvQKUiILR+8i8KQYZgwsQ/kadGU80ihsFpwoPt1bARe5lEcmPsObmfLdQqQ6tJi+i68higCSAe+FCVyJdWrVt8vX8Kg0cNODGcCcVtrMZyohrWDrQWc7KxgTQp/FiQKZE51k9kfVk7nSUedAMiQ9xD86SyYna8AyCC4vLoHIT0sCThfphD4fVTyxUybv8hvMgVNpq+As/RPRC2aioKMPHpG0SaH47MI+t83sIiZjbsZAxE6KhQZq2lT4vR1UqpmUQ8EkO1WIPyD0ZAdmYeY1REolfEg9JqFZitmwyL2V0R/Tu0Vste5J9v1SXavyeemCpDsXn4+HIdzd3Iw+z9CWTmArMmsG+kaDiArA6QQmpI7yL95Fir79nAKYqpRDOhYPTI1FCmnkBt/D2YBfWDv7gBlbjTyYy5CLrGFdWBzCJWpKC6gGlYhHUCq+OUvOGU1JVWFd1F06yxKSyTgO7WAfUAoKbdRyCr9uKmL76E06QKKMikcTUBlQ0hIwM7bW6tQpy5NJI/lGShtW8EhKJgecqwOpZEWSxW6LSiWYMaL/fHBhKeqcHbNT+EAsua2qytXNgiA1IbMX0Tkj2tR6j+WPIp9YIEsJP+xGLEJXgid+Do83HnIPvw1rh3NhM/YDxDQxAWq7CuI3fUDEuKTYR7YH76uFOZKeWMBo96Ac/EBXPpxJbIFLlR2iPJxpLTZRSI8gnaz0W90b+TuXYqE4hZoMeZFyiVUkIjXalw+nQqfwe8hKMCZcLEURfEncGf3T0jJIcEv9j7MD0Pw2LcRGOZOsBqHu3+vwa3IW7Bu/QbaDuwNeeS3OHMqGQFPT0dIoDOUhQlIPv0Lrp++CguPIfAPzceNHdtg0XMxupMIjhm99BbH78e1Xb8iN88djfs/A0tpJO4mWSJ0xEtoROI+8pxoJJ7ahJgLV6n8B1u19CLc639o04VUWymtgANI3X2T9abCSiGsSr4bPPu+gw6jhsJFk0GbpUqISeDGrbEZrs4bhT3bz8Pzo2OYODYYN398C3+t2waBLSmvUp6vikraqOklRVWaD7RfiEmLPobF9S+w9r0ZKGFqd/8CyFeRN3AFXvr4JYgufIl185dBQoI69DXTlghRkXSrSpIPCQni9Zj9JwFkHP545TncuHmbPvNF0ItrMfq9lrj43gAc3Bd5HyDl2z7A1mXLkC0TEkA+jd6fs1xfBpBvo6DpSLwyqRcStkzDFvKe8pnSK/NWyak/8t6zUiO6/smWUghrVwphPUt50x5iBV6g+o8yhQrZ+SXIpc1o9jucmV+KPIKlO5kkPEMqrUoSBpLKlASZJNpEpXYsSbxITH9cHa3Jaykm7yVtCFmYwY4gy4b+aUGb4uZsA4oeAPUGIK1oXSmLoRR3hNeUrQjopEZixDO4d+Ui7d07w7LnUoRO7YvMhcOQmjMEzZdOh/LwDET/8DVUVF9Uo/oHIKXlHsgSoTscB1FkyJSnULTzLdz6eTVUlHNZe79vzb7fpgyQhZR2NG8zqbKSuvo7g0PJn/JvyOYAsmbzbpSrOIB82OxlBa3LCl4/VG9MW8yYqXSVQ5y2UHZFUe5yrXBtwetHiDtoa7Oxc8tj7e8XBS+r96htVxtqwnZLWXgWqzVZ1qY2Uby8ULhRFkk1OuUAshrG4k79Tws0BIDUGoAp+JF6H4+VOtAKw9B3ntVHpE0rNdU9YI+CsnqJPHqnZi/UVEKD3oj5FLHAHhnaZ0UZ5ZGiZSES107E8YNp8HnmDXiSUiXyruLGzh9REvIRnpo4EfaWVASBnmHatrXdUw4Qq7lISphaKGPjYc86eu788xLEwreo9qT2c/Ja0OYWK9auYfUc6aWctcFeBspqOVY+h55tZuYkhrIKB79ZBbNen6PHoC4Qspq41Acrl0CtaJ+19Jpf9uKtHVfZc489iysXhWf1L9lLua4PzgOpDw8khY6WqiFu/z6e/TwCzte/xpZPpiPujgIeQ9bhJQorvEMv77s2H4T9mD/x+syncHf9ZGxa8iPkNlQ7lAIB5RSYQ7GYMDdTg9fuSQC5DVsnj8Edvxl4eXkEPHN+xaqxLyBDLYQZRRIppVR+i5YOCXBC4dxDBwBphj8+GIfbmt54d+lkFOydjnXTlkBqT2PX1m+lzWH6AompDImuYYKJ6Az7YAHSmk/C/hOXsGhSH9hYsfqrjz5k5KEsLpVp4bKI/sngMo3+pOZLICFIZ2BZQIq4QhqoHUGjhiiT1Yz1dLJFv04hcE25jFvfvkahwMn0LHp8P7r+Xt5vT5sD+YQQ1qp4IBlAqktpHYTDncKVgwb5Iv3rZ5BwbD8Ulh3h8coOBLaPQ/TMF5CVEQC/iL3wtj6FWIrayIhLp+eiLXkgv0bzD8YAdw6SDga7rj0cO3UGL347RV58jfwklgNpPFV4UwZINp+Rd3Px5V/ReLFHAIWyUgrEQwcHkHr7Fum+YQ4gH2XTcpB7pLkf/qzip6Eqe4z/dW7ln5iH2/qv8eh+TdSmRQ4ga2M97trKFmgwAKmFyIrNo3ILVOQt3Q83YBtM9Fnl8AM65/6TQUuClPNEL8rF1/7AjX0/Ivbm3fLGKJ+69fMIG/g8vALdCVRVZR6R/2q7fEwPPJUe2Tfb8NKeXA6zlZ9dZflXfKp7JL35HfZ/vQJm/Vaiz9Du9IJNMKoFzfJ7qCie9/A9sjssv/WyIVflOVv975ExAHLhwoWYOXOmdrABAQG4fft2lcIJq393T75CPx5IArZiARz7LsSYz9+CZvObWLfkWxQ7DUZPytXtNdAD1xaMxN6N+8ALmYxBy1ciXHwB+2a+jDNnYsCzbYdmQ/vBouAcKZ2S3kD3RXh18XTyQC7HD+9+XMkDOQnDN35LIazbsO0NEtHJD0eH+ZswpL8topa+ib+3/IF8+MCvy3Cycwlu/vETMsSdtCGsfSiE9Y+JY/7xQE5YhzHTyAP5fj8KYWUeyBV4/rvJkG//EH8sXVrugRyK3ktJLIo8qFs/GoHLpwoxZN0udHCOw9H5r+HU0XOQ2bRCSJ8BcBLdRuQuElphIbk6yEWsmEltGY93PkWz8bMw7Zs9eP2plugQSsnGNTlYSSyZAoUEkEzsJK9YipS8UuQWy1BMnsx+HUPglXkN0d+8Wr8AcsJ6BA32R/qKoYg/cAgImoygud/A+upc3Fi9ACXSRrAfvhXh44KRvmYC4nfvJAVhVwLIrxD2wVjwkk5QGlMk+MEj4BKo0uZT3jlwBCJbW06F9T/WIXvu/3wkDqdjszF3VDhtUlg9cLbpA2TFb95Dv9U1+e795zXl/ejwuaHzIXIAqXOTNugGOYBs0NOv05tvUACpM8uR95AEZuQkVZ+ZmEgeQ1YzzRV2fqHkoRCRl9HwIfDMi6gqptxyqqXHd24Gp0aOJH7CPI6mcxgDIJcsWYLZs2drjdC4cWPcuHGjngEkvUeTVxuWbRH68iL0eioAhVSnUaYWQ2PmCPfmnriz9Dns27QXMrET1UV+Fd1JHMfPhmp+JtyFSmNLJWrSkbDrM1w9ToIpXRfhlSUEkFEEkNMeBshv4JdDAPnWBMRSvqG51wC0fXUWlcAJgCTuAorVLF1EiNzz3+PMlt+Qa92FVFj/Qp+2FML6KIB8jwBSG8L6NQHklMcC5LYZY3Dxz61wbP8qur7xIZqS4FXe7RtQCBwp/LYQ9w4uw8UDJ6Eij70uvZAMIPu99Ql6vjYXn/x0FI7kfXxnVCe9faHqVQirikJYzTvA6zUWwlqIuLkjkHqFSq/0WYuwd4eh4BdS6d2xEUpKAbAIX4hms16C6vinJI6zAMVSe1h3pI0OyoGU7v8AN5YthdxnBAKmr4Ob6CRil7+BnJTcB2tU6m1WHt2wqXsg2aiLKZQ14o8ouJEq65tPMVXWf0JZTRsgyyIEtcXiK0UM6meKKwCSta7Lpwe1y14MKNLowRo2NbgLDiBrYDTuksdagANIbnHoygIcQNbQkiwElcLMhExKvjzkXqWQlofH1rDNWl3GRHjMIaLcMI1SAiUVeje1wxgAmZSUhISEBK0pLCws0L59e6OZRT8eSPbeQ+HJcnpZsSAlYF9vWJM6KGR5KMgqAJ9qX6pz76GooJg2Eyh0WUU5d65+cGzkQrl3VJ5BWYj8FBKHys6m4vAUzszaaORMNZdzkJ+WQeGh2vht0g1wgK2XO0SqQhSmpUDOwqEpJJNn6wF7Dy+qsWlJwdEylOZQ6YZ7yVS2ga4RWsPS1QfWYjkKqXafVFsvRgQze0/YOYkhSU8k75sUAit3rd6BpjADBTnZlEvIg0IpQLMhL+Dp95fhr/kvI2rvRgjNLCB09oGjuxupHVPJB4KUwvQUEmdJh5qFmut4ZrUAOZUAcvJcHL4Uj40kqLXw5R5wsX/Qm6OrbusPQIqhLqG4aP+JaDJjDZzzf8S1xdNQJAuHxztbENjGAbJ7NyEtKtJCAs/MDRa+jSHKO4JoKh2TEZ0Lm25rKonofIpimTWsuq5Fy/cHI2/DK4jZvIUUhClU1khHXQBIZporJKbDVFlZKGuv8H9CWU0XIBnQUSSBSxuYNQ6j31h6zhTHQn7rAuVVkzBmFcSoqrYkGODR8nPrDfOmHlDd/hvyyjVPq9bI489i65pSYigpnH6PFbWDUw4gazsb3PWVLcABJLcedGUBDiB1ZUmunSdZwBgAuXLlSixevFg7ND8/Pxw/TmUGdPYS8qQ7fvBzvQGkthtWgJ3EdCgPryzSmukBUOYrUw2l/FgmFlemlEqCM0zohv6+LCqa8vBIaZUvJHV07UaIDAo5vfBQvq1IW/+v/KB8WqVMBg0pngupvbKIL+qT8nFZfm6FWC+f5Q3TpgrL72V9qRQS6otPpUVYyQW2G0/9KkiJU0Hjor9jOb3acVN4JErLRQAAIABJREFUJ3vhErA8ZWpXVlyMwC79MWLRn9izcCKu79uoFcTTjp2SLMs86xS6TeAooP50GbpaccsMIPsSQPYigMyhvMaPfjiCZ7sEYWCHJtWb+CqebRoA2Q4e03+Hf5iSynIMQdyhq6R+X3YDGjXVA2358X+U8RiFuF1HIbCmNeDYCY1Gfo2AgT7I/OFFxP99AILgCDRb/D/wTn2OuPXfQCFieas0nzLanOi9FMHPdUP+r8/j1va/YNbhe7T4cEy5CusClCpp3bmOQcDCH+GYvh7RX7yHggJ52bo2wlFXAJKZhoWynonNwpxnCeDLQ1lNFiCZtol5AMy6jIBAeg1yJrxEQlMaSQE9N2hTVGehpuUA6T0Clm2aQhWzBdLr0bS/VdvaotQuPVthHQJxl6epmOphyCLP0nOTcpprusPFAaQRvuH1uEsOIOvx5Br41jiANLDBG3B3xgDIiIiI+yGsvr6+iI+Pr6cAWb8WlqykGE16DMVwyrPcvaACIA3rcaoMkCwv+FtSss2l/MWPx5FAFRPd0/FhGgDZHG4f7UHjVg4oOr0CGTcTtGJe5NKm2t1HUWw2HCEL5sLi6heI+vJjFMkDqIzHUYT2aoSic2uRcfkylfHwh2X407BxV6FwTwSSDm4njzWpqE48gmb9LZH8xdNUX/IilewgTznbhJBJgSZvIGTOCjhJtuHKzPehbPwl2n70DGRnPsfNr2ahVEP2FvrDcdxfCB3shpSVJMpz8KjRvJB1CSCLSymUdVsU3O0tMHVQCFU9IGynknfymOPk/aWw85oetEGkDZ+/v3tEUQCs7E9F2Cl9prkvxkabR7RB9I8HkSBLSRtSrHyfdq+JwJFtejHtALuesKQyUprbf0By6RJTyAKPNpb+OehaivbRUDQD7z7wsUgJ2jyjNkGwxqsojUWieRra4Lp/sDKCrJQfgznmgfQaSgAZTAC5A9Ib5QDJBDxJSO6+fgG7hjbY7l+kpL6146Z7Yu1rd+yYx5FBIv2HXAKNVRgs+o4DL2UXJOeOUHQHbZZU3pCrjs05gKyOtbhzn2QBDiCfZCHu86pagAPIqlqKO6+2FjAGQC5atAgzZszQDj0wMBAxMTEcQNZ2Ig1wvakBJLvlc9EpWLHzEuaP7wJ/TyedW8H4AMnKqZGXsdUouDTxIrVp6/IatexW5Si58Bsy7qrh2GMkxLnHkHnhKJU1sYRF09FoFO5H51tpvc/kgoEyLxY5lw6hODaKPEpW9KLvBusuz8PeKh05J7dQmRnFP99D8nqrzPzh0HEc7F0zkbFvB5RWXeHWoyVUCUeQfeE4FIwyFAII3frCtU878kxtQe7NKKhJPKymjp3aTGBdAkh2n1fjc7CMVFknUChr3xYetQdIFprJd6D5ICB1dCBwIugiTQBlWlIZsFGkAs8phLzGHvSvNEPSTKjSYkggqoSiGxjsWUPg1ZTWC0Uo5Kkh8PShsHk6R04RBU5hVPOTwm2pTJWSQuvVedFQpScTtLFNGwJMoROEnqFU+z0ZitQk9lflf+9K1wWDL70DRUYqQSBBnrUvRF6NiSkJQNVSqLNiocqhz7RMSeJyDwMkg0ILDwgbBYFPdV2pThClANym+0ouD+Wn70SjMFrruVRikMoFujSBwEIATdFdKJNvs+IRpEHQAiLfUBpjIFCSCFUW9SdJhSIxlvploFzNFcsBZG2+qty1D1uAA0huTejKAhxA6sqSXDtPsgAHkPoo4/Ekq9fNz00RIJly6ryfj6FDiCfG9g7TuWGNDpDaOyKIlBZSKPS/5bf4YisKGaV626Wl5FGhsGgLAkN2PgkZKWXl5djKJatZ+DSfclaZOnSZhDSFTksKteHMAktbgsfKL9EMKOhFXVJcFu5sTR4nVgakhLxAdL1AbKkNa9bm+ipKqH8Kd2ZjoXxvYxXsrmsAyWb258NxuHGvAHOfp/zC6L8hvXWsZh5IRl8CgqywfjBzEUOVTCBP4c18Fy9oUo5BcfcueN70WUgIlbciaMwqBN+NgE+UTbWM/4aqgHJfNZ4QdR1H14vo83RoCkiMriiHOfTAsw+DWaA/NFQDXplK8MXgLCeD7oC5Klk+IeVid3gBZrTZID20mcTjyIPNxuTaGxade0ITvR7SmATwnDvALLwT+PJEKNNTqXZOUwJDe2junYAs+jLBHukYeFNt5AoP5HXa7LBvDlHjUFpqhdRvMXgOBMF0jeoWedET/s/eeYA3VbVx/J+ddO8BLZ1AAdl7LxFciICooAKuT1TcisqSqYI4kSGgIihDhiIosjdl07Khe+89svO957blQz6BljZp0pz7PPjY5t5z3vM/N2l+910xMIoDIOv0NBSNqJ1WLuV656bS3O6QBDUFknZAcyUaJoemkAa2onHaQFR0BboUysHX5hKEJgopBRwg6/yjkw9YEwU4QNZELX7u7RTgAMnvD0spwAGSA2R17zUBIPs8jEfn/Ipts8dX5kDWXwhrld0rd0ThfGIOZj3dG0rljWF11V3Zrc+zDoCs/TrsYQRbBMjcIjXWHozDfV3CEZ6zD6UUklzzEFYWPkrgFfYwlO3awnBpNTTkCTaBIN/Vnyp/F1PhrRAoejwIccEhqI/upLRqAn637lAMHApx9l6oTxykxw4EkN1GQeHvSgVsNkN97iyNQV5LFobq3BsOA/rAFPs7ys+cJg82hX9eDxmnBwmUPy0KfQjKNuEwHF0JbU428aMTpK1GUPqkBJoD6yiv1gfyXk9TSmMs1JEboMsppFDYQMjbjYGiiRja42uhTaaeo8EsB7IqhPUieR+9KQSbKqmXZcNYQqCriICCQFemuIjyA1sop9sLsvZP0hgK6M9vgzbmDOVke0DW7mkoQ43QHFoHHRUfg0tbqAZSG5rUbSgnT71JzEJY7zK/knsg7eEjxXJr5ABpOa0b+kzWDpB6yq9g/8zUmrChb69VrI85G6QSVlnThBb+DnifCms4Ki1T/GL69OmYOXOmoIOPjw/S06kBeYMsomMVW11nRqjp6f89Q57AIzNXY8P7o3B17yb6Hln/ABkVl4mvNkbireHdcE+Yb52tlw3EAbJO5TTrYLYIkEyQ5OwSaEVyhGTtQ9nFuwBIFrpKHkB558chb1QOza7V0BeXk3OQQj+FvEEqoNT0CajuaQJD7E6CtPSK10QEXp2GQWo4D/XedVREqxHkPR6HzEsN7f6fqBg05S4KOYUEqK69oOrdA6aEP6GOjqY/HjeBF4U8w7EjlN3uAzL/oOI35PWThVPhJRpPd4iA7SjgNYS8kV1hit8G9dmjBHCs4jSrujqQitv0hOnqRmgIWtFkJHVAuiEHklqdCPmPLK9TROGmWgrT7foUFEEGaHetotRLFwJI8kA2LiJQXU9hrASmIE970ANQdgqH/tgv0FJrL3i0h7LPcIjSd0B95jAvomPWdyMfvEYKcICskVz85NsoYK0AyQKctAQcbpRf4OMih0pe2cPKmhob8jvr9gpUdoAoKdcjo0iLvHID2gc64YP7LQeQ69atw8qVKwU7/f39sXz5crNU7KzOrWDeKqzVscA2zjHRE3cDFano/fwsdBz+HNa+PQzp0dQ8XlX/AFlOrUhmrj6EYGo78p8H29epoBwg61ROsw5mqwDJRGEpg4a7LaJDOYEmZVMoOo+CzCOTAJIgqoTyGgUPIcGfkSopt36KvHH+FAKaSq03tJWft0KlGWrVcw26S0eINQlCBYAshXbvzxSuTMV42JPG6gAkW4GegR1BrHMa1Hs2w+jejYCyP0wXf4EmPgXi8DHUXzSIPKTk3bxAoanM+0chqyKfPlD26kPhpn8JYAk/8kB2ZlVYK4vo0INOyNwgdmtEnkgGnSpIgrtA4lYA7Z5f/gmQhzZSCGs+QTMBZPD9UHYMI4BcwwHSrO88PnitFeAAWWsJ+QCVClgjQOaqDXCSidEjzAVdgl0Q4UfJ7JT/ojeYapw+wDe6/hRgXxnk9FS5nHoURqeUYsfFPCEb6sMHg6g3oGU8kPW3+v+fmQNk9XZDpy6Fo1cAxq04gty4i9g0bTx9Ec0VWo1Y8rixCuuN867bdxFHzidhxti+cHNW1ZlJHCDrTEqzD2TLAMnEuesqrAwgqRquogsBpHcuNDvJm8h6fl4HSCqC05LCOZt6Q39hDdSXYqiIDvusZ1FEzKtH1UoZpBl8IOvOALIM2n0EkCXkVaw2QDICph60FH6qauUP3ZGfYXDuQ9GmbtCdWA9drh6SkEeh6kBgeI08lOeokiv77NBT0RxvAsjefYE4+n30caDRiP8BJMuBdG0OWbPekLhSGGtRFhXuUVBRnBBqZZNOoLqWcn1v8EBygDT7+4xPYAYFOECaQVQ7HdLaAHLR/jQ4KiQY290PXUJdEJNRhhOJxcguYcnz/LAlBRgsSulLQaCHAn2bugpRQecIJNs2cYIr5ZlY4ti+fTt+//13YSpvb2/MmDGDeyAtIfzdzEFfMA0UPmakQhM9xk/FvROm4ffZL+PU+sVQuTlbvGDKrQDyWnIOPl5zGM8+2AG9WgXezUr/9RoOkHUmpdkHsluAZN4/nSOkbR+DItwT2iMrqOJpLsEfK3BDHkgTQZrv/RQ+2hmmRMr/O05ePlZISchBYf8okkjMeiXWEiBZ0RxFcyi6DqJCPdEwSppDKoqmcNEjFIJKf1s8OlMI6f0QUx/G8pO7KUeSeklS6K6EoFPZPgT6s5QDGRNLEEohrEIO5GaUR1+FpA3Bb4Qf9Md/JE/mNarZQ6G33Z+hEFYTtLtvCmG9LUB2gLIfhbCmkKfzNIWwikmDfxSOqsEtynMgayAWP/WOCtgVQApPrFhsPCVXV/UbuqNCdzhBGJM+8FgPn7oas7Y21dP11gSQkdcK8NPRdLzQNwBtGjti1dEMHI0rQg5V4yPnY0X173rSiU9bcwXoqwTtmwly2rgggsjh7b3Ro5kbhSYbIadcE0scU6dOBesFyQ5PT09kZWXVaw7k34tm4OiKGZAq2FP5GpZzt4Rg9TUH+/JJuali6tHW6Ym3CR5n4NLeLdgy+znyHJRTi7i677t4p6XeCiCNFGY3Y/VhuCgleHNEN7K5bu5lDpB32hHred1+AZL2gPo7Mk+eovO9EJceh+bUPoo8daWKpu0gKmctN0oh6UCFZjwN0F3YDl0qtcBQNK5oa2FIgC72Cv0hbwRZTypO400hrLspB/IfHsg+UPXrRfmL5CU8G/X/OZDsNhBgVQ4xtZBRNg0AqOiN/uJmaFJyhLYhrMWIrBVBbqCcbNhKlVCpWqp7Byja9oe47DRB3S6q5mui3EVWRIeFsP6K8qgrkNzzJAFkAAxRa6BJLSDvYyfI2/YiD2Qq1CzfU+0KWcdxUAQUVuRA5lSGsIZQUZ8OlAN5fDWFsMZTl5JQ0mcMQe0Fmov6QEJJ1YqpKA/BYI0/9zlAWs8bvyFYYjcASY1lqbY3JWkX0VMsV2o8TGW7a4sQrAePvhT6Mkr8VrhQb1tWSa8OsISgVEyNZEWUqW3UUZiHjdxo1gSQBy7lQU19kga09MRy8kTuvloglLyWU8gL/6ptIzfUv5jJntFoqHKeO+WzPtPND31aUN8wCx3W1gfywKqvcHr9AvrcYZ9l/K4Wvguy/9CXJJ8W3dH1idcQ2KoD4qj335/z30BR6kXKfXS0uPeRmXQrgGSvbTl8BduOXcXM8f3h6143uZkcIC30oVAH09g1QLJ3LCuW492Owj070HMfDTkYCYxKU6GLO0V9HckjqQqENLw39YGkz3odtdlgPRjzkmFIiaK2GwykvCHt+DBk7uXQRW7+Zw6kM3kPu3Skdht7qd3GZQLIf0t3IBvoD4uIch8VXXtAVHAOmrM7YVDTdwUhFJb6RcppjuCekPv7Em9q6PfUeiP7PNl4lsyhkFlqCyLyvw/KVgSMV7ZBk5hC/SIJdJv2hsyf2n1oaYxSajECatPhVE6VW7dQCKsTgelwyP2oGNGJv6jfKSuio4Q4oB8UrYOgP/M7dKxliIi+C3oTfLYkfUSkT+4ZavFB1Wrp72CNPZEcIOvgHcuHuK6AfQAkAZnciLKo5Ujcewmug96CXwQ1m2WeyLumM/pwkUuhi9+AxN9+g7zbJAR0aUsNadkHYC1uMAa6+mJocqnfkMgTKk9fIaLDFijSmgDyXFKxUDAnNqsMi/enQ0ebwkIg+dEwFGBtPAJc5Xjj3gAE+1BeqwUOawJIlgNUWpiPcnp4JappM2kLaFU/U9CXQAprUzg4CN7H0vw8XNi9AZE/zYWmtLAStOvHstsBZG5BKd7/cT+Gdw/H/V2b1YmBHCDrREaLDGLfAMm+2zAPIGMweWWOI/UDJc+kECrE/mSzYjhiAj+JTAA3erGyuinrg1jpsaeH7qy2gXDuPw4aQLiGzXGnL2Y3nsvGqfq+wCCX/Uw2UP7jdRv0BI7s11WVuJktVfYyG9g1zC4prYtFPFVVZK3Kz2Tn/Jvdwjjsgiqb2fyV+lRFuxmY9/EuDg6QdyEav+SWCjR8gGR1/ylmPXs/krZS3HnjJxDcfwBkEvqQqlXIaSVAxq1D/IYNkPecgibd2tcaIEUSKqRQeBhxa6agWPIAwp+cCCcnarHMmsZa+WFNAJlXrBUaTH+7NxVRKSWQUZgjx0crv4FqYB77LsAgcmQHLzxJnkhLHNYEkEb67IqjfJjUc0cJltgTJn53C9/H6D2v02iQl5aCpLNHUEiNySX03hfTl8/6PG4HkMwulgep1+rw4dN9qANB7cNYOUDW527XbG67B0hBLgZJNwIefZ7d+GBMALgbj1u8XgWU10+tGvem8/91i+5w7vXcy6qLbx6z6vpKkBSWdaPd7DO6co1Vdla9/g+7K8f5t98JU1dnLbe4BzlA1uzNyc++vQINAiDp6RT7giA8Gao6KDHaqGPeQAIHKrtszL+E4owSqEIopEGhp9LPlU9whBxGWeWXMPZ+p1xGelJUAZcEiSyUVFQBm+y8iidJWkqjNFR4IOPWI2HTJgLIqWhCyd5SESvcQJ5NPetxRF9cZBReRv2OjLrKwi1imotV8TJQGAarBMqeutHTcmEOPYWrsodO2myUJJ6mHktN4BLcTIAf9gSuYn72dI7GZyET1FuIhbiSkcI8IprHwOZhD+6Y3awPEYV8XF8LG4M9QWOLIO+rUVhn3YGpNQEky43LoXYP83ckI6VAA4WF8uT4543lFCjRGDCQquVN6EehQnWUO3Y76+fOnYvJkycLp4SEhCAmJqZecyD/+noqDn83BzKqqcCPCgUqPrUr6nBIZJTXxMDRCjy0dwLIYxeS8N32aEx5sgdCGnnUejs5QNZaQosNwAHSYlLziThA8nugLhWwbYBkMerEYqXJKD63FfkJyZTwTGBFT6FNji3h3X0EXL0kUCccQd75A1CrKbzJtwfc2/WEUsW+WNAXDg3BGiVG5167QhETUiiaPQyf5u0hd6R8RmMxSs5uQmFpODwjVCg4sw1l+Uo4txkBj4gwimYQQxu7DgmbKYS1w7NwdUlF3uUYyALuhU8Xipcvj0La/r+oSNgQNO7aUXiybMg6iPRjuyAKHQ3/5k2gS96L7Kj90GiD4N71Ybg1aQKxJhl5p39DqbQtfMlWhYwaz6YfQc7p7Sgr8YNrh/409lkU5TaBT58BUGivIOPgRpQ79UbjLt0hV+hQfv5XZJ0vgEuv0XBt5E5wSdCcG4WcY9tQUlgCiV8feLfrBUeqSFhXEGlNAMneI5dTS/DN3jShcI6MlfvmR4NSoJTySvpRIZ3/9GkEpdz8hVHmzZsHVkiHHWFhYTh//ny9AuTOJbNxbCUrosMIkt/f1nxz3wkgyzU6vPPdbtzbJhCP9m1V66VwgKy1hBYbgAOkxaTmE3GA5PdAXSpg0wAppifMukRk7/wWmTFUJpl5/nXFFcWpvAcieMQrUOVsQdKubdBqyePHvIgiGeRNx6DJvY9AaUpA9p5FyLx0kVoBUSlnFlsvc4UTNY5tNHg4HJX5yNs+GYln0iD3cIaxLJcqZ1HVMEULeD/4Dhq1CqUqYOuQ+PsylBmpGa1UCy0r0iPyhnuvt9G4kxMyfnwbufp+CB33Nlzd9Cg68Ani9sfD+4lZ8BSfQvJv36OUeUMpUVrqNggBj/8HruKLSFj3LvIVj6LZiBehLD2C1C2fIzedqnSJKfHa2QmmMqoQ5j6Gxn0eDqWHELN6Boo9n0aL4Y9D6ahB0a7piD+cDp+R8+HX0pdAdyvSdv2MkiLySLLAfZpPRtXPGj3wHFxcpXUSImttAHmOWnZ8eyAN+WV6DpB1+aFhJWMxgOxfCZAKCwBkUlISEhIShNUrlUp06dKl3pRgARL7vl+AA0veIw8k6x/IAbLeNqMaE5fml+DeV6ZgwIRZtzx76ZYTuJpehM9eHFDrvFYOkNXYFCs5hQOklWyEPZjBAdIedtlya7RpgJRQxaqSM0jcsAAlzn0R0LkjjElbkXLoClwfnoPACC3SV00mD1QofAcQEDppUXLmF2RdlqPR05PhXPYn4n5dB2mH1xHYl6plGdKRv3c+Ui4Z4TNsJhq3cEDen1OQFF0Ij/6vwbd1UxjiNiJ+61oYw19D8+EPA/EUwrr5O6h9hyN4MJWB1kcjdfPnKHEbibBHn4DxzFzEHU6Gx8OfIDC8DKlrpyFb3QfNRo+G8dK3uPrXfjh3fQl+raifUGYmVRsjryBikLx5KnIVQxHx0Ajoo+YhZt8VuA14D43bhkGfshPpv/8AjftoBD89Dg5lkYhb9ykB5BNo/tCjUDpoULz/YyTuz4TXE3PgFyJGLgFl0pliePYfD3c/RwLKP5AaeRXO932EoI7hFDZb+96I1gaQ56mQzrdUgTWPA6TlPlAsOJOlAfKbb77BJ598IqwwODgYBw8erDcPJAvVPPX7Svw+fRyU9ECJH9asgAnl9ODu3omz0O/5D25p6KXEbHy6PhLvjuiCVqG+tVoQB8hayWfRizlAWlRu+56MA6R9739dr96mAZK8iWIjhShun4uU89QPSDjk1JT2ITQaRJ48HMG11fNQWkxtNv5xhKHxE5OhzP4JsXvS4Pf4TPhHNKbqp2poLq7A1U174DxgOpr0boyCLVOQFu+Jxk9OhrsXVXssPIpYqupXInkQTV98FtKktVREZyPkvVgOZDdISs8SQE5DnmgwwoY9B2XZHsSv/BLa5v9BUFsR0jatgLHNWwjr0wMouYicoz8jn8JnjU4t4NbqYXi16QSZ7gIB5PQKgHzgQZQfJoiN80aTkVPgRfBnKL+IjO8/QL58GAHkeAJIsmndPILWUWj+yAjyQOpRcmAuEvamw+vJufBpXIxMAuGMi1QS+h+HEk7dZyJkYEcKm6V80VreXBwgaykgv7xGClgaIFkPyKoQ1qCgIMTFxdUbQDKh4s8cxtp3hlMbIeoxRpX++GGdCujVpVB5BWHYrDVo1qnbLY1kYazTvt+L5kHeeP6B9rVaDAfIWsln0Ys5QFpUbvuezFIAGZuQignz1uJsXAYcFPVbwcy+d9y8q2cA+f7TgzBp3ANmnYjBibpci0m/RGFrVAaclf/Wj6cmJlD+IxVIMBaeQMa2H1GmagWXQGp5IfOHc3MqlOOogqkwEkmrZ6NQ3wTubXtAoajMkxL5waVVaxgur0DsjmNwvW8Wgnp2gcSQhYJ9c8hjmATPh+YgoK0L8v+YitRrKviP+BDe4Y2gu7YaMb8uoWquL6HZqOEQJa6pAMgeHyKwO41RGoXU32ciX0wA+QjBnTwDOX/ORFqKCC7eCpQmGOA5YjJ8g52hzU+mTo9ekBmTkBe5DOnn8uH56Gdo0qQQSZuYB/JhAsiHoT42DQln9fAdSl7R1sHQp/6N5B/no9R9FEKYB1JzAgk/z0GheBDCx78GZ1Ue8reTxzGyBD5PzoF341JkbpuEjBgJ3NoOorxH0kYonuNIzXE7w9nfEyIqC80Bsib3Hz+3vhWwNEBaUxVWpr2OogZ2LpmLQ8s/gspJQTBL1abre1P4/NcVECr6U6EynVaPzk++gyGvzaa8eVYw7dbhxhsPXMS+cymYO64PnB3vvjoSB0jbuREFgGz9KFq8sQQyJ9uLJtCe2w7tlQNUVNAy7ZRsZ2et0FJLAWROTj6enbMaRy4kwknFn25a4a1QJyblFZbi45cfwSujBtTJeLcapO4BkrJ+qPygMWsnhZAuh1bVHI7UaFZEbxCxYzu4d+gBByc1CnZ9jKRzWXAKuwcylidFiZIih47w7tELsoJDSPr9cxSW+8CpUQAkpmKUp1yC0Wcomgx9Fi7OJcjfOROJp2Ih9w6Dwt0FxpyLKMlRwHPoDAS0a0pA+TMB5K+VVVi7Ch7IFPIe5ovvJw/keAqbNUJ9dT0SNy1HOaVZSkLGIGToeDg7FKPw5PdIoS8LKm8KVyq+gsI0LTwfnofAwAIKy/0AecwD+cgYiBJ+RNymddB7tKA1ehIYx6M0PROyxuMRTKGwDqJEZG2ZjbTLeVCFtoBMXApN+iWoqfhPoyemwifcCcVHv0DS3tOQh3emL5vyisqsKh+4tB4KV3cV5YfWvhor90Ca9S3EB79JAXsHSCZHUU4W9iz/DOf/Wg4DeSLZQzV+WIcCJvpbxCpstxvxBvo9+x5cPO5cXTUmNQ+zftqPFx/qgJ7UTPxuj6xjuxH33QRqtJ4qVOTmh/UqYNSVw73bODSf8DmkKpbPbFsHB0gb2i9LASRrVDxuxg/449A5uJA3hx8NTwE99RZUUhXTRZNG476ebcy6QHMAJGs8i7LLyP77c2RdS4KxoscGrUMF5T1UKGfgY1Ainrx765B9fDfUVb1XXYYi7Kn/wNmdvKIpR5C770fkJKbS03sXOLUbBZ8Og+FMMApTLvJ3zUH6FSNcIpqg/PKfKCulaqk9x8O/SzfIHaTQUk5k0h9bIO/6DlVApUqrpeeRtu0TFIjvRfADT8LRkSqvFl1AxpYPkZXoCI/BkxGhyvlLAAAgAElEQVTQ8R4KvdVCn3sKmX9/h5ykRJjc2lHl1sfh1bYL5NpLSPljDvLkQ9DsgTFQickzenIl0o/+DbUoDG7tOwAXdlDV1REEkE9CJdVDl3kEGbuXIDcpj4oEDYdXY4LncwVwG/gfeDVtBFFpGkoub0PGkd9RWlRWsdfOreE/bBr8AlyoiNBdNqa94a6xFoBkxZTYrcBzIM36lq73wTlAVmwB80QmnzuO5EtnhWJgt/Nw1fum2YkB7O+dlFom+Yc3RxBV0pYrqgdxevoc/nTtETg4KPDm8M40yt0VRypJScCVL8agPOEExErb82rZyW1CyzRRSkoJAscsQPDwiVbRcqam2nOArKli9Xi+pQCSLXHD9iN4d9EWaKhfnVxq/jLp9SirXU5dQOGrgzqEEUCOgbcXAZMZj7oHSOqxSH+Ty88sRuK2Q1B2fw6ezQIhKktA7oFvkG+iyqePvUWVTynMVVsqfEgLrR3ZQRVIJVS5kPWNFFp+qIugF/o0SuiPrQv1D6P+iaxQqagA+TtmIZ3lQI56Gy4O5XSeGBIHZwoXM1V48YwaGCh/EDJHalhNYbms/yTNZ6RcTIlcSU9/qc+jLhnZf36AtPQwNBkxCR6+5DmlyqusBYlJW0YNpOl6iQpSpQPNSeNS2NP1MRSqijwrmkdPazBJaB5xMrJWTkWBgnIgx4ymhwCsiivVVtUUUx9IIy3Plb68UNuOcjXZRddTo3ERa4xGAbOGclalthIWqYqtRM50uLsvKTffLtYCkFV2cYA04xvaCoa2NEBOnz4dM2fOFFbu7e2NjIyMes2B/Lct4CGsVnBjVv2ZuUtTtkbG4LdDlzBnfD/4ejrXeBT28J89RIhbNQcpG2dAomD9f+8+HLbGBvALqqcAfckwqEugaNQJLd/9CU5Bzap3nZWdxQHSyjbkduZYEiDVag1enbcGG/ZHUcidkr641s0XTRuSu8Gaqqan1i6U2/rxK8MwYpD5y9HXPUBSDqRMBO2136g9xVoU5hdU7pUYUvcIyvV7Gr5dOkFK0GQCA0WCsOuHkSCtyuPGekkSXFXlpbBWHiycU0TQJaI2Hls/QGqMOwKeobYb3gR+rEcI/WN/pCtglI3NQmNpHoFQWW4mA0mag/4xONMl/Ya4X5bA2GwCQh8hr6hYI7QUEc69PjeD0apxbxhD6EnCTmUQSGtg51N/ydQlb6NA+QRCnxtPHkqam3ndKAdKeGDN1mBiY9MP/2brdR3YnBXX1sXBAbIuVORjVFcBSwPk+vXrsXLlSsG8Ro0a4bvvvuPevupuFj+v2gqkZhXio1UH8Fi/VrivY2i1r7v5RF1JEWJXvI3sQ+vpQWURQSR7iMi/w921oHV5oYHyWURSKAM7Ifip2fDuMrAuR7foWBwgLSp37SazJEAySzOy8jB50Wb8eeQiTPQBpLj+IVRH3zprJwe/ukYKiGAgWigr18CLii7MfOEhPPFgzxqNcLcn1z1AMksI3kRUpCAnGnmXT0OvofAtuQ8cqBWGiy8V1GFewrulIwaGKEfZ1Z0oylXBtW1/qBwkNRuPoFREAKtNOYDsK2lQhd0Lt7DGELGek3d7MLelPgvFJymcVXoP5Xp2oJxHBqv1/37kAHm3m8qvuxsFLA2Qd2Mjv4YrUFMFDJRasmDjcSE0edIT3Sma5O4Lzumpsmvm3rUovnoA2kLqIyw8HOUQWdM9qdPzmYeYiik5Nm4Br96j4RLavE6Ht/RgHCAtrXgt5rM0QDJT8/ILsW77cWyiIhwXkrKhF3KM+IdQLbaxXi410B8Pb2cl+rULw7D+HTG4V1uL2WEegGTmE6RRkQCxjEJFK3MgjTo1Od4I0mrNVDQ2VRZjIGrUlN21p04kVVGoqAwmXRmFmLJQ2dq+d1iorSONQp5MihKo9TLr6C7gAFlHQvJhqqWApQHyr7/+wm+//SbYxkJYZ82axf8OVmun+Ek1VeBAVAK+3x6Fj8b1RbCvW00v/7/zjfSlTVtMUToCQNZ6OD5AbRSgP9hiuQLyBtK/lQNkbW4GC19bHwBZtcTElCzEpOagoKgUFCHHP4csvPe1mY55qGQyGQJ93NAskKqOOjvWZrgaX2s+gKyxKfwCMynAAbKGwlJYspi8CyIKIzYIIdUioZ8fxQlQZDELvebH7RSwNECyHpCsFyQ7PD09kZWVZXU5kPyOaRgKFFF9gknf78eg9kEY3rtFw1gUX0WDVIADpA1ta30CpA3JxE21MgU4QFrZhpjBHA6QNRBVCJHWQpOXDZ3YGQ6uLsLP2qJcCnp2gNLZBWIqjMSPWytgaYC0tj6Q/N5o2Aos3nISCWl5mPncQChkvIhhw95t210dB0gb2jsGkGE9IL+Hcm5ZOlQ1DhF5n/g3kWoIxU8xnwIcIM2nrbWMzAGyujtBlXypMmL5lV9wcPFPkPedgh7DBkBGPUSjv3kd8aKH0OuVN+CtolYvVAG7xgdLMaDquzIlVSBWl0Iv5Nw2vLg1DpA1vjP4BTakQNS1NCzYfAofUh5kRBMvG7Kcm2pPCmij/4KWcmxFcstGtdmTxnW2VgaQzfpA3qIvB8g6E5UPZHYFOECaXeJ6n4ADZPW2QGj2XnwO0SunI9YwEH2fexHebgrqFxqNqK9eQZzoEfR9/Z2bAFIor3ubCapeZxV8yZeZFU39S5OFglJefpRDVVXN97YmVkHmXUBr9ZZep2dxgKxTOflgVqYA69P83ne70SLAHS883MnKrOPmcAUqFNBe2AXt5X300JL1Om14Dyobzj7T33W9FopOj0EaSH3fq7lV3APZcO4Am10JB0ib3bpqG84BsjpSUf9SKvgE6leafvEKhZP0g5+3jD7XqWJw2QXyQE4kgByKPhPfqgBII3kr6XzWy1NoDUM9Qlmz+Iqgkoo2MGy8il6hlEup00NMTciLD8/A3ws3o9Hz69FjYCsau4AyK+WQyqmSMDUrr2g1Q2NRpUeTkItJPUGrev0a6fdU7MnICm5Y8WFpgJw7dy4mT54sKBISEoKYmBieA2nF90dDMO2XnVE4EZOFT5/vDzlV7uQHV8DaFDBkxkFzehP10y6mftb0cJQf1qkAfXcQObhTz/TRELv4VNtGDpDVloqfaC4FOECaS1nrGZcD5J32glUMNkGdehKJBzciPbscSvdOCBk0HH7+njCVRCH66xsA0sFI1X/TkX50PS4fOwm9qgn8ezyJ5u0iIKUen0JHl5J4pOxcibhriTAG3oe2Qx6CQ/rfOL1mMVIof0ru1xweQfei9ejn4ZL9B6L2pcG78z0oO78dBdJ+aD/ifjjQHFnRv+H8wUMU7iqHY9jDaDFoINxcKSRJT71MWaGfyqeVJqpubC1gaWmAnDdvHqZNmyZsclhYGM6dO8cB8k63PH+9VgokZBRgGvWEnPhge3RuGVirsfjFXAGzKEAPGrWX90N37ZDwEFPoVc0P61KARSBRtwJ56yGQBbWvUSsfDpDWtZV2aQ0HyIa/7Rwgb7fHBHwyMTTXNuPY6qXIKSiqqLxqkkDS5GF0G/8OAlwTcPbzCYIHsu/r78FbGoMra2ci6uQlOpc1nqbCO2IfBA//CO37dYOs4ASif/kIF09dho7lPVIPVL8eb6JleBzOLFuKXCP1GyPPpMJnKHp+8DHcE77Brm+/RYnCB1KjBqqQN9Bv4n3I+30aTu2PRCm1hBGxMFmRCs5tx6Lrky/BzwPQFBUSR7J3MMvddIKMWtLUQY+cWr8hLA2QycnJiI+PF+xWqVTo3LlzrdfAB+AK3E4BHYWxzl21Hy5ODnhzZFcuFlfAKhVgkTG62OPQx0YKUTLW8PfBKoWqD6NY31GFI6ThVDwnpGO1cx+rTOUAWR+bxuf8hwIcIBv+DcEB8jZ7LJKR1zAT11a8imNHSxH2xOsIDXFBUfQvOP3HeQSOX4zO3aS48PmLiGUA+eYHcE3/Ads//wSakGfQeUg/KNRXcfXXL5CoHI0HJr0C+cVvseur5VAMnIOeI+6FNCsK6XE6+A3oAe3hT3Hgp93weXwB2vdoDaWjDCWnF2H/kq9Q2mwC+o4eCy9vF2hjfsGBhfNQ3uxN9H7qcbgp8pC8dToOb4tF+Pjv0L5dAU7PHIeruawQjydChi1A12F9INOXQ2DKejwsDZBff/01WCVWdrAQ1kOHDnEPZD3uv71M/WfkVWw9HofZY3vDg0UF8IMrYKUKGMsKYcxPA3TaaufYWelSGoZZLNWFwoolngEUvup6V2viAHlXsvGL6lIBDpB1qaZ1jsUB8jb7IlFCVn4WRxa+jauXEm460RGho39E175OuPjFC4jFI+j39nuQR8/E38tXoLT8ptPdx+D+j96A8dhH+HtNItq8/R06dm5MFVcpt5FCWyHSoyByPvYt2w6/sUvRqVcLglcdik5+jX1LNsLj8UXoem8nKOSlyPprKvb9uA8BL/yEzv3ugVRiQNm55dj7yZeQPvQlet4bgJTfvkFqAX0hgCt8uz6N8E4tIDFqKQ+zfu9DSwMk6wHJekGyIygoCHFxcRwg6/cWsIvZ03NLMPWHPRjZpyWGdAm3izXzRXIFuALWoQAHSOvYB7u2ggNkw99+DpC32WOxAjJjHKK+fQVR5zQIGDAMvt7OVBeHCtWIXOHRqj+8PTJx7quXhSqsDCCV5+dg23crgMChiOjYEhIqoiMkI7q1RViHZijcNwM7fj6CoKeWoPcjvSHOvYacpHw4tWgK9ZFPsXfFX/Ad9yN6DGgNkaEEhScYQG6A+2ML0WVABwJIHQoOE2guWQ3VA9+g35PD4KwoRPq2Kdj9wy74PfkNut3fHXIJhc4KSZCUk6kth54K7FjD42VLAyTvA9nwP8OscYUs1H3Br5HQUMT7lCe7C2Hp/OAKcAW4ApZQgAOkJVTmc9xWAQ6QDf8G4QB5uz1m+YNG5O2Zi73rdkAV0R3uripiMnpnSCMQMmQk/CgH8sx8FsL6CPq//SE8ynbi8GfvIMUUgYBmwZAQwLEUReU9I9G6SwcqWrAGhxZ9hCxjOHxCgyApz4Xe+RH0eOMZiE8uwO6l30Lt0RF+TQej5ainobpKOZAL11V4IAd2AKVkwph7BKe+fReX05XwadoMSkkZiuJOo8zxIXSbMAlBgU5UqZWFr1rfwQHS+vaEW2QeBQ6cS8Kq7WfxwZheCG1Eicn84ApwBbgCFlCAA6QFROZT3F4BDpAN/w7hAHmHPRZRNVNDOtKOrsXFTcuRUVQJZuJe6DzpM7QIz8e5L19HvOgB9HxpIrwdNSiN2YvLu3/AxSMnqQ0HO8TwGLIAA0cMhYM4H/mXtuH8+qWIS6K8k8DB6DjiLUS0C4eo+Cpit3+KU3/tg8l/LAZOmQznuGXYv2wT3IbNR8e+rSGhwjwiiYk6ihxGzK5FOH/4DM2hhEunZ9HpwVHwC/KHmM6p50jVW4rKAbLhf6bwFVYokFNQisk/7MOgTmEY2TuCy8IV4ApwBSyiAAdIi8jMJ7mdAhwgG/79wQHyznvM+i+KqP+irqSqsim7hgrsqBwhkRihLy8hP6McMqVKCFVj/R+NmmJoyqsSIUUQyx2FSqgi6t8oEpugLy2EjnpDQuYEhUoBEQuLpVLqJn0pNGV0ncQBcgclteQoh65cAzFVUpUKPeVYxVU2h7hyDrUAqGKlKxRKKVXTY/0m77ym+jrD0gA5ffp0zJw5U1iut7c3MjIyeA5kfW2+Hc678PeTSM8pwpQxvaFS1qzfnpHa8RjUZcJ7+npPHjvU0FqWLJYp6DOfPpP5wRWwcgU4QFr5BtmDeRwgG/4uc4Cs5h4L0EYgef10yi0UYI1afQi/Zz9X+BtZrqGIYJDBZNX5Juq1db0Xo9DaQwIxy1E0Gej3huvQJxLTWCxfiv2ejUfAyWCR9eoy/qOE6j/nMJnodWofYO2HpQHy119/xU8//STI4u/vj6VLl1bmhlq7Uty+hqDAqSupWPjbSUwa3RMRgV7VWpJBp0d+9AH6tx/qzGQBIoVCW/yoPwXoy5DM3RvOIa3g0X4QHANCyRb2DYnvS/1tCp/5VgpwgOT3Rr0rwAGy3rfA7AZwgDS7xHyCGxSwNEBy8bkC9amAWq3FpB8PoGOoN54e1OaODy/0Gg2Sfp1HRbG+peJXufT8iEUtVLJKfS6Ez00P+eihnt4EVUB7hD4/D55t+xJDsogQDpH89rAuBThAWtd+2KU1HCAb/rZzgGz4e2xNK7Q0QP7555/YtGmTIIGPjw/mzJlzxy/x1qQXt8X2Ffh51zlEXkzGxy/cCyeV/LYLSlz/KZLWToNYShEMMh4uaY27ry/Nh0NQN7R4bw0cGwdbo4ncJjtXgAOknd8A1rB8DpDWsAvmtYEDpHn15aP/UwFLA+S0adMwa9YswQhPT09kZWXxHEh+U1pUgdiUHMxZG4lXH+mIDk39bzl3SWoiLs9/DOVJpyBRudF5VpzMbFEFrW0yEwzlZQga+yV1a5rAHZDWtj3cHqrZQAfXgStQnwpwgKxP9S0zNwdIy+jMZ6lQwNIAyftA8juvvhVguc/TVu6HL7UAmji82y3NyT6+D7HfvQRDcTJEUkV9m83nv40CRl0Z3LuOR/OXv+CFdfidYnUKcIC0ui2xP4M4QDb8PWcAGeiuxOej26J1WPWKPJhTlfNJxfh2fxryyvSQSXhuyc1ai2RUnVUhg0FTAj3r9Whj+TccIM357uFjW6sCfxy+jE2RsfjyPwPg6kS9ZP/lyD62B7HLJhBApnCAtNaNrLTLpNfAufVwtHhjMRXSdrJya7l59qYAB0h723ErXG8VQL6z+iz+PJcJF2oTwI+GpYCaADLEQ4Uvn2qLiGDPel8cB8iqLRBDwlp3UJsQnZrahBipFYjYiPK000i5kg7npj3hw6o6Xq/8Wu9bVy0DOEBWSyZ+UgNTIDW7CDNXH8JT/Vugd7uQfwfI43vJA8kAknsgrX37BYBsMwItXl/EAdLaN8sO7eMAaYebbo1LNlBrgOlro/BLZDKcVTXrY2WN6+E2/VOBEo0e9zR2wcoJXeHmXP9FG8wLkKz1BWudYaLsIvr/yvKGJtaDUWi9Qe0yWN4Re70qg4C13LjRy2cy/u81JiW9JqJz/nFUncOupfGEYu/COTeNLVxUaceNtoikkJiKkXV6PRKy3RDe51F4urBqjGXI+GsStq/dgcARq9H70a4Qq8tp1Eob2bzCXGyNzE72A3uNTV35s7DOSg1uzJK4vs5/s7Hu3jWWBkhWNGfKlCnCAkJCQhATE8NzIOtuO/lINVBg/ppD0NLba/LoXhwga6CbNZ7KAdIad4XbVKUAB0h+L1iNAgfPpWHS2nPILddDKb3py7LVWMkNqakCeuorSB80eHlACF5+sGVNLzfL+eYFyEpgYz0aRabKvo3U31HKPOsEWFV9HSv7MP5rFrrQv5FdS9DJekPSuazH4y0z1lkfRwI2YewqSKVy8FVwx3o8msiLKABr1XiQQKJLwYUfnsLJy03Q692laBogh06ngzYvFrmp+VA2agE3L1ehCxmDVKHHZNVct7Pn/3aN9bEkPQgwK/pUVvaXZH0thZ/r9rA0QM6fPx+skA47wsLCEB0dzQGybreUj1ZNBfZHJeCnPRcw95k+8PV0/r+rsrkHsppK1v9pHCDrfw+4BbdWgAMkvzusRgH2Zfnz38/jx0PJ0JFVCoJInp1mNdtzV4YweFRrDege4o5vnu8EdyvwPrKFmAsgWT81U0k0LqxZjiKPAWjkfhbn/94NnUt/tB32GNyNUYj6YxXyCrwQPOQN3NOvGxyk2UjY+DFOHTgCyjYktlLBqcNYdBz8MLy9XQn8ilF44U9c3vETUlKLIKay+xIKOZW0fh0DhndH5t8LEZ8XgLAIMWK2/owCfQiaPvoqmnVqCwV7DiMyoDx+Ly7+vRQJVzOhaNwHzR94CeFNVUje8j6O7oyEziCB3MEFLv0nY+CwB2C4sAqRm0/AZ+i7aNU5FKa8c4j5cwnOHT0BZfAwtOgWiJTDx+Da/w20694EeXvn48SWawgcMwsR7YOB3OOI/uVjpDsPR48Ro+CqohDZ0gQk/70YF/cfRhmaIHDgU2g+YCDcVFKCyLqt5WZpgExOTkZ8fLzwHlGpVOjcufNdvV/4RVyB2iqQW1SO6d/vQb/2IRjZ9/8f2HGArK3ClrueA6TltOYz1VwBDpA114xfYUYFytQ6fLvtEjafTkdGkUYIgxPbWAEPM8pjM0MzR5eOHgi4KCToQvD43rCWaB7ASsZbx2E2gJTKYSo8jaiFz+N8jA4OfoGQi8tRlplOD0UkkLn4wcFJCnVmErSi7ugy6XO0CBMhccuXOHfqHERy6t+mL0JxegacWr+F3i+NhzJlLfZ99RkKlf5wdhahLPkiikqN8Hz4awx6sA0SNryOyF1noPAIgspBTN7DVJSrOqD9iwvQtpUPSq+ux5FFX6NA6QNHJwWM5TkoKgpF2+dehmPCckT+tRvlGhkcPHzh1ucd9HloANSH5uCv5TvQ5Nkf0P1eXySvehsH/joKqVcjOFCOsr40A8UFzmj2n+/RgzzLWZvfwN410Qh7eSXa94oAMvYg8utXkOT2Aoa8NBHu4mu4+NP7iDpfAGcfTwqdVaM8KwPKHtPRb8QgyAmd67IguKUB8uuvv8bcuXOFm5uFsB4+fJh7IK3jrW5/VtBn75I/TiIxpwRzxvX5v/uQA6Tt3BIcIG1nr+zRUg6Q9rjrVr5mA4XaHTqfgR3ns5CaXwa1hkLvyGbujbTyjbvBPIVcAkfKZe0S7I7HegTB0eH2ja0tvTKzAmTRGUR98wIuF3dB11fmo1lQMS4tfhbHThYjePQ36DW4NbJ+fwv7fjuLJuOXoVuPFhCbNChPjUJ2ehbBWRzit/2AHLeR6P/6FLilLsefC1fBqQeVc2+mQtr2hbic3xkDP/wUwW45uLB6AiKPlOOe8d+gU68Q5Pz9Ibb+EomgZ5ai/31BSFk1Aft3xMB3wPMIb+YPTfJunNu+HcrBX2PIQ20Rt2YcjlwJQL/Xv0KYP8GhUY38g59h17J9aPLid+jUJhn7330NWb6j0f+dd+DvWITk7R/h0NbzCHp6Kbr3D0H2H+9h/+oLCJ34Hdp2bwpk7sfxRW8i2XU87nvxJThkrMGumdNRGjIc9wzqC5UhBYnbf0BacS/0mvIRGrmK6tQLaWmAnD17NqZOnSrcxkFBQYiLi+MAaek3NZ/vugInrqRh8ZaTePcxakQf7PMPZThA2s6NwgHSdvbKHi3lAGmPu25Da84vLEcpeSWF1C1OkDazc0qZFJ5uysqCMdZntnkB8iTOfPkWUl2eQb/XJsJDmoXEjRNx8KgYHScuRMumLsg/PBs7V+9BoyeWoHtnd6Qe+hEX/lyJ9MzS62KpIsai94Rp8DPsw5FPXkZMlqbiNYcIhI2chPZ9+sLZlIqLP7+IY7EhBIBfoqm/CDlH52MLeQ8Dn1qM/oM8cG3+Uzh68hoMN22D24Pf4oGhHRG/9jkcvRaAvhO/JICk1h3Q3ACQy9AxPBpbZ80BuszCA+MfgJzeiCXH52DHyp3wf3wxeSBDkb3lXez/OQohr6wgDySFzWUfwPGFryHJZTwGv/giZNcWYeuCz1B2U7qj2PkB9J7yKYK8pVTote5yIS0NkLwPpPW9x+3ZorJyLT766QBahHhj/H1tOUDa6M3AAdJGN85OzOYAaScbzZfJFeAK/E8B8wPkm0hxGo2+r74GL0U+En9/AwcP6tD+5a/Rqrkb8g7Nxu5f9qPx0yvQNTwVhxdMQIL0PnR+YAiU6suUy7gM2S6PEoB+CIerX+LgulPwHvg4FcVwgNS1KXzCwyBj+Y3qFFxe8xKOEQD2mfgFmgVIkXNkPv74fhcB5CL0G+SH+EXP4tDBdDQaMoEKvHgLRX1EkEIZ0JHG0+LyLy/g+KXG6P0mAWiAAwwUXvoPD2TLWOz+4G3k+jxJHsh30cgxF/G/TcaRnbEIGbsM3fuFInfnDOxbsQXuTy5D7/u7QBdDYbPL5iI/4GUMeuFFKOOX4c+P58HYbBTuua83lCYdWNqjRBEIz2bNoJRRiZ5bVgiq+Z3LAbLmmvErGpYCq3aew4X4DEx9qg9FgCiuL457IG1nnzlA2s5e2aOlHCDtcdf5mrkCdq6AeQHyOE7NexlJzs9gwJvvwFuRS0VyJmDffj06vr4UrSPckHtgOnb8tAeB435C95aFOLHsLVyN1cPVzw8yqQFlSeeh9nsc/d+aAZeYBfhrxVqI3QKhpKo4RqMrvKg3WMTgwXCXZePCyrE4cSUQvd9ahOaBUmQfmovfl/5NYy/DgMGtUHpqOcHdMqhVvlBR/mIFqAUi7LFJiIhQIeE3Cj/dchAK90bwGvgB+jzYH+UEuH8u34mgZ3+kEFUnxCyZiMjDFyD1aERfRmXQFaejtNwbzV9YjC49IqC5sg6Hls5EWiEVAHLzhFRcipKMFCg6vocBz78Md300on+chIvX1HDydKOGIKzdhwQOzZ5Dl8fuJaCsrBBbR/clB8g6EpIPY7MKXE3Kxpw1RzBhaCd0a9GYA6QN7iQHSBvcNDsymQOkHW02XypXgCtQoYDZAJJVYS29gEurPkWmw4Po9OQYuMsLkbbnU5w+rUfEEx8iPNgZhWeWInLbSfjcPwVt2wdQldSdiFq/BKmZeXBpOxL+skxkFjVGmzEvwjF5LY7/sBR5UjfIZRKY1Hkozi+F19AvMOC+1kj5axqiE3zQcfQkBPlKUHD2B+zbHAm/Bz9Epy5hMOnKUBy7F9f2/EhVWDMqY8GboeW4aYhoFwR9RiQubPwG8TFZ8L5vBrrd1wXqMytw5Ndj8BsxBa27h8OQeoyqwC7F1TMJcG0+CgGNruH8rmg0HvUVunZrToVeC5F7+mec+H0DSg1t0OqR+2BMOIBMQzt0GPE43B2M0BRdQ/KO73Hl8FGUCfHoUjh2eBt9nhgCFQGk0YY9kNOnT8fMmSgdPvYAACAASURBVDOFe8vb2xsZGRk8B5J/2NSrAjqtHlNWHUSItzNeIoisOrgHsl63pUaTc4CskVz8ZAsrwAHSwoLz6bgCXIH6V8BcAHl9ZdRrkfVNvB6WScDEkOl/YZr0M/3ORH0Rq3oish6RQrUo6vlYcS3rHZmBqwvG4GS0J1qMex7eniroU3fh5Ib1kN37BQaPvJ9adVAFU4oHvXlsoeekUH2qoo8k++GfYaIVr4tYv8rrtlWd8//2VdhE5lGl2OLjlMO5ai/lcC4kgGwq9JikcsnCHMJ6aE5hfurxWDFnZR9INsY/WnbcbFPd3BuW9kBu2LABq1atEoz39/fH4sWLhf3lB1egPhVYv/8i9pyKw+znBsDL1UEwhQNkfe5IzebmAFkzvfjZllWAA6Rl9eazcQW4AlaggHkBsgK+GA3+DyAreppWACPjqcpz6OcKx1vlzxUn0ZUVECaiUNCcPQtxevcGZKYVVSrnDq+2o9D60bFoFORJ3r+KMW899k3jV47C4K7SmAp7q+aurFgl/O4G+6psFpMXtODgFGz/YRcCxv6Inr2aw6SnQldVaxJsqYTGGzUQzKA13chV/we1dXNzWBog68ZqPgpXoG4VSMsuxJSfDuG5+9qgZ+tAYXAOkHWrsTlH4wBpTnX52LVVgANkbRXk13MFuAI2p4B5AbIu5ZCQY0+DktSzyIhPFhyUUrdQeIW3gYuDlPIhWe5gXc5357FE5M3UZkcjPS4DDiHd4O3jIngaremwNEBu27YNGzduFCTw9fUVekJyD6Q13RH2a8tMCmOlzGe8/1RvoaeyfQAkPZhjD9aEh3AsGoI+JNlnJXswRxEXwmFkvWfZKVKr7RHGAdJ+37e2sHIOkLawS9xGrgBXoE4VsB2ApGWLJJDIlJDKZYIGJoMOBq2a2l7c3JijTiW67WAiqQoyhQxGTQn0euuCR2a4pQFy2rRpmDVrlqCZp6cnsrKyeA6k5W5HPtNtFNh3Jh4rd1/Ax8/2hZ+HMwHkPsR+9xIMxckQSf9XnbXuRWQQR5EJ19vzsDB2Gf2rBLg7TkiRGAYt/SPsIztFLES+ugd9ZookBIZGmp/Akeo90xj0+cmKdZFNFG9Pv5JVRN0zG4WncPSajuYj3BbLKj5r6/vgAFnfO8Dnv50CHCD5/cEV4ArYnQI2BZB2tzu1X7ClAZL3gaz9nvERzKNAUYkaby/fg6GdQvBwrxbIPkEAudScAMmojIEjPfty9IfS0wsSOcGcrgiarHToNOX/8wLecskEdFSlWezoBZmjHIbCTOg12mo0gybopOJB4oBHETTxYzgnLMbVlZ+jDB3Q6NUf4a88hLjv3kFemhu8XlyLsPZA6rdjkHYpjXK73SBz94DYWAptQZ4Q7VHfBwfI+t4BPj8HSH4PcAW4AlyBGxTgANmwbwcOkA17f/nqaqbAos3HkJRbirnPD0AeAWSMWQGSefnIwddkOBqN+ADeATpocjJgUvpCn7gXmX9+hoK0fPLyEVTe8tDCWOoLtyeWouljrZH1ycNIjroAk4w8kbddOgGkRgdxyDMIn7II3rmrETVvIgrL2iFo6m4E+ZzCtQVPIu28Bh6PfYbACCBz3YfIjk0E3J9H86nz4Vz8M87NeR9aIQKWhb/W38EBsv605zPfWQHugbyzRvwMrgBXoIEpwAGygW3oTcvhANmw95evrmYKnL6Shm+2ncGn/xkM2ZUjuLLoRfOFsOrKYXTrg4AJaxDcPAsJ34xD8tGzkISMgn/PCKjPrkXOlXjySlJLImoxZNTqKJe7Yj0iAkSJ0gEiUyn02U5wfWY9WjzdARlTuyP+5BWInBwgVSjJO0mASZ5Mo5blNVY4JkVyRxqT2igxgAweg7D3l8Ir/0ecW/AWAWRrNPngLwT7nMW1r55F+sVEiCkNQKch0HVxhJTm08qfQav5y+BS9B1OT5oILYW5Sh1dKBSWBic7DRrN/+yk8FiJ0tHsgMkBsmb3OT/bsgpwgLSs3nw2rgBXwAoU4ABpBZtgRhMsDZBz5szBlClThBWFhIQgJiaG50CacX/50DVToIDCWL/49Sju73UPWpZewcWFz5sJII0wqgFZi9fR/KMZcL6yEGc//wClhUZIJHoB+BjoiaXUFMiogDTsIXh37A4nT2oxYihCSfR2ZB7aAb1rS3j2fQP+vQbCNcQD5dE7UZqXgeLTvyLjyB4YRaFw6jgU3l3aQC4Vw1iSivyj65Efc4nmICgMeeqWAHn1y7FIv1AM134vwSdUgYL9v6JU0Rl+94+Dd/sukOlikB91Evq8C8jcvRJFadkQ+98H7x73w62xOwmvgTruCLL2boKGYFUkvZ0ntWb7dPPZHCBrpx+/2rwKcIA0r758dK4AV8AKFbiQVIyF+9OQV6aHjD1h5keDUoAB5IBmbvhP30aQU9sRcx/z58/H9OnThWnCwsIQFRXFAdLcovPxq60AKxKzPfIKjDIH9JEl4cI35gNIE3kURQGPIeSd7+HveRUJS15FWuRR8t5V9oKlyqgminGVtngTTQb3gyE9EqWxGVD1ehl+rVyQ89M4xB27QhWeh8Ln/gnw6xqIoj8+Q25iItQpx1F4VQ2XBz9F6MhBMFxYi4xTsXDo9Cy8gvOR9t0ryDhzDqLw8Qh//7t/9UBe/fJppJ8XwfedA4jo6YH0RUMRf64Ubp1fQOCjo6FSH0bSb+ugL01D0cUDUDs+hOAXPqVq0znI3vk9ysSd4NP/fuDC17i2aiG0OqPZPJEcIKt9i/MT60EBDpD1IDqfkivAFahfBXafy8Wq45nQUIU/SU2q+9Wv2Xz2aiqgocqwLXxVAkA29lBV86q7Py05ORnx8fHCACqVCp07d777wfiVXAEzKBCbmoe4XDW6GmPJA/mCmTyQZDgLL9V7wrHPbIQ//xQcJUUoPr4RGbuXIe8yeQipejSriCpyDITS0QhNdgK0+SVAwKtoNfsrOOctQ9SMV1GW7QK3Z9ZSCGt7ZEzrg4RTl6iHkRSylm+j2dufwDHpU0TP+xAlGQRwzcbino9+gFveNzg7dwq0vo+h6eQVtwFIE3xe3YqIXh5IWzEKsdsPwuTyDFp+vJhCWFfgzOTXyM9ItVolLeD57Go0G+SNtHkPIe5gNAxGJ3g+/wfuGX4PMhY+gsTIaKG67B2SM+9qRzlA3pVs/CILKcAB0kJC82m4AlwB61Fg6d5U7LycD4WM+oRZj1nckjpSwEiJUZRhhZf6NkZP8kSa+/jqq6/AwljZwUJYjx49yj2Q5hadj18jBQpL1SggKnKJP44ri82YA8msYlVYde5Qth2LxsPGwiM0DHIVefB+/5S8e9+jXGOkDEMtDOXlFMpasQyDrj/CFvwKf69juPzuKOTne8FjzA9o9ngbZM19AElnT1MeYgDcRi5B86cHQ7N3NpKPnaQrKYdS3A3+T02Fp9sBRL0yEiWuD6HplO+rB5DLH0fc7gMQeb2EiOmfUxGdVYie9R55Fksol3Msmk1eBB+vy0haOkdoD0QECUnHSQgf0g0lvz2N82t/q+wlWfd/SThA1ugW5ydbWAEOkBYWnE/HFeAK1K8CBvI6zvs7EScSiuFAhRz40TAVKFEb8EwPPwzv4G32Bc6ePRtTp04V5gkKCkJcXBwHSLOrzieoiQJGCmMVUbWZHLO38ai0ivVc1GsIEBvDodtTaPzoq/ANUyDjxxcQ9/tGmKTOEDfqBNdmbeDgRsVvjM3hPvhxOOp24vKHY/4FIE9S/9vW8B63Ak2HdYQu/iBKM7NhYj0fWQ9HPYFkzkkk/roCOu/hCJ+8vHYAqSmCqem7aPnWJ/BwSUdB1HGwlresYI/JqKf5SlAc+T3ST0fR76haK3uhjg8OkHUsKB+uThXgAFmncvLBuAJcAWtXoJzA4rOdSTibUgoVeSD50TAVKKM6/I+09cRYgkhzfLm7UTXeB7Jh3kMNcVXZx/ci9rsJ5gthZaIRrNJ/6B+DKjXlE0qg7Pw12kx5Fqajn+Dit7OgDX0NYU+9ApU4CaWXjkIvCodrj8FQlm3HpclPoeD/PJCnyAMZBo/Ry9H88d4oWjsSF9duBD0PrHh7M0+mWEphp/I7FNFhOZA3hLDeygOpLYLR9xW0mPIVPB0P4uIrDyA7r0woAMTWx5YoVjgJlV/NdXCANJeyfNy6UIADZF2oyMfgCnAFbEYBtYYAckcSznCAtJk9uxtDGUA+2s4TT3fnAHk3+vFrGqYCFgFIASLJK8j6c5j0FKqqgKr1HLSc8wqwfxouLdkM5zd3oHm7IsRNux9JJ+NhlPZD+OcbqPBOJC6/93iFB/Lpn9D8Mco1nHUvks5EUyEeJRS9PkbLiROhOD8Xp7+YCy09EBRRWw2RmDyRlM/+zzYeK6mNx5s3tPGIwtUvn7oFQL6MFjO+gFPh94ia/hb1gaQwXHEvBLzzM4I7AUlz7kPimWsEkJS/SR5HNp+5H0xxgGyY78GGsioOkA1lJ/k6uAJcgWopUKbWE0AmIyqVeyCrJZiNnsQB0kY3jpttVgXMCpCU+2g0uMGp01vwHxiGkoNrqGrqKRi9hsF/1Jvw8U1B0uIJSDtdBO+JvyG8uwsyv38RyRe0cOn9DkIfGwJF3nacf/dxFBZRheyen6Llyy/BsPNtJByiAjzGTJSmOqHRhBUI7uqN3L/mImX7Fpi8u8Gl+yg45m9A8tZfYQig3MXpi+GVsxpRn0xEYXk7BE3fiyDvk7g6f1RFFdY3dyGijyfSljyC2J2HqL1IDzR6axUCQ5IRt2A6yvQy6AvI6xnwDlq8/gZU+buQ8PMnKEjUwaH9SLi39kbR5lnIS8sUANYcBwdIc6jKx6wrBThA1pWSfByuAFfAJhTgAGkT21RrI1nBi1GU//hkN/JAmvlgLTxmzpwpzOLt7Y2MjAyeA2lmzfnwd6eAWQGSha1SoqDIqytce46DT8sgyBX0O6kjjLnRyNj1PXKjT5JnTwKJ62D4jHgRPmGu1LtRB23yZWidwuAovoDExVNRrCmnGNHWcB/6PgK7BlEkbC7ydsxH8t59dG1feDxILT66hEFcRhVcdeUoTTmD7N0/ojiB8o8DhyHwxWlwSlyBmLWLUS5qC7/nF8JPHomEn6ahINMF7k98jZD2rsje9C5Sjl8QvJeS8GfRZMRYODuSPUm7kLxxPopyxFQM6CUEDBkOFzfyplLbDn1eKoqiNyP72A7odOQBNUP+I9tdDpB3d4/zqyyjAAdIy+jMZ+EKcAWsRAEewmolG2FmMywJkBs3bsTq1auFFfn7++Pbb78125dKM8vGh2/gCpgXIAXsoXxECl81Ud/HynBPKl0qFLkRUiNZqCkDLlaI5vo5LOKVXmd5jPSaSFyZmy6EwVLxH2qTIYSnspBYGt9k0LMTK34voVBSdh79ThhPuJbZYKT/3vwzG56FnrJT6HWhsFBVARwal+xm9ZtFUvon5DnSOMLYNC+zW7CD/YrmonYk19dipnuGA6SZhOXD1okCHCDrREY+CFeAK2ArCnCAtJWdqp2dlgTI2lnKr+YKWE4B8wNk5VoYDTL+qloaQZsAa9cP9mJFMRp2VDnxhNI7N54ngF7VOcIgFYB4w7UV11e9xn5iAEljMxi9PjADyhvGrhy3AiCrjLph3BuvvXk+NhW7yEyex+vWUBVb5zYjKIR2EWROTpa7SfhMXIFqKMABshoi8VO4AlyBhqMAB8iGs5e3W4klAXLr1q3YsGGDYI6vry8++eQT7oG0j9vM5lZpMYC0OWWsz2DugbS+PeEW/U8BDpD8buAKcAXsSgEOkPax3ZYEyGnTpmHWrFmCsJ6ensjKyuI5kPZxm9ncKjlA2s6WcYC0nb2yR0s5QNrjrvM1cwXsWAEOkPax+ZYESN4H0j7uqYawSg6QtrOLHCBtZ6/s0VIOkPa463zNXAE7VoADpH1sPgdI+9hnvsqaKcABsmZ61efZHCDrU30+950U4AB5J4X461wBrkCDUoADZIPazlsuhgOkfewzX2XNFOAAWTO96vNsDpD1qT6f+04KcIC8k0L8da4AV6BBKcABskFtp1UA5Jw5czBlyhTBlpCQEMTExPAcSPu4zWxulRwgbWfLOEDazl7Zo6UcIO1x1/mauQJ2rAAHSPvYfEt6ID/77DN89NFHgrChoaE4e/YsB0j7uM1sbpUcIG1nyzhA2s5e2aOlHCDtcdf5mrkCdqwAB0j72HxLAmRycjLi4+MFYVUqFTp37mwfIvNV2pwCHCBtZ8s4QNrOXtmjpRwg7XHX+Zq5AnasAAdI+9h8SwLkl19+CRbGyg4WwhoZGck9kPZxm9ncKjlA2s6WcYC0nb2yR0s5QNrjrvM1cwXsWAEOkPax+ZYEyBtzIIODgxEbG8sB0j5uM5tbJQdI29kyDpC2s1f2aCkHSHvcdb5mroAdK8AB0j4235IAyftA2sc91RBWyQHSdnaRA6Tt7JU9WsoB0h53na+ZK2DHCnCAtI/N5wBpH/vMV1kzBThA1kyv+jybA2R9qs/nvpMCHCDvpBB/nSvAFWhQCnCAbFDbecvFcIC0j33mq6yZAhwga6ZXfZ7NAbI+1edz30kBDpB3Uoi/zhXgCjQoBThANqjttAqAnDZtGmbNmiXY4u3tjYyMDJ4DaR+3mc2tkgOk7WyZAJCth6PFG4shc3KyHcO5pXahAAdIu9hmvkiuAFegSgH7BUgRxAonyGUm6MpKYTCYAFHDvS8s6YHctGkTfv75Z0FMPz8/LFy4ECJRAxa34d42DX5lWZG7EbfsZRhKUiCSKhr8em15gdwDacu71/Bt5wDZ8PeYr5ArwBW4QQG7BEiRGBKokX95F5JTJGjUZQA83RQwGowN9t6wJEA2WBH5whqcArlnIxGz5AXo82Ihkikb3Poa0oKM2jJ43/sGwsfPgkQua0hL42tpAApwgGwAm8iXwBXgClRfAbsESLEMclEurq16AYf2K9BpymK0auoGvVpXfeFs7ExLAuTWrVuxYcMGQSFfX1988skn3ANpY/eLvZirKy3GxU8fQ2HU35A6udvLsm1vnSYj9GWFaPraz/AfMNr27OcWN3gFOEA2+C3mC+QKcAVuVMA2AVIMsVRGEad6GE0SiCWAUUfwR2AokdAPwmGCyUivG/QwUXSqcJDnUSyV0/lyyEwZuLbmNew/LEfXtz5DRKgrDHrRra8XrpXSRAYameYU0//qtf8b28pvK0sC5I05kJ6ensjKyuI5kFZ+f9izeRkHfkP8j29AX5BKHyEUxsre3PywGgVM9Blu1Gng2WMMmr74JeSuHlZjGzeEK1ClAAdIfi9wBbgCdqWA7QEk5dKZNNAUFsKk9IRSVoLSAi19qXCDSFeA8uKyyv0Tk0fBBw7ODiAyhEnEoM8AbX46yrUiOLgqkL51EvYfkhJALiCAdII6PxPlJf9yPYNGQznKC4shcfSE1FSM8lI9FPRFRipl9lj/LWNJgOR9IK3/fuAWXn/OJDwEyjq8BSmbZkCbl0kPhnTcY24FN4iJNkZED+5EUglc2w5C6Nj5UHp4CQ8HG3TCuhVoz02ouQIcIGuuGb+CK8AVsGEFbA0gRRLKfSk9j+hlHyFV3B4+quO4fNQZnd+dAYe4j7Fv44Hru+EYMQL3DH0ZoRFNIEMpcs9vwvmf5yExUw3HiMHwMl5FYm4our7+GVoFGxH766vY/8fR/7s+vFU4pHn7sX/xApR7tIFzMeVNJXqh27sLEdHEETq9wervAA6QVr9F3MB6VkBTkIuC88ehzk7hXsh63gtheiMBJEV9uIS3hUvT1hURIBwerWFnuA3/ogAHSH5bcAW4AnalgE0CZNllXFg6HmfOFcC56QD4BXRH6MBBkBceREx0HBVYUEKsz0Da4T9Q5Pcyhkx6Ha65f+PAl28jsSQITdq2hlybhuxLJ1Co7I1ur3yMFiFyZJ/5DbEXE2+6fgKGvPcmPEoOY/+i1xB/tQxurfrCN7QzgnsPh6+nAgaj9Rff4QBpV29rvliuAFeAK8AVsKACHCAtKDafiivAFah/BWwTIC/i3Lcv4nJxT/R4Yx7Cgx2gFUJPy1B4YT+SLl0mr2AWMo5tR7F4JPp//AFUUfOxZ9FaOA1bjL5PPAQn3VWcXzEBh0+7oOub8xER7gnoS+j6fTddPxx9Z3wEf0Mk9n3zKpIMD+O+N6cjwE8ObXERwaMNxK+SMpYEyDlz5mDKlCnCzR0SEoKYmBieA1n/b3VuAVeAK8AV4AqYSQEOkGYSlg/LFeAKWKcCtgmQFxD9DXkDJQR3r70BT4UWBk0akv78FGf2HERxSel1sRUe4zDg4/cgPzELe5Zvhe/Y1eg2pDtUxnRc++Vl7DtIOZDvfIkWgaWI2zz7X65/RgDIRkYCyK9fQbLvy3hk7Hg4yXTUO9L6PY9VQlgSIBcsWICPPvpImDo0NBRnzpzhAGmdb39uFVeAK8AV4ArUgQIcIOtARD4EV4ArYDsK2C5ATkScaCj6THwLPk4maAuO4sTU55Hk8Cg6jxsJR/U5XPrlK2SqH0K/T6fB+doS7PnyC2jbvomejz8KVfEJRK2Zg/iCDuhOVVibeV3CkffG/sv1D6DP7DlobKoESM8X8PC45+GiNHCAvMVtnpycjISEBOFVpVKJzp07284bglvKFeAKcAW4AlyBGirAAbKGgvHTuQJcAdtWwCYBsjQaZ+Y/i2uikRj43mQCSAP0pXGI/fl9nDp6FjqjGHK3xvhve/cXm1V9xgH8acufIgW6+tYgiCmUZFkWCcZIYmLi3J+YeOFutpvF6MxulpllWXaj6R+Q/llgIXqxeLfFLFu2TO9UzFa9mQgRu7BsoFtHhwIFSxWN01KglL3vISMsU8C37XlP39+nCQbkPef5PZ/nF5JvzjnvWXxhIqbKt5x+ZXAwbln8Vvz1N1vjb3sPlF/+EbGk1BHN50/FR7E57vzxz+PLt34Q//jFT2L4U46/96c74paLe2Jo53djrPTD+Ob3H41VAuRnbvynnnoq+vr6sr+vXIF8/fXXXYFc2P9MWD0BAgQIXEVAgLQ9CBBISmDBBcjKSx/PjcWxoV/HqYbb44tfvy9WLLn0bsaZj96Kf736+3h3bLL8zX1fi9Kq92L87eWx/r77o621/GU3HxyKIy/9Lk582BA33f2tWN0wGkfenIj2e74T625uifPvH/qU41tiw/0PxBcajsTfh34Vp1vuic133xPLFs/EzAJ5/rGyofO8hfXKZyA7OjpidHRUgEzqXxXNEiBAIC0BATKteeuWQPICCy1AZgMrv9OxqXl5OTKei/NnzpTDY/ldjJX/3bgkmpYui6ZyxpyZPlf+FvjG8u9nYrr8mUrWy/6+ufz3jRdj5uxUXIhFsWhxQ1yYmizfjlo+S9NnHT8ZM5XPNrdE08WpODd1diG8+vF/9naeAdJ7IJP/ZwUAAQIEkhIQIJMat2YJEFiQAdLYPreAAPm5yRxAgAABAgSuS0CAvC4mHyJAoF4EBMh6meTV+xAg05izLgkQIEAgfwEBMn9zFQkQqKGAAFlD/BxLC5A5YitFgAABAkkJCJBJjVuzBAgIkGnsgTwDZE9PT/T392ewbW1tMTEx4Ut00thmuiRAgECSAgJkkmPXNIF0BQTINGafZ4Dcv39/7NmzJ4NtbW2NRx55JBoaLn3RkR8CBAgQIFBvAgJkvU1UPwQIXFVAgExjg+QZIF955ZXYvXt3BlsqleKxxx4TINPYZrokQIBAkgICZJJj1zSBdAUEyDRmn2eA7O3tjb6+vgz2xhtvjFOnTrmFNY1tpksCBAgkKSBAJjl2TRNIV0CATGP2eQZI74FMY0/pkgABAgQuCQiQdgIBAkkJCJBpjFuATGPOuiRAgACB/AUEyPzNVSRAoIYCAmQN8XMsLUDmiK0UAQIECCQlIEAmNW7NEiAgQKaxB/IMkAMDA9Hd3Z3Brl+/Pg4fPuwZyDS2mS4JECCQpIAAmeTYNU0gXQEBMo3Z5xkgd+3aFdu2bctgN2zYEAcOHBAg09hmuiRAgECSAgJkkmPXNIF0BQTINGafZ4A8evRoHDlyJINdtmxZbNmyJQ1kXRIgQIBAkgICZJJj1zSBdAUEyDRmn2eAfPLJJy+/xqNyBXL//v2uQKaxzXRJgACBJAUEyCTHrmkC6QoIkGnMPs8AeeUzkB0dHTE6OipAprHNdEmAAIEkBQTIJMeuaQLpCgiQacw+zwDpPZBp7CldEiBAgMAlAQHSTiBAICkBATKNcQuQacxZlwQIECCQv4AAmb+5igQI1FBAgKwhfo6lBcgcsZUiQIAAgaQEBMikxq1ZAgQEyDT2gACZxpx1SYAAAQL5CwiQ+ZurSIBADQUEyBri51g6zwDZ09MT/f39WXdtbW0xMTHhS3RynLVSBAgQIJCvgACZr7dqBAjUWECArPEAciqfZ4B844034rXXXss6a21tjYcffjgaGhpy6lQZAgQIECCQr4AAma+3agQI1FigEiB/9sej8Zfjn8SyxY01Xo3y8yVQCZDfvr09vnPX6vkqcfm8L7/8crz44ovZn9vb2+Pxxx8XIOddXQECBAgQqJWAAFkreXUJEKiJwPT0xdjxh3di+J2PY/kSAbImQ8ih6L+nLsT37r45Hthcmvdqvb290dfXl9UplUoxPj7uFtZ5V1eAAAECBGolIEDWSl5dAgRqJvDLP52Ilw6djiXlK5BuNKzZGOat8IWLEYvjYvzoG+vijo6V81bnvyf2Hsh5J1aAAAECBAokIEAWaBiWQoBAPgL/PPlJ7Bo6FqfPTMeSJlch81HPr8pk+fbVO29dEY9+dW2svGHxvBcWIOedWAECBAgQKJCAAFmgYVgKAQL5Cfx238l47sB7sWRRYzQ1ug6Zn/z8VSpfeIyz52eitHxR/ODetbFp3Yr5K3bFmQXIXJgVIUCAAIGCCAiQBRmEZRAgkK/A5NnpeG54InYffD9myjeyNpUzpC/OzHcGc1ltppweN4NDlgAABvhJREFUp8v/Wd2yKB666+bY0rlqLk9/1XMNDAxEd3d39pn169fH4cOHPQOZm75CBAgQIJC3gACZt7h6BAgURmC6/LDcn9/+KF4d+SDefPdMnCv/ObsW6YJkYWZ0zYWUg+NM+UMrlzbGHbe2xL1faovOm2645mFz+YEdO3ZcDpAbN26MQ4cOCZBzCexcBAgQIFAoAQGyUOOwGAIEaiFwpvzM3OmPz8eHk9NxoXwVy5XIWkyhupoXK1+YU36OtbRicbSWb12t/D7vn6mpqZicnMzKNjU1xapV+V39zLtX9QgQIECAgABpDxAgQIAAgVkInDx5MsbGxrIzLF26NG677bZZnM2hBAgQIECg2AICZLHnY3UECBAgUHCB7du3x9atW7NVrl27No4ePeoW1oLPzPIIECBAoHoBAbJ6O0cSIECAAIEYHByMrq6uTKKzszNGRkYESPuCAAECBOpWQICs29FqjAABAgTyEPAajzyU1SBAgACBoggIkEWZhHUQIECAwIIUECAX5NgsmgABAgSqFBAgq4RzGAECBAgQqAgIkPYBAQIECKQkIECmNG29EiBAgMCcC/T09ER/f3923ra2tpiYmPAM5JwrOyEBAgQIFEVAgCzKJKyDAAECBBakwPDwcOzduzdbe+UdkA899FD5XaINC7IXiyZAgAABAtcSECCvJeTvCRAgQIDAVQSGhobihRdeyD7R3t6efSOrAGnLECBAgEC9CgiQ9TpZfREgQIBALgK9vb3R19eX1SqVSjE+Pu4W1lzkFSFAgACBWggIkLVQV5MAAQIE6kbAl+jUzSg1QoAAAQLXISBAXgeSjxAgQIAAgc8SECDtDQIECBBISUCATGnaeiVAgACBORcQIOec1AkJECBAoMACAmSBh2NpBAgQIFB8gYGBgeju7s4W2tHREaOjo56BLP7YrJAAAQIEqhQQIKuEcxgBAgQIEKgI7Ny583KA3LhxYxw8eFCAtDUIECBAoG4FBMi6Ha3GCBAgQCAPgampqaj8qvw0NjbGypUr8yirBgECBAgQqImAAFkTdkUJECBAoF4ETpw4EcePH8/aaW5ujk2bNtVLa/ogQIAAAQL/JyBA2hQECBAgQGAWAtu3b4+tW7dmZ1izZk0cO3bMLayz8HQoAQIECBRbQIAs9nysjgABAgQKLjA4OBhdXV3ZKjs7O2NkZESALPjMLI8AAQIEqhcQIKu3cyQBAgQIEAiv8bAJCBAgQCAlAQEypWnrlQABAgTmXECAnHNSJyRAgACBAgsIkAUejqURIECAQPEFBMjiz8gKCRAgQGDuBATIubN0JgIECBBIUKCnpyf6+/uzztva2mJiYsIzkAnuAy0TIEAgFQEBMpVJ65MAAQIE5kVgeHg49u3bl527tbU1HnzwwWhoaJiXWk5KgAABAgRqLSBA1noC6hMgQIDAghYYGhqK559/PuuhVCpF5YqkALmgR2rxBAgQIHAVAQHS9iBAgAABArMQ6O3tjb6+vssBcnx83C2ss/B0KAECBAgUW0CALPZ8rI4AAQIECi7gS3QKPiDLI0CAAIE5FRAg55TTyQgQIEAgNQEBMrWJ65cAAQJpCwiQac9f9wQIECAwSwEBcpaADidAgACBBSUgQC6ocVksAQIECBRNYGBgILq7u7NldXR0xOjoqGcgizYk6yFAgACBORMQIOeM0okIECBAIEWBnTt3Zt+8Wvnp7OyMgwcPCpApbgQ9EyBAIBEBATKRQWuTAAECBOZH4OzZs1H5VflpbGyMlpaW+SnkrAQIECBAoAACAmQBhmAJBAgQILBwBcbGxuLYsWNZA83NzbF58+aF24yVEyBAgACBawgIkLYIAQIECBCYhcATTzwR27Zty86wZs2aLExWrkT6IUCAAAEC9SggQNbjVPVEgAABArkJDA4ORldXV1av8gzkyMiIAJmbvkIECBAgkLeAAJm3uHoECBAgUFcCXuNRV+PUDAECBAhcQ0CAtEUIECBAgMAsBK68hXX16tVReSbSLayzAHUoAQIECBRaQIAs9HgsjgABAgSKLvDMM8/E008/nS1z3bp18eyzzwqQRR+a9REgQIBA1QICZNV0DiRAgAABAgQIECBAgEBaAgJkWvPWLQECBAgQIECAAAECBKoWECCrpnMgAQIECBAgQIAAAQIE0hIQINOat24JECBAgAABAgQIECBQtYAAWTWdAwkQIECAAAECBAgQIJCWgACZ1rx1S4AAAQIECBAgQIAAgaoFBMiq6RxIgAABAgQIECBAgACBtAQEyLTmrVsCBAgQIECAAAECBAhULSBAVk3nQAIECBAgQIAAAQIECKQlIECmNW/dEiBAgAABAgQIECBAoGoBAbJqOgcSIECAAAECBAgQIEAgLYH/APmOE+Ng2rfXAAAAAElFTkSuQmCC;" vertex="1" parent="1">
          <mxGeometry x="230" y="276" width="912" height="384" as="geometry" />
        </mxCell>
        <mxCell id="cqRFZYUG5nDRbfdlNZfL-11" value="" style="edgeStyle=orthogonalEdgeStyle;rounded=0;orthogonalLoop=1;jettySize=auto;html=1;" edge="1" parent="1" source="cqRFZYUG5nDRbfdlNZfL-8" target="cqRFZYUG5nDRbfdlNZfL-10">
          <mxGeometry relative="1" as="geometry" />
        </mxCell>
        <mxCell id="cqRFZYUG5nDRbfdlNZfL-16" style="edgeStyle=orthogonalEdgeStyle;rounded=0;orthogonalLoop=1;jettySize=auto;html=1;" edge="1" parent="1" source="cqRFZYUG5nDRbfdlNZfL-8" target="cqRFZYUG5nDRbfdlNZfL-17">
          <mxGeometry relative="1" as="geometry">
            <mxPoint x="-310" y="410" as="targetPoint" />
          </mxGeometry>
        </mxCell>
        <mxCell id="cqRFZYUG5nDRbfdlNZfL-8" value="Pédestres" style="rounded=0;whiteSpace=wrap;html=1;fillColor=#d5e8d4;strokeColor=#82b366;" vertex="1" parent="1">
          <mxGeometry x="-550" y="300" width="120" height="60" as="geometry" />
        </mxCell>
        <mxCell id="cqRFZYUG5nDRbfdlNZfL-10" value="Systématique" style="rounded=0;whiteSpace=wrap;html=1;fillColor=#d5e8d4;strokeColor=#82b366;" vertex="1" parent="1">
          <mxGeometry x="-370" y="182" width="120" height="60" as="geometry" />
        </mxCell>
        <mxCell id="cqRFZYUG5nDRbfdlNZfL-17" value="&lt;div&gt;Non systématique&lt;/div&gt;&lt;div&gt;&lt;br&gt;&lt;/div&gt;&lt;div&gt;Topographique&lt;br&gt;&lt;/div&gt;" style="rounded=0;whiteSpace=wrap;html=1;fillColor=#d5e8d4;strokeColor=#82b366;" vertex="1" parent="1">
          <mxGeometry x="-370" y="407" width="120" height="60" as="geometry" />
        </mxCell>
        <mxCell id="cqRFZYUG5nDRbfdlNZfL-21" value="" style="edgeStyle=orthogonalEdgeStyle;rounded=0;orthogonalLoop=1;jettySize=auto;html=1;" edge="1" parent="1" source="cqRFZYUG5nDRbfdlNZfL-18" target="cqRFZYUG5nDRbfdlNZfL-20">
          <mxGeometry relative="1" as="geometry" />
        </mxCell>
        <mxCell id="cqRFZYUG5nDRbfdlNZfL-24" value="" style="edgeStyle=orthogonalEdgeStyle;rounded=0;orthogonalLoop=1;jettySize=auto;html=1;" edge="1" parent="1" source="cqRFZYUG5nDRbfdlNZfL-18" target="cqRFZYUG5nDRbfdlNZfL-23">
          <mxGeometry relative="1" as="geometry" />
        </mxCell>
        <mxCell id="cqRFZYUG5nDRbfdlNZfL-18" value="Géophysiques" style="whiteSpace=wrap;html=1;rounded=0;fillColor=#fff2cc;strokeColor=#d6b656;" vertex="1" parent="1">
          <mxGeometry x="-550" y="780" width="120" height="60" as="geometry" />
        </mxCell>
        <mxCell id="cqRFZYUG5nDRbfdlNZfL-20" value="électrique" style="whiteSpace=wrap;html=1;rounded=0;fillColor=#fff2cc;strokeColor=#d6b656;" vertex="1" parent="1">
          <mxGeometry x="-370" y="620" width="120" height="60" as="geometry" />
        </mxCell>
        <mxCell id="cqRFZYUG5nDRbfdlNZfL-26" value="" style="edgeStyle=orthogonalEdgeStyle;rounded=0;orthogonalLoop=1;jettySize=auto;html=1;" edge="1" parent="1" source="cqRFZYUG5nDRbfdlNZfL-23" target="cqRFZYUG5nDRbfdlNZfL-25">
          <mxGeometry relative="1" as="geometry" />
        </mxCell>
        <mxCell id="cqRFZYUG5nDRbfdlNZfL-23" value="magnétique" style="whiteSpace=wrap;html=1;rounded=0;fillColor=#fff2cc;strokeColor=#d6b656;" vertex="1" parent="1">
          <mxGeometry x="-370" y="780" width="120" height="60" as="geometry" />
        </mxCell>
        <mxCell id="cqRFZYUG5nDRbfdlNZfL-25" value="radar" style="whiteSpace=wrap;html=1;rounded=0;fillColor=#fff2cc;strokeColor=#d6b656;" vertex="1" parent="1">
          <mxGeometry x="-370" y="920" width="120" height="60" as="geometry" />
        </mxCell>
        <mxCell id="cqRFZYUG5nDRbfdlNZfL-28" value="" style="endArrow=none;dashed=1;html=1;rounded=0;strokeWidth=5;strokeColor=#FF3333;" edge="1" parent="1">
          <mxGeometry width="50" height="50" relative="1" as="geometry">
            <mxPoint x="-200" y="1011" as="sourcePoint" />
            <mxPoint x="-200" y="121" as="targetPoint" />
          </mxGeometry>
        </mxCell>
      </root>
    </mxGraphModel>
  </diagram>
</mxfile>
